SplineFontDB: 3.0
FontName: Asap-Italic
FullName: Asap Italic
FamilyName: Asap
Weight: Book
Copyright: Copyright (c) 2011 by Omnibus-Type (www.omnibus-type.com) with Reserved Font Name "Asap".
Version: 1.001
ItalicAngle: -6
UnderlinePosition: -23
UnderlineWidth: 70
Ascent: 800
Descent: 200
sfntRevision: 0x00010042
LayerCount: 2
Layer: 0 1 "Back"  1
Layer: 1 1 "Fore"  0
XUID: [1021 721 594429068 13811901]
FSType: 0
OS2Version: 2
OS2_WeightWidthSlopeOnly: 0
OS2_UseTypoMetrics: 1
CreationTime: 1326989144
ModificationTime: 1326994452
PfmFamily: 17
TTFWeight: 400
TTFWidth: 5
LineGap: 0
VLineGap: 0
Panose: 2 0 5 3 4 0 0 9 0 4
OS2TypoAscent: 134
OS2TypoAOffset: 1
OS2TypoDescent: -12
OS2TypoDOffset: 1
OS2TypoLinegap: 0
OS2WinAscent: 2
OS2WinAOffset: 1
OS2WinDescent: 0
OS2WinDOffset: 1
HheadAscent: 2
HheadAOffset: 1
HheadDescent: 0
HheadDOffset: 1
OS2SubXSize: 650
OS2SubYSize: 600
OS2SubXOff: -8
OS2SubYOff: 75
OS2SupXSize: 650
OS2SupYSize: 600
OS2SupXOff: 37
OS2SupYOff: 350
OS2StrikeYSize: 70
OS2StrikeYPos: 313
OS2CodePages: 20000001.00000000
OS2UnicodeRanges: 00000003.00000000.00000000.00000000
DEI: 91125
TtTable: prep
PUSHW_1
 511
SCANCTRL
PUSHB_1
 4
SCANTYPE
EndTTInstrs
ShortTable: maxp 16
  1
  0
  252
  84
  7
  0
  0
  2
  0
  1
  1
  0
  64
  0
  0
  0
EndShort
LangName: 1033 "" "" "" "Omnibus-Type: Asap Italic: 2011" "" "Version 1.001" "" "Asap is a trademark of Omnibus-Type." "Omnibus-Type" "Pablo Cosgaya" "Asap is based on Ancha (designed by Pablo Cosgaya & Hector Gatti). This family, specially developed for screen and desktop use, offers of a standarised character width on all styles, which helps retain the same length on all text lines." "www.omnibus-type.com" "www.omnibus-type.com" "This Font Software is licensed under the SIL Open Font License, Version 1.1. This license is available with a FAQ at: http://scripts.sil.org/OFL" "http://scripts.sil.org/OFL" 
GaspTable: 1 65535 15 1
Encoding: UnicodeBmp
UnicodeInterp: none
NameList: Adobe Glyph List

StartChar: exclam
Encoding: 33 33 4
Width: 294
GlyphClass: 2
Flags: W
LayerCount: 2
Fore
SplineSet
188 702 m 2,0,-1
 208 702 l 2,1,2
 245 702 245 702 245 680 c 1,3,-1
 170 224 l 2,4,5
 167 202 167 202 137 202 c 2,6,-1
 126 202 l 2,7,8
 98 202 98 202 98 224 c 1,9,-1
 146 680 l 2,10,11
 149 702 149 702 188 702 c 2,0,-1
114 108 m 2,12,-1
 131 108 l 2,13,14
 169 108 169 108 169 86 c 1,15,-1
 162 20 l 2,16,17
 159 -2 159 -2 120 -2 c 2,18,-1
 103 -2 l 2,19,20
 65 -2 65 -2 65 20 c 1,21,-1
 72 86 l 2,22,23
 74 108 74 108 114 108 c 2,12,-1
EndSplineSet
EndChar

StartChar: quotedbl
Encoding: 34 34 5
Width: 319
GlyphClass: 2
Flags: W
LayerCount: 2
Fore
SplineSet
188 484 m 2,0,-1
 188 680 l 2,1,2
 188 702 188 702 230 702 c 2,3,-1
 240 702 l 2,4,5
 277 702 277 702 277 680 c 1,6,-1
 275 666 l 1,7,-1
 234 484 l 2,8,9
 231 472 231 472 209.5 472 c 128,-1,10
 188 472 188 472 188 484 c 2,0,-1
60 484 m 2,11,-1
 60 680 l 2,12,13
 60 702 60 702 102 702 c 2,14,-1
 112 702 l 2,15,16
 149 702 149 702 149 680 c 1,17,-1
 147 666 l 1,18,-1
 106 484 l 2,19,20
 103 472 103 472 81.5 472 c 128,-1,21
 60 472 60 472 60 484 c 2,11,-1
EndSplineSet
EndChar

StartChar: numbersign
Encoding: 35 35 6
Width: 534
GlyphClass: 2
Flags: W
LayerCount: 2
Fore
SplineSet
509 420 m 2,0,-1
 425 420 l 1,1,-1
 384 273 l 1,2,-1
 460 273 l 2,3,4
 471 273 471 273 474 266 c 128,-1,5
 477 259 477 259 477 243 c 0,6,7
 477 196 477 196 452 196 c 2,8,-1
 360 196 l 1,9,-1
 311 20 l 2,10,11
 307 8 307 8 298 3 c 128,-1,12
 289 -2 289 -2 265 -2 c 2,13,-1
 261 -2 l 2,14,15
 235 -2 235 -2 235 15 c 1,16,-1
 286 196 l 1,17,-1
 168 196 l 1,18,-1
 118 20 l 2,19,20
 115 8 115 8 105.5 3 c 128,-1,21
 96 -2 96 -2 72 -2 c 2,22,-1
 68 -2 l 2,23,24
 42 -2 42 -2 42 15 c 1,25,-1
 93 196 l 1,26,-1
 17 196 l 2,27,28
 6 196 6 196 3 202.5 c 128,-1,29
 0 209 0 209 0 226 c 0,30,31
 0 273 0 273 25 273 c 2,32,-1
 116 273 l 1,33,-1
 158 420 l 1,34,-1
 76 420 l 2,35,36
 65 420 65 420 62 426.5 c 128,-1,37
 59 433 59 433 59 450 c 0,38,39
 59 497 59 497 84 497 c 2,40,-1
 179 497 l 1,41,-1
 227 664 l 2,42,43
 230 676 230 676 239 681 c 128,-1,44
 248 686 248 686 274 686 c 2,45,-1
 278 686 l 2,46,47
 304 686 304 686 304 671 c 1,48,-1
 253 497 l 1,49,-1
 372 497 l 1,50,-1
 419 664 l 2,51,52
 422 676 422 676 431 681 c 128,-1,53
 440 686 440 686 466 686 c 2,54,-1
 471 686 l 2,55,56
 497 686 497 686 497 671 c 1,57,-1
 448 497 l 1,58,-1
 517 497 l 2,59,60
 528 497 528 497 531 490 c 128,-1,61
 534 483 534 483 534 467 c 0,62,63
 534 420 534 420 509 420 c 2,0,-1
191 273 m 1,64,-1
 309 273 l 1,65,-1
 351 420 l 1,66,-1
 233 420 l 1,67,-1
 191 273 l 1,64,-1
EndSplineSet
EndChar

StartChar: dollar
Encoding: 36 36 7
Width: 496
GlyphClass: 2
Flags: W
LayerCount: 2
Fore
SplineSet
34 56 m 0,0,1
 34 121 34 121 50 121 c 0,2,3
 51 121 51 121 70 108.5 c 128,-1,4
 89 96 89 96 125 83.5 c 128,-1,5
 161 71 161 71 203 70 c 1,6,-1
 230 324 l 1,7,8
 197 338 197 338 181.5 344.5 c 128,-1,9
 166 351 166 351 139 367.5 c 128,-1,10
 112 384 112 384 99 400 c 0,11,12
 65 440 65 440 65 498 c 0,13,14
 65 582 65 582 121 638 c 128,-1,15
 177 694 177 694 270 704 c 1,16,-1
 274 735 l 2,17,18
 276 746 276 746 280 750.5 c 128,-1,19
 284 755 284 755 296 755 c 0,20,21
 314 755 314 755 314 735 c 1,22,-1
 311 706 l 1,23,24
 360 705 360 705 411 687.5 c 128,-1,25
 462 670 462 670 462 646 c 0,26,27
 462 636 462 636 446.5 614 c 128,-1,28
 431 592 431 592 425 592 c 128,-1,29
 419 592 419 592 404 601 c 0,30,31
 358 628 358 628 303 630 c 1,32,-1
 278 403 l 1,33,34
 317 388 317 388 340 376.5 c 128,-1,35
 363 365 363 365 392 344 c 1,36,37
 448 301 448 301 448 212 c 128,-1,38
 448 123 448 123 389.5 63.5 c 128,-1,39
 331 4 331 4 235 -4 c 1,40,-1
 231 -48 l 2,41,42
 230 -68 230 -68 209 -68 c 0,43,44
 198 -68 198 -68 194.5 -63.5 c 128,-1,45
 191 -59 191 -59 191 -48 c 1,46,-1
 195 -6 l 1,47,48
 139 -4 139 -4 86.5 11 c 128,-1,49
 34 26 34 26 34 56 c 0,0,1
184.5 588 m 128,-1,51
 155 558 155 558 155 517 c 128,-1,52
 155 476 155 476 176.5 456 c 128,-1,53
 198 436 198 436 240 418 c 1,54,-1
 262 627 l 1,55,50
 214 618 214 618 184.5 588 c 128,-1,51
325 117.5 m 128,-1,57
 357 153 357 153 357 197 c 128,-1,58
 357 241 357 241 334 264.5 c 128,-1,59
 311 288 311 288 268 308 c 1,60,-1
 243 73 l 1,61,56
 293 82 293 82 325 117.5 c 128,-1,57
EndSplineSet
EndChar

StartChar: percent
Encoding: 37 37 8
Width: 765
GlyphClass: 2
Flags: W
LayerCount: 2
Fore
SplineSet
356 574 m 0,0,1
 356 491 356 491 317.5 436 c 128,-1,2
 279 381 279 381 200 381 c 0,3,4
 78 381 78 381 78 510 c 0,5,6
 78 625 78 625 132 669 c 0,7,8
 177 706 177 706 234 706 c 0,9,10
 356 706 356 706 356 574 c 0,0,1
601 702 m 2,11,-1
 626 702 l 2,12,13
 639 702 639 702 639 693 c 0,14,15
 639 688 639 688 635 683 c 2,16,-1
 196 17 l 2,17,18
 183 -2 183 -2 165 -2 c 2,19,-1
 140 -2 l 2,20,21
 127 -2 127 -2 127 5 c 128,-1,22
 127 12 127 12 131 17 c 2,23,-1
 570 683 l 2,24,25
 583 702 583 702 601 702 c 2,11,-1
205 436 m 0,26,27
 252 436 252 436 272 477.5 c 128,-1,28
 292 519 292 519 292 575 c 0,29,30
 292 652 292 652 228 652 c 0,31,32
 144 652 144 652 144 509 c 0,33,34
 144 436 144 436 205 436 c 0,26,27
686 187 m 0,35,36
 686 104 686 104 647.5 49 c 128,-1,37
 609 -6 609 -6 530 -6 c 0,38,39
 408 -6 408 -6 408 123 c 0,40,41
 408 238 408 238 462 282 c 0,42,43
 507 319 507 319 564 319 c 0,44,45
 686 319 686 319 686 187 c 0,35,36
535 49 m 0,46,47
 582 49 582 49 602 90.5 c 128,-1,48
 622 132 622 132 622 188 c 0,49,50
 622 265 622 265 558 265 c 0,51,52
 474 265 474 265 474 122 c 0,53,54
 474 49 474 49 535 49 c 0,46,47
EndSplineSet
EndChar

StartChar: ampersand
Encoding: 38 38 9
Width: 624
GlyphClass: 2
Flags: W
LayerCount: 2
Fore
SplineSet
467 535 m 2,0,-1
 471 535 l 2,1,2
 509 535 509 535 509 513 c 1,3,-1
 498 408 l 1,4,-1
 583 408 l 2,5,6
 599 408 599 408 599 389 c 0,7,8
 599 369 599 369 585 352.5 c 128,-1,9
 571 336 571 336 554 336 c 2,10,-1
 490 336 l 1,11,12
 469 143 469 143 469 123 c 0,13,14
 469 66 469 66 517 66 c 0,15,16
 536 66 536 66 549 70 c 2,17,-1
 562 73 l 1,18,19
 569 73 569 73 569 64 c 0,20,21
 569 -6 569 -6 498 -6 c 128,-1,22
 427 -6 427 -6 400 36 c 1,23,24
 326 -6 326 -6 235 -6 c 0,25,26
 122 -6 122 -6 64 70 c 0,27,28
 32 112 32 112 32 185.5 c 128,-1,29
 32 259 32 259 77 315.5 c 128,-1,30
 122 372 122 372 179 387 c 1,31,-1
 180 391 l 1,32,33
 140 407 140 407 115.5 440.5 c 128,-1,34
 91 474 91 474 91 520 c 0,35,36
 91 610 91 610 154 658 c 128,-1,37
 217 706 217 706 304 706 c 128,-1,38
 391 706 391 706 391 679 c 0,39,40
 391 667 391 667 381.5 647.5 c 128,-1,41
 372 628 372 628 364 628 c 0,42,43
 363 628 363 628 345 631 c 128,-1,44
 327 634 327 634 296.5 634 c 128,-1,45
 266 634 266 634 237.5 621 c 128,-1,46
 209 608 209 608 196 588 c 0,47,48
 174 551 174 551 174 513 c 128,-1,49
 174 475 174 475 204.5 441.5 c 128,-1,50
 235 408 235 408 297 408 c 2,51,-1
 414 408 l 1,52,-1
 426 513 l 2,53,54
 429 535 429 535 467 535 c 2,0,-1
285 336 m 2,55,56
 120 336 120 336 120 184 c 0,57,58
 120 121 120 121 159.5 93.5 c 128,-1,59
 199 66 199 66 259.5 66 c 128,-1,60
 320 66 320 66 384 103 c 1,61,-1
 406 336 l 1,62,-1
 285 336 l 2,55,56
EndSplineSet
EndChar

StartChar: quotesingle
Encoding: 39 39 10
Width: 183
GlyphClass: 2
Flags: W
LayerCount: 2
Fore
SplineSet
59 484 m 2,0,-1
 59 680 l 2,1,2
 59 702 59 702 101 702 c 2,3,-1
 111 702 l 2,4,5
 148 702 148 702 148 680 c 1,6,-1
 146 666 l 1,7,-1
 105 484 l 2,8,9
 102 472 102 472 80.5 472 c 128,-1,10
 59 472 59 472 59 484 c 2,0,-1
EndSplineSet
EndChar

StartChar: parenleft
Encoding: 40 40 11
Width: 301
GlyphClass: 2
Flags: W
LayerCount: 2
Fore
SplineSet
290 773 m 1,0,1
 300 783 300 783 310.5 783 c 128,-1,2
 321 783 321 783 330 776 c 128,-1,3
 339 769 339 769 339 759 c 128,-1,4
 339 749 339 749 328 736 c 1,5,6
 238 642 238 642 184.5 497 c 128,-1,7
 131 352 131 352 131 192 c 0,8,9
 131 -27 131 -27 232 -164 c 0,10,11
 239 -172 239 -172 239 -180.5 c 128,-1,12
 239 -189 239 -189 229.5 -200.5 c 128,-1,13
 220 -212 220 -212 209 -212 c 128,-1,14
 198 -212 198 -212 187 -201 c 0,15,16
 122 -135 122 -135 86 -31.5 c 128,-1,17
 50 72 50 72 50 196 c 0,18,19
 50 373 50 373 116 528 c 128,-1,20
 182 683 182 683 290 773 c 1,0,1
EndSplineSet
EndChar

StartChar: parenright
Encoding: 41 41 12
Width: 301
GlyphClass: 2
Flags: W
LayerCount: 2
Fore
SplineSet
169 379 m 0,0,1
 169 595 169 595 68 736 c 1,2,3
 61 744 61 744 61 752.5 c 128,-1,4
 61 761 61 761 70.5 772.5 c 128,-1,5
 80 784 80 784 91 784 c 128,-1,6
 102 784 102 784 113 773 c 0,7,8
 178 707 178 707 214 603.5 c 128,-1,9
 250 500 250 500 250 376 c 0,10,11
 250 199 250 199 183.5 44 c 128,-1,12
 117 -111 117 -111 10 -201 c 1,13,14
 0 -211 0 -211 -10.5 -211 c 128,-1,15
 -21 -211 -21 -211 -30.5 -203 c 128,-1,16
 -40 -195 -40 -195 -40 -187 c 128,-1,17
 -40 -179 -40 -179 -31 -170 c 0,18,19
 66 -69 66 -69 117.5 81 c 128,-1,20
 169 231 169 231 169 379 c 0,0,1
EndSplineSet
EndChar

StartChar: asterisk
Encoding: 42 42 13
Width: 373
GlyphClass: 2
Flags: W
LayerCount: 2
Fore
SplineSet
57 432 m 128,-1,1
 57 440 57 440 63 447 c 2,2,-1
 145 546 l 1,3,-1
 50 578 l 2,4,5
 38 582 38 582 38 592 c 128,-1,6
 38 602 38 602 44.5 609.5 c 128,-1,7
 51 617 51 617 57.5 617 c 128,-1,8
 64 617 64 617 67 616 c 2,9,-1
 163 584 l 1,10,-1
 174 689 l 1,11,12
 175 709 175 709 196 709 c 0,13,14
 214 709 214 709 214 689 c 1,15,-1
 203 584 l 1,16,-1
 305 616 l 2,17,18
 308 617 308 617 314 617 c 128,-1,19
 320 617 320 617 325 611.5 c 128,-1,20
 330 606 330 606 330 594 c 128,-1,21
 330 582 330 582 314 578 c 2,22,-1
 212 546 l 1,23,-1
 273 447 l 2,24,25
 277 439 277 439 277 434 c 128,-1,26
 277 429 277 429 268.5 421.5 c 128,-1,27
 260 414 260 414 252 414 c 128,-1,28
 244 414 244 414 239 423 c 2,29,-1
 177 524 l 1,30,-1
 93 423 l 1,31,32
 84 414 84 414 77 414 c 128,-1,33
 70 414 70 414 65 419 c 1,34,0
 57 424 57 424 57 432 c 128,-1,1
EndSplineSet
EndChar

StartChar: plus
Encoding: 43 43 14
Width: 560
GlyphClass: 2
Flags: W
LayerCount: 2
Fore
SplineSet
64 197 m 2,0,1
 53 197 53 197 50 204 c 128,-1,2
 47 211 47 211 47 227 c 0,3,4
 47 264 47 264 71 264 c 2,5,-1
 250 264 l 1,6,-1
 269 443 l 1,7,8
 270 463 270 463 301 463 c 2,9,-1
 308 463 l 2,10,11
 336 463 336 463 336 443 c 1,12,-1
 317 264 l 1,13,-1
 495 264 l 2,14,15
 506 264 506 264 509 257 c 128,-1,16
 512 250 512 250 512 234 c 0,17,18
 512 197 512 197 488 197 c 2,19,-1
 310 197 l 1,20,-1
 291 18 l 2,21,22
 288 -2 288 -2 259 -2 c 2,23,-1
 252 -2 l 2,24,25
 224 -2 224 -2 224 18 c 1,26,-1
 243 197 l 1,27,-1
 64 197 l 2,0,1
EndSplineSet
EndChar

StartChar: comma
Encoding: 44 44 15
Width: 198
GlyphClass: 2
Flags: W
LayerCount: 2
Fore
SplineSet
106 108 m 2,0,-1
 115 108 l 2,1,2
 152 108 152 108 152 80 c 1,3,4
 144 -1 144 -1 101.5 -58.5 c 128,-1,5
 59 -116 59 -116 30 -116 c 128,-1,6
 1 -116 1 -116 1 -102 c 0,7,8
 1 -97 1 -97 9 -84 c 0,9,10
 53 -16 53 -16 63 76 c 0,11,12
 66 108 66 108 106 108 c 2,0,-1
EndSplineSet
EndChar

StartChar: hyphen
Encoding: 45 45 16
Width: 320
GlyphClass: 2
Flags: W
LayerCount: 2
Fore
SplineSet
65 301 m 2,0,-1
 259 301 l 2,1,2
 276 301 276 301 276 274 c 0,3,4
 276 229 276 229 251 229 c 2,5,-1
 57 229 l 2,6,7
 40 229 40 229 40 256 c 0,8,9
 40 301 40 301 65 301 c 2,0,-1
EndSplineSet
EndChar

StartChar: period
Encoding: 46 46 17
Width: 198
GlyphClass: 2
Flags: W
LayerCount: 2
Fore
SplineSet
96 108 m 2,0,-1
 113 108 l 2,1,2
 151 108 151 108 151 86 c 1,3,-1
 144 20 l 2,4,5
 141 -2 141 -2 102 -2 c 2,6,-1
 85 -2 l 2,7,8
 47 -2 47 -2 47 20 c 1,9,-1
 54 86 l 2,10,11
 56 108 56 108 96 108 c 2,0,-1
EndSplineSet
EndChar

StartChar: slash
Encoding: 47 47 18
Width: 370
GlyphClass: 2
Flags: W
LayerCount: 2
Fore
SplineSet
372 702 m 2,0,-1
 396 702 l 2,1,2
 410 702 410 702 410 692 c 0,3,4
 410 688 410 688 407 682 c 2,5,-1
 11 -59 l 2,6,7
 0 -79 0 -79 -18 -79 c 2,8,-1
 -41 -79 l 2,9,10
 -55 -79 -55 -79 -55 -69 c 0,11,12
 -55 -65 -55 -65 -52 -59 c 2,13,-1
 343 682 l 1,14,15
 355 702 355 702 372 702 c 2,0,-1
EndSplineSet
EndChar

StartChar: zero
Encoding: 48 48 19
Width: 535
GlyphClass: 2
Flags: W
LayerCount: 2
Fore
SplineSet
228 -6 m 0,0,1
 143 -6 143 -6 88.5 63.5 c 128,-1,2
 34 133 34 133 34 256 c 128,-1,3
 34 379 34 379 58 466 c 128,-1,4
 82 553 82 553 122 604 c 0,5,6
 202 706 202 706 303 706 c 0,7,8
 389 706 389 706 444 635.5 c 128,-1,9
 499 565 499 565 499 427 c 0,10,11
 499 216 499 216 417 105 c 128,-1,12
 335 -6 335 -6 228 -6 c 0,0,1
236 66 m 0,13,14
 298 66 298 66 352 145 c 0,15,16
 380 185 380 185 397 257.5 c 128,-1,17
 414 330 414 330 414 431 c 128,-1,18
 414 532 414 532 380 583 c 128,-1,19
 346 634 346 634 295 634 c 0,20,21
 228 634 228 634 173.5 544 c 128,-1,22
 119 454 119 454 119 270 c 0,23,24
 119 165 119 165 152 115.5 c 128,-1,25
 185 66 185 66 236 66 c 0,13,14
EndSplineSet
EndChar

StartChar: one
Encoding: 49 49 20
Width: 535
GlyphClass: 2
Flags: W
LayerCount: 2
Fore
SplineSet
432 0 m 2,0,-1
 25 0 l 2,1,2
 8 0 8 0 8 27 c 0,3,4
 8 72 8 72 33 72 c 2,5,-1
 207 72 l 1,6,-1
 264 611 l 1,7,-1
 84 581 l 1,8,9
 68 581 68 581 68 621 c 0,10,11
 68 636 68 636 72 642 c 128,-1,12
 76 648 76 648 89 651 c 2,13,-1
 326 702 l 1,14,15
 338 702 338 702 346.5 696 c 128,-1,16
 355 690 355 690 355 681 c 2,17,-1
 291 72 l 1,18,-1
 440 72 l 2,19,20
 457 72 457 72 457 45 c 0,21,22
 457 0 457 0 432 0 c 2,0,-1
EndSplineSet
EndChar

StartChar: two
Encoding: 50 50 21
Width: 535
GlyphClass: 2
Flags: W
LayerCount: 2
Fore
SplineSet
424 72 m 2,0,1
 441 72 441 72 441 45 c 0,2,3
 441 0 441 0 416 0 c 2,4,-1
 42 0 l 2,5,6
 35 0 35 0 28.5 18.5 c 128,-1,7
 22 37 22 37 22 48 c 128,-1,8
 22 59 22 59 24 61 c 2,9,-1
 333 403 l 2,10,11
 400 477 400 477 400 543 c 0,12,13
 400 585 400 585 369.5 609.5 c 128,-1,14
 339 634 339 634 292 634 c 128,-1,15
 245 634 245 634 210.5 621 c 128,-1,16
 176 608 176 608 155.5 595.5 c 128,-1,17
 135 583 135 583 129 583 c 128,-1,18
 123 583 123 583 113 601 c 128,-1,19
 103 619 103 619 103 631 c 0,20,21
 103 661 103 661 169.5 683.5 c 128,-1,22
 236 706 236 706 291 706 c 0,23,24
 382 706 382 706 434.5 665 c 128,-1,25
 487 624 487 624 487 556 c 0,26,27
 487 503 487 503 468.5 461 c 128,-1,28
 450 419 450 419 406 370 c 2,29,-1
 136 72 l 1,30,-1
 424 72 l 2,0,1
EndSplineSet
EndChar

StartChar: three
Encoding: 51 51 22
Width: 535
GlyphClass: 2
Flags: W
LayerCount: 2
Fore
SplineSet
204 407 m 2,0,-1
 233 407 l 2,1,2
 272 407 272 407 302.5 422.5 c 128,-1,3
 333 438 333 438 348 461 c 0,4,5
 380 508 380 508 380 545.5 c 128,-1,6
 380 583 380 583 355.5 608.5 c 128,-1,7
 331 634 331 634 281 634 c 128,-1,8
 231 634 231 634 198.5 626 c 128,-1,9
 166 618 166 618 147.5 609.5 c 128,-1,10
 129 601 129 601 124 601 c 0,11,12
 116 601 116 601 106 620 c 128,-1,13
 96 639 96 639 96 652 c 0,14,15
 96 673 96 673 161.5 689.5 c 128,-1,16
 227 706 227 706 281 706 c 0,17,18
 366 706 366 706 415.5 667.5 c 128,-1,19
 465 629 465 629 465 561.5 c 128,-1,20
 465 494 465 494 432 452 c 128,-1,21
 399 410 399 410 347 391 c 1,22,-1
 346 387 l 1,23,24
 391 375 391 375 422.5 333 c 128,-1,25
 454 291 454 291 454 228.5 c 128,-1,26
 454 166 454 166 430 119 c 128,-1,27
 406 72 406 72 368 46 c 0,28,29
 292 -6 292 -6 208 -6 c 0,30,31
 138 -6 138 -6 79 12 c 0,32,33
 40 24 40 24 40 44 c 0,34,35
 40 103 40 103 55 103 c 0,36,37
 56 103 56 103 76 94 c 0,38,39
 132 66 132 66 208 66 c 0,40,41
 264 66 264 66 311 98 c 0,42,43
 336 115 336 115 351.5 148.5 c 128,-1,44
 367 182 367 182 367 234 c 0,45,46
 367 336 367 336 230 336 c 2,47,-1
 196 336 l 2,48,49
 179 336 179 336 179 363 c 0,50,51
 179 407 179 407 204 407 c 2,0,-1
EndSplineSet
EndChar

StartChar: four
Encoding: 52 52 23
Width: 535
GlyphClass: 2
Flags: W
LayerCount: 2
Fore
SplineSet
485 239 m 2,0,1
 502 239 502 239 502 212 c 0,2,3
 502 167 502 167 477 167 c 2,4,-1
 409 167 l 1,5,-1
 394 20 l 2,6,7
 391 -2 391 -2 362 -2 c 2,8,-1
 339 -2 l 2,9,10
 311 -2 311 -2 311 20 c 1,11,-1
 326 167 l 1,12,-1
 22 167 l 2,13,14
 15 167 15 167 9.5 182 c 128,-1,15
 4 197 4 197 4 211.5 c 128,-1,16
 4 226 4 226 7 229 c 2,17,-1
 384 688 l 2,18,19
 396 702 396 702 419 702 c 2,20,-1
 435 702 l 2,21,22
 463 702 463 702 463 680 c 1,23,-1
 417 239 l 1,24,-1
 485 239 l 2,0,1
105 239 m 1,25,-1
 334 239 l 1,26,-1
 367 557 l 1,27,-1
 363 559 l 1,28,-1
 105 239 l 1,25,-1
EndSplineSet
EndChar

StartChar: five
Encoding: 53 53 24
Width: 535
GlyphClass: 2
Flags: W
LayerCount: 2
Fore
SplineSet
322 109 m 128,-1,1
 374 152 374 152 374 232 c 0,2,3
 374 290 374 290 331.5 320 c 128,-1,4
 289 350 289 350 208 350 c 2,5,-1
 123 350 l 2,6,7
 97 350 97 350 97 372 c 0,8,9
 97 373 97 373 107.5 437 c 128,-1,10
 118 501 118 501 145 670 c 0,11,12
 149 700 149 700 181 700 c 2,13,-1
 448 700 l 2,14,15
 465 700 465 700 465 673 c 0,16,17
 465 628 465 628 440 628 c 2,18,-1
 222 628 l 1,19,-1
 187 422 l 1,20,-1
 239 422 l 2,21,22
 323 422 323 422 386 384 c 0,23,24
 420 364 420 364 440 327.5 c 128,-1,25
 460 291 460 291 460 231 c 128,-1,26
 460 171 460 171 435.5 120 c 128,-1,27
 411 69 411 69 370 43 c 0,28,29
 293 -6 293 -6 196 -6 c 0,30,31
 131 -6 131 -6 78 12 c 0,32,33
 42 24 42 24 42 44 c 0,34,35
 42 103 42 103 57 103 c 0,36,37
 58 103 58 103 77 94 c 0,38,39
 132 66 132 66 201 66 c 128,-1,0
 270 66 270 66 322 109 c 128,-1,1
EndSplineSet
EndChar

StartChar: six
Encoding: 54 54 25
Width: 535
GlyphClass: 2
Flags: W
LayerCount: 2
Fore
SplineSet
84.5 47.5 m 128,-1,1
 37 100 37 100 37 194 c 128,-1,2
 37 288 37 288 69.5 372.5 c 128,-1,3
 102 457 102 457 149.5 514.5 c 128,-1,4
 197 572 197 572 250.5 616 c 128,-1,5
 304 660 304 660 347 681 c 128,-1,6
 390 702 390 702 413 702 c 0,7,8
 426 702 426 702 433 684.5 c 128,-1,9
 440 667 440 667 440 654.5 c 128,-1,10
 440 642 440 642 431 638 c 0,11,12
 229 558 229 558 156 372 c 1,13,14
 216 405 216 405 292.5 405 c 128,-1,15
 369 405 369 405 417 357 c 128,-1,16
 465 309 465 309 465 229 c 0,17,18
 465 125 465 125 395.5 60 c 128,-1,19
 326 -5 326 -5 229 -5 c 128,-1,0
 132 -5 132 -5 84.5 47.5 c 128,-1,1
121 202 m 0,20,21
 121 67 121 67 239 67 c 0,22,23
 290 67 290 67 335 106.5 c 128,-1,24
 380 146 380 146 380 211.5 c 128,-1,25
 380 277 380 277 346.5 305 c 128,-1,26
 313 333 313 333 255 333 c 128,-1,27
 197 333 197 333 133 299 c 1,28,29
 121 241 121 241 121 202 c 0,20,21
EndSplineSet
EndChar

StartChar: seven
Encoding: 55 55 26
Width: 535
GlyphClass: 2
Flags: W
LayerCount: 2
Fore
SplineSet
111 700 m 2,0,-1
 506 700 l 2,1,2
 511 700 511 700 516 685 c 128,-1,3
 521 670 521 670 521 658 c 128,-1,4
 521 646 521 646 518 638 c 1,5,-1
 156 14 l 2,6,7
 146 -2 146 -2 115 -2 c 2,8,-1
 103 -2 l 2,9,10
 62 -2 62 -2 62 13 c 0,11,12
 62 19 62 19 67 28 c 2,13,-1
 419 628 l 1,14,-1
 103 628 l 2,15,16
 86 628 86 628 86 655 c 0,17,18
 86 700 86 700 111 700 c 2,0,-1
EndSplineSet
EndChar

StartChar: eight
Encoding: 56 56 27
Width: 535
GlyphClass: 2
Flags: W
LayerCount: 2
Fore
SplineSet
87 39 m 128,-1,1
 33 84 33 84 33 164 c 128,-1,2
 33 244 33 244 66.5 299.5 c 128,-1,3
 100 355 100 355 165 380 c 1,4,5
 97 424 97 424 97 513.5 c 128,-1,6
 97 603 97 603 157.5 654.5 c 128,-1,7
 218 706 218 706 300.5 706 c 128,-1,8
 383 706 383 706 432 666.5 c 128,-1,9
 481 627 481 627 481 555 c 0,10,11
 481 431 481 431 367 381 c 1,12,13
 416 358 416 358 442.5 325 c 128,-1,14
 469 292 469 292 469 231 c 0,15,16
 469 115 469 115 399.5 54.5 c 128,-1,17
 330 -6 330 -6 235.5 -6 c 128,-1,0
 141 -6 141 -6 87 39 c 128,-1,1
397 547 m 0,18,19
 397 591 397 591 369.5 612.5 c 128,-1,20
 342 634 342 634 294.5 634 c 128,-1,21
 247 634 247 634 214 604.5 c 128,-1,22
 181 575 181 575 181 517 c 0,23,24
 181 468 181 468 216 444 c 1,25,26
 243 427 243 427 297 408 c 1,27,28
 397 464 397 464 397 547 c 0,18,19
120 181 m 0,29,30
 120 126 120 126 153 96 c 128,-1,31
 186 66 186 66 241 66 c 128,-1,32
 296 66 296 66 339.5 106 c 128,-1,33
 383 146 383 146 383 219 c 0,34,35
 383 276 383 276 332 306 c 0,36,37
 304 322 304 322 271.5 334 c 128,-1,38
 239 346 239 346 229 350 c 1,39,40
 120 290 120 290 120 181 c 0,29,30
EndSplineSet
EndChar

StartChar: nine
Encoding: 57 57 28
Width: 535
GlyphClass: 2
Flags: W
LayerCount: 2
Fore
SplineSet
449.5 653.5 m 128,-1,1
 497 601 497 601 497 507 c 128,-1,2
 497 413 497 413 464.5 328.5 c 128,-1,3
 432 244 432 244 384.5 186.5 c 128,-1,4
 337 129 337 129 283.5 85 c 128,-1,5
 230 41 230 41 187 20 c 128,-1,6
 144 -1 144 -1 121 -1 c 0,7,8
 108 -1 108 -1 101 16.5 c 128,-1,9
 94 34 94 34 94 46.5 c 128,-1,10
 94 59 94 59 103 63 c 0,11,12
 305 143 305 143 378 329 c 1,13,14
 318 296 318 296 241.5 296 c 128,-1,15
 165 296 165 296 117 344 c 128,-1,16
 69 392 69 392 69 472 c 0,17,18
 69 576 69 576 138.5 641 c 128,-1,19
 208 706 208 706 305 706 c 128,-1,0
 402 706 402 706 449.5 653.5 c 128,-1,1
413 499 m 0,20,21
 413 634 413 634 295 634 c 0,22,23
 244 634 244 634 199 594.5 c 128,-1,24
 154 555 154 555 154 489.5 c 128,-1,25
 154 424 154 424 187.5 396 c 128,-1,26
 221 368 221 368 279 368 c 128,-1,27
 337 368 337 368 401 402 c 1,28,29
 413 460 413 460 413 499 c 0,20,21
EndSplineSet
EndChar

StartChar: colon
Encoding: 58 58 29
Width: 198
GlyphClass: 2
Flags: W
LayerCount: 2
Fore
SplineSet
118 525 m 2,0,-1
 135 525 l 2,1,2
 173 525 173 525 173 503 c 1,3,-1
 166 437 l 2,4,5
 163 415 163 415 124 415 c 2,6,-1
 107 415 l 2,7,8
 69 415 69 415 69 437 c 1,9,-1
 76 503 l 2,10,11
 78 525 78 525 118 525 c 2,0,-1
74 108 m 2,12,-1
 91 108 l 2,13,14
 129 108 129 108 129 86 c 1,15,-1
 122 20 l 2,16,17
 119 -2 119 -2 80 -2 c 2,18,-1
 63 -2 l 2,19,20
 25 -2 25 -2 25 20 c 1,21,-1
 32 86 l 2,22,23
 34 108 34 108 74 108 c 2,12,-1
EndSplineSet
EndChar

StartChar: semicolon
Encoding: 59 59 30
Width: 198
GlyphClass: 2
Flags: W
LayerCount: 2
Fore
SplineSet
124 525 m 2,0,-1
 141 525 l 2,1,2
 179 525 179 525 179 503 c 1,3,-1
 172 437 l 2,4,5
 169 415 169 415 130 415 c 2,6,-1
 113 415 l 2,7,8
 75 415 75 415 75 437 c 1,9,-1
 82 503 l 2,10,11
 84 525 84 525 124 525 c 2,0,-1
89 108 m 2,12,-1
 98 108 l 2,13,14
 135 108 135 108 135 80 c 1,15,16
 127 -1 127 -1 84.5 -58.5 c 128,-1,17
 42 -116 42 -116 13 -116 c 128,-1,18
 -16 -116 -16 -116 -16 -102 c 0,19,20
 -16 -97 -16 -97 -8 -84 c 0,21,22
 36 -16 36 -16 46 76 c 0,23,24
 49 108 49 108 89 108 c 2,12,-1
EndSplineSet
EndChar

StartChar: less
Encoding: 60 60 31
Width: 560
GlyphClass: 2
Flags: W
LayerCount: 2
Fore
SplineSet
40 215 m 0,0,1
 40 258 40 258 70 271 c 2,2,-1
 499 445 l 2,3,4
 508 448 508 448 515 448 c 0,5,6
 533 448 533 448 533 422 c 0,7,8
 533 383 533 383 504 373 c 1,9,-1
 133 228 l 1,10,-1
 473 82 l 2,11,12
 493 73 493 73 493 47 c 0,13,14
 493 7 493 7 468 7 c 0,15,16
 460 7 460 7 454 10 c 2,17,-1
 61 184 l 2,18,19
 40 194 40 194 40 215 c 0,0,1
EndSplineSet
EndChar

StartChar: equal
Encoding: 61 61 32
Width: 560
GlyphClass: 2
Flags: W
LayerCount: 2
Fore
SplineSet
79 338 m 2,0,-1
 507 338 l 2,1,2
 524 338 524 338 524 314 c 0,3,4
 524 271 524 271 499 271 c 2,5,-1
 71 271 l 2,6,7
 54 271 54 271 54 304.5 c 128,-1,8
 54 338 54 338 79 338 c 2,0,-1
62 175 m 2,9,-1
 490 175 l 2,10,11
 507 175 507 175 507 151 c 0,12,13
 507 108 507 108 482 108 c 2,14,-1
 54 108 l 2,15,16
 37 108 37 108 37 141.5 c 128,-1,17
 37 175 37 175 62 175 c 2,9,-1
EndSplineSet
EndChar

StartChar: greater
Encoding: 62 62 33
Width: 560
GlyphClass: 2
Flags: W
LayerCount: 2
Fore
SplineSet
518 239 m 0,0,1
 518 196 518 196 488 183 c 2,2,-1
 59 9 l 2,3,4
 50 6 50 6 43 6 c 0,5,6
 25 6 25 6 25 32 c 0,7,8
 25 71 25 71 54 81 c 1,9,-1
 425 226 l 1,10,-1
 85 372 l 2,11,12
 65 381 65 381 65 407 c 0,13,14
 65 447 65 447 90 447 c 0,15,16
 98 447 98 447 104 444 c 2,17,-1
 497 270 l 2,18,19
 518 260 518 260 518 239 c 0,0,1
EndSplineSet
EndChar

StartChar: question
Encoding: 63 63 34
Width: 445
GlyphClass: 2
Flags: W
LayerCount: 2
Fore
SplineSet
233 632 m 0,0,1
 195 632 195 632 150.5 615 c 128,-1,2
 106 598 106 598 105 598 c 0,3,4
 98 598 98 598 88.5 616.5 c 128,-1,5
 79 635 79 635 79 647 c 0,6,7
 79 672 79 672 137 689 c 128,-1,8
 195 706 195 706 257 706 c 0,9,10
 346 706 346 706 395.5 663.5 c 128,-1,11
 445 621 445 621 445 556 c 0,12,13
 445 480 445 480 372 408 c 1,14,15
 340 378 340 378 308 350 c 0,16,17
 227 281 227 281 213 222 c 0,18,19
 208 202 208 202 178 202 c 2,20,-1
 163 202 l 2,21,22
 135 202 135 202 135 223 c 0,23,24
 135 255 135 255 163.5 299 c 128,-1,25
 192 343 192 343 235.5 382 c 128,-1,26
 279 421 279 421 297.5 439.5 c 128,-1,27
 316 458 316 458 332.5 486.5 c 128,-1,28
 349 515 349 515 349 543 c 0,29,30
 349 632 349 632 233 632 c 0,0,1
153 108 m 2,31,-1
 170 108 l 2,32,33
 208 108 208 108 208 86 c 1,34,-1
 201 20 l 2,35,36
 198 -2 198 -2 158 -2 c 2,37,-1
 141 -2 l 2,38,39
 104 -2 104 -2 104 20 c 1,40,-1
 111 86 l 2,41,42
 113 108 113 108 153 108 c 2,31,-1
EndSplineSet
EndChar

StartChar: at
Encoding: 64 64 35
Width: 974
GlyphClass: 2
Flags: W
LayerCount: 2
Fore
SplineSet
410 -82 m 0,0,1
 482 -82 482 -82 540 -58 c 0,2,3
 560 -49 560 -49 564 -49 c 0,4,5
 571 -49 571 -49 564 -78 c 0,6,7
 558 -101 558 -101 512 -113.5 c 128,-1,8
 466 -126 466 -126 410 -126 c 0,9,10
 265 -126 265 -126 174.5 -25.5 c 128,-1,11
 84 75 84 75 84 237 c 0,12,13
 84 434 84 434 214 569.5 c 128,-1,14
 344 705 344 705 534 705 c 0,15,16
 685 705 685 705 776 616 c 128,-1,17
 867 527 867 527 867 384.5 c 128,-1,18
 867 242 867 242 808 148 c 128,-1,19
 749 54 749 54 657 54 c 0,20,21
 612 54 612 54 586 78 c 128,-1,22
 560 102 560 102 558 137 c 1,23,-1
 558 144 l 1,24,25
 509 54 509 54 423 54 c 0,26,27
 375 54 375 54 330 90 c 0,28,29
 306 108 306 108 292 146 c 128,-1,30
 278 184 278 184 278 236 c 0,31,32
 278 355 278 355 336 430 c 128,-1,33
 394 505 394 505 489 505 c 0,34,35
 553 505 553 505 600 458 c 1,36,37
 609 486 609 486 614 493 c 0,38,39
 620 502 620 502 635 502 c 2,40,-1
 641 502 l 2,41,42
 663 502 663 502 663 481 c 1,43,44
 630 173 630 173 630 149 c 0,45,46
 630 107 630 107 670 107 c 0,47,48
 726 107 726 107 769.5 189.5 c 128,-1,49
 813 272 813 272 813 380 c 0,50,51
 813 507 813 507 736 584 c 128,-1,52
 659 661 659 661 534 661 c 0,53,54
 367 661 367 661 252.5 538 c 128,-1,55
 138 415 138 415 138 237 c 0,56,57
 138 95 138 95 213 6.5 c 128,-1,58
 288 -82 288 -82 410 -82 c 0,0,1
439 115 m 0,59,60
 473 115 473 115 508 148 c 128,-1,61
 543 181 543 181 568 256 c 1,62,63
 581 390 581 390 587 409 c 1,64,65
 546 443 546 443 495 443 c 0,66,67
 351 443 351 443 351 241 c 0,68,69
 351 115 351 115 439 115 c 0,59,60
EndSplineSet
EndChar

StartChar: A
Encoding: 65 65 36
Width: 613
GlyphClass: 2
Flags: W
LayerCount: 2
Fore
SplineSet
23 -2 m 2,0,-1
 18 -2 l 2,1,2
 -23 -2 -23 -2 -23 14 c 0,3,4
 -23 19 -23 19 -18 29 c 2,5,-1
 287 686 l 2,6,7
 294 702 294 702 328 702 c 2,8,-1
 357 702 l 2,9,10
 392 702 392 702 396 686 c 2,11,-1
 564 28 l 2,12,13
 565 24 565 24 565 18 c 0,14,15
 565 -2 565 -2 521 -2 c 2,16,-1
 513 -2 l 2,17,18
 478 -2 478 -2 474 14 c 2,19,-1
 432 178 l 1,20,-1
 138 178 l 1,21,-1
 64 14 l 2,22,23
 57 -2 57 -2 23 -2 c 2,0,-1
174 254 m 1,24,-1
 413 254 l 1,25,-1
 340 552 l 1,26,-1
 333 610 l 1,27,-1
 311 552 l 1,28,-1
 174 254 l 1,24,-1
EndSplineSet
EndChar

StartChar: B
Encoding: 66 66 37
Width: 593
GlyphClass: 2
Flags: W
LayerCount: 2
Fore
SplineSet
255 0 m 2,0,-1
 78 0 l 2,1,2
 51 0 51 0 51 24 c 0,3,4
 51 28 51 28 118 670 c 0,5,6
 121 700 121 700 151 700 c 2,7,-1
 335 700 l 2,8,9
 437 700 437 700 491 658 c 128,-1,10
 545 616 545 616 545 544 c 0,11,12
 545 488 545 488 505.5 436.5 c 128,-1,13
 466 385 466 385 415 371 c 1,14,-1
 414 367 l 1,15,16
 428 364 428 364 454 350.5 c 128,-1,17
 480 337 480 337 497 322 c 128,-1,18
 514 307 514 307 527.5 279.5 c 128,-1,19
 541 252 541 252 541 219 c 0,20,21
 541 109 541 109 464 54.5 c 128,-1,22
 387 0 387 0 255 0 c 2,0,-1
299 398 m 2,23,24
 365 398 365 398 409 437 c 128,-1,25
 453 476 453 476 453 532 c 0,26,27
 453 624 453 624 318 624 c 2,28,-1
 201 624 l 1,29,-1
 178 398 l 1,30,-1
 299 398 l 2,23,24
295 76 m 2,31,32
 365 76 365 76 407.5 115 c 128,-1,33
 450 154 450 154 450 220 c 0,34,35
 450 269 450 269 412.5 295.5 c 128,-1,36
 375 322 375 322 304 322 c 2,37,-1
 170 322 l 1,38,-1
 144 76 l 1,39,-1
 295 76 l 2,31,32
EndSplineSet
EndChar

StartChar: C
Encoding: 67 67 38
Width: 619
GlyphClass: 2
Flags: W
LayerCount: 2
Fore
SplineSet
392 630 m 0,0,1
 299 630 299 630 238.5 583.5 c 128,-1,2
 178 537 178 537 153 462.5 c 128,-1,3
 128 388 128 388 128 281.5 c 128,-1,4
 128 175 128 175 178.5 122.5 c 128,-1,5
 229 70 229 70 334 70 c 0,6,7
 382 70 382 70 426 82 c 128,-1,8
 470 94 470 94 494 106 c 128,-1,9
 518 118 518 118 519 118 c 0,10,11
 526 118 526 118 526 101 c 128,-1,12
 526 84 526 84 519 52 c 0,13,14
 513 25 513 25 453.5 9.5 c 128,-1,15
 394 -6 394 -6 326 -6 c 0,16,17
 179 -6 179 -6 108.5 62.5 c 128,-1,18
 38 131 38 131 38 274 c 0,19,20
 38 456 38 456 116 574 c 0,21,22
 157 636 157 636 231 671 c 128,-1,23
 305 706 305 706 391 706 c 128,-1,24
 477 706 477 706 533.5 686 c 128,-1,25
 590 666 590 666 590 645 c 0,26,27
 590 633 590 633 574.5 609.5 c 128,-1,28
 559 586 559 586 550 586 c 0,29,30
 548 586 548 586 528 597 c 128,-1,31
 508 608 508 608 471 619 c 128,-1,32
 434 630 434 630 392 630 c 0,0,1
EndSplineSet
EndChar

StartChar: D
Encoding: 68 68 39
Width: 695
GlyphClass: 2
Flags: W
LayerCount: 2
Fore
SplineSet
150 700 m 2,0,-1
 365 700 l 2,1,2
 492 700 492 700 567.5 631.5 c 128,-1,3
 643 563 643 563 643 415 c 0,4,5
 643 303 643 303 614 220 c 128,-1,6
 585 137 585 137 534 90 c 0,7,8
 435 0 435 0 292 0 c 2,9,-1
 77 0 l 2,10,11
 50 0 50 0 50 24 c 0,12,13
 50 28 50 28 117 670 c 0,14,15
 120 700 120 700 150 700 c 2,0,-1
293 76 m 2,16,17
 402 76 402 76 477 155.5 c 128,-1,18
 552 235 552 235 552 401 c 0,19,20
 552 519 552 519 497.5 571.5 c 128,-1,21
 443 624 443 624 350 624 c 2,22,-1
 200 624 l 1,23,-1
 143 76 l 1,24,-1
 293 76 l 2,16,17
EndSplineSet
EndChar

StartChar: E
Encoding: 69 69 40
Width: 546
GlyphClass: 2
Flags: W
LayerCount: 2
Fore
SplineSet
145 700 m 2,0,-1
 498 700 l 2,1,2
 515 700 515 700 515 678 c 0,3,4
 515 624 515 624 490 624 c 2,5,-1
 195 624 l 1,6,-1
 171 396 l 1,7,-1
 435 396 l 2,8,9
 452 396 452 396 452 374 c 0,10,11
 452 320 452 320 427 320 c 2,12,-1
 163 320 l 1,13,-1
 138 76 l 1,14,-1
 434 76 l 2,15,16
 451 76 451 76 451 54 c 0,17,18
 451 0 451 0 426 0 c 2,19,-1
 72 0 l 2,20,21
 45 0 45 0 45 24 c 0,22,23
 45 28 45 28 112 670 c 0,24,25
 115 700 115 700 145 700 c 2,0,-1
EndSplineSet
EndChar

StartChar: F
Encoding: 70 70 41
Width: 503
GlyphClass: 2
Flags: W
LayerCount: 2
Fore
SplineSet
150 700 m 2,0,-1
 467 700 l 2,1,2
 484 700 484 700 484 678 c 0,3,4
 484 624 484 624 459 624 c 2,5,-1
 200 624 l 1,6,-1
 176 396 l 1,7,-1
 427 396 l 2,8,9
 444 396 444 396 444 374 c 0,10,11
 444 320 444 320 419 320 c 2,12,-1
 168 320 l 1,13,-1
 137 20 l 2,14,15
 134 -2 134 -2 95 -2 c 2,16,-1
 87 -2 l 2,17,18
 49 -2 49 -2 49 20 c 1,19,-1
 117 670 l 2,20,21
 120 700 120 700 150 700 c 2,0,-1
EndSplineSet
EndChar

StartChar: G
Encoding: 71 71 42
Width: 672
GlyphClass: 2
Flags: W
LayerCount: 2
Fore
SplineSet
376 285 m 2,0,1
 359 285 359 285 359 307 c 0,2,3
 359 361 359 361 384 361 c 2,4,-1
 560 361 l 2,5,6
 587 361 587 361 587 337 c 0,7,8
 587 333 587 333 559 66 c 0,9,10
 551 -6 551 -6 328 -6 c 0,11,12
 52 -6 52 -6 52 275 c 0,13,14
 52 491 52 491 149 598.5 c 128,-1,15
 246 706 246 706 418 706 c 0,16,17
 488 706 488 706 545 686 c 128,-1,18
 602 666 602 666 602 645 c 0,19,20
 602 633 602 633 586.5 609.5 c 128,-1,21
 571 586 571 586 562 586 c 0,22,23
 560 586 560 586 541 597 c 128,-1,24
 522 608 522 608 485.5 619 c 128,-1,25
 449 630 449 630 404 630 c 0,26,27
 275 630 275 630 209.5 540.5 c 128,-1,28
 144 451 144 451 144 288 c 0,29,30
 144 70 144 70 342 70 c 0,31,32
 422 70 422 70 472 83 c 1,33,-1
 494 285 l 1,34,-1
 376 285 l 2,0,1
EndSplineSet
EndChar

StartChar: H
Encoding: 72 72 43
Width: 733
GlyphClass: 2
Flags: W
LayerCount: 2
Fore
SplineSet
173 702 m 2,0,-1
 181 702 l 2,1,2
 219 702 219 702 219 680 c 1,3,-1
 189 397 l 1,4,-1
 551 397 l 1,5,-1
 581 680 l 2,6,7
 583 702 583 702 623 702 c 2,8,-1
 631 702 l 2,9,10
 669 702 669 702 669 680 c 1,11,-1
 600 20 l 2,12,13
 597 -2 597 -2 558 -2 c 2,14,-1
 550 -2 l 2,15,16
 512 -2 512 -2 512 20 c 1,17,-1
 543 321 l 1,18,-1
 181 321 l 1,19,-1
 150 20 l 2,20,21
 147 -2 147 -2 108 -2 c 2,22,-1
 100 -2 l 2,23,24
 62 -2 62 -2 62 20 c 1,25,-1
 131 680 l 2,26,27
 133 702 133 702 173 702 c 2,0,-1
EndSplineSet
EndChar

StartChar: I
Encoding: 73 73 44
Width: 282
GlyphClass: 2
Flags: W
LayerCount: 2
Fore
SplineSet
173 702 m 2,0,-1
 181 702 l 2,1,2
 219 702 219 702 219 680 c 1,3,-1
 150 20 l 2,4,5
 147 -2 147 -2 108 -2 c 2,6,-1
 100 -2 l 2,7,8
 62 -2 62 -2 62 20 c 1,9,-1
 131 680 l 2,10,11
 133 702 133 702 173 702 c 2,0,-1
EndSplineSet
EndChar

StartChar: J
Encoding: 74 74 45
Width: 402
GlyphClass: 2
Flags: W
LayerCount: 2
Fore
SplineSet
308 702 m 2,0,-1
 316 702 l 2,1,2
 354 702 354 702 354 680 c 1,3,-1
 304 205 l 2,4,5
 282 -6 282 -6 77 -6 c 0,6,7
 -11 -6 -11 -6 -11 26 c 0,8,9
 -11 85 -11 85 4 85 c 0,10,11
 5 85 5 85 25.5 80.5 c 128,-1,12
 46 76 46 76 70 76 c 0,13,14
 139 76 139 76 173.5 106 c 128,-1,15
 208 136 208 136 215 201 c 2,16,-1
 266 680 l 2,17,18
 268 702 268 702 308 702 c 2,0,-1
EndSplineSet
EndChar

StartChar: K
Encoding: 75 75 46
Width: 576
GlyphClass: 2
Flags: W
LayerCount: 2
Fore
SplineSet
155 702 m 2,0,-1
 163 702 l 2,1,2
 201 702 201 702 201 680 c 1,3,-1
 169 374 l 1,4,-1
 173 374 l 1,5,-1
 450 688 l 2,6,7
 463 702 463 702 505 702 c 2,8,-1
 515 702 l 2,9,10
 549 702 549 702 549 690 c 0,11,12
 549 681 549 681 537 669 c 2,13,-1
 259 360 l 1,14,-1
 520 28 l 2,15,16
 527 19 527 19 527 12 c 0,17,18
 526 -2 526 -2 482 -2 c 2,19,-1
 475 -2 l 2,20,21
 432 -2 432 -2 421 11 c 2,22,-1
 169 333 l 1,23,-1
 165 333 l 1,24,-1
 132 20 l 2,25,26
 129 -2 129 -2 90 -2 c 2,27,-1
 82 -2 l 2,28,29
 44 -2 44 -2 44 20 c 1,30,-1
 113 680 l 2,31,32
 115 702 115 702 155 702 c 2,0,-1
EndSplineSet
EndChar

StartChar: L
Encoding: 76 76 47
Width: 484
GlyphClass: 2
Flags: W
LayerCount: 2
Fore
SplineSet
426 0 m 2,0,-1
 77 0 l 2,1,2
 61 0 61 0 55.5 7 c 128,-1,3
 50 14 50 14 50 30 c 1,4,-1
 118 680 l 2,5,6
 120 702 120 702 160 702 c 2,7,-1
 168 702 l 2,8,9
 206 702 206 702 206 680 c 1,10,-1
 143 76 l 1,11,-1
 434 76 l 2,12,13
 451 76 451 76 451 54 c 0,14,15
 451 0 451 0 426 0 c 2,0,-1
EndSplineSet
EndChar

StartChar: M
Encoding: 77 77 48
Width: 843
GlyphClass: 2
Flags: W
LayerCount: 2
Fore
SplineSet
715 702 m 2,0,-1
 748 702 l 2,1,2
 786 702 786 702 786 680 c 1,3,-1
 717 20 l 2,4,5
 714 -2 714 -2 675 -2 c 2,6,-1
 668 -2 l 2,7,8
 630 -2 630 -2 630 20 c 1,9,-1
 686 558 l 1,10,-1
 449 208 l 2,11,12
 440 195 440 195 425 195 c 2,13,-1
 385 195 l 2,14,15
 371 195 371 195 365 208 c 2,16,-1
 198 564 l 1,17,-1
 141 20 l 2,18,19
 138 -2 138 -2 99 -2 c 2,20,-1
 92 -2 l 2,21,22
 54 -2 54 -2 54 20 c 1,23,-1
 123 680 l 2,24,25
 125 702 125 702 165 702 c 2,26,-1
 201 702 l 2,27,28
 234 702 234 702 242 684 c 2,29,-1
 396 356 l 1,30,-1
 416 293 l 1,31,-1
 448 350 l 1,32,-1
 672 684 l 2,33,34
 683 702 683 702 715 702 c 2,0,-1
EndSplineSet
EndChar

StartChar: N
Encoding: 78 78 49
Width: 719
GlyphClass: 2
Flags: W
LayerCount: 2
Fore
SplineSet
163 702 m 2,0,-1
 184 702 l 2,1,2
 213 702 213 702 224 683 c 2,3,-1
 499 201 l 1,4,-1
 523 145 l 1,5,-1
 579 680 l 2,6,7
 581 702 581 702 621 702 c 2,8,-1
 628 702 l 2,9,10
 666 702 666 702 666 680 c 1,11,-1
 597 20 l 2,12,13
 594 -2 594 -2 555 -2 c 2,14,-1
 535 -2 l 2,15,16
 509 -2 509 -2 501 12 c 2,17,-1
 217 510 l 1,18,-1
 196 561 l 1,19,-1
 139 20 l 2,20,21
 136 -2 136 -2 97 -2 c 2,22,-1
 90 -2 l 2,23,24
 52 -2 52 -2 52 20 c 1,25,-1
 121 680 l 2,26,27
 123 702 123 702 163 702 c 2,0,-1
EndSplineSet
EndChar

StartChar: O
Encoding: 79 79 50
Width: 731
GlyphClass: 2
Flags: W
LayerCount: 2
Fore
SplineSet
100 522 m 1,0,1
 126 577 126 577 165 617.5 c 128,-1,2
 204 658 204 658 265 682 c 128,-1,3
 326 706 326 706 402 706 c 0,4,5
 537 706 537 706 607.5 633.5 c 128,-1,6
 678 561 678 561 678 420 c 0,7,8
 678 215 678 215 584 104.5 c 128,-1,9
 490 -6 490 -6 327 -6 c 0,10,11
 193 -6 193 -6 123 67 c 128,-1,12
 53 140 53 140 53 279 c 128,-1,13
 53 418 53 418 100 522 c 1,0,1
335 70 m 0,14,15
 450 70 450 70 518 158.5 c 128,-1,16
 586 247 586 247 586 410 c 0,17,18
 586 519 586 519 537 574.5 c 128,-1,19
 488 630 488 630 394 630 c 0,20,21
 278 630 278 630 211 543 c 128,-1,22
 144 456 144 456 144 291 c 0,23,24
 144 182 144 182 192.5 126 c 128,-1,25
 241 70 241 70 335 70 c 0,14,15
EndSplineSet
EndChar

StartChar: P
Encoding: 80 80 51
Width: 570
GlyphClass: 2
Flags: W
LayerCount: 2
Fore
SplineSet
151 700 m 2,0,-1
 354 700 l 2,1,2
 427 700 427 700 486 670 c 0,3,4
 519 654 519 654 539 619 c 128,-1,5
 559 584 559 584 559 529 c 128,-1,6
 559 474 559 474 539 428.5 c 128,-1,7
 519 383 519 383 491 359 c 128,-1,8
 463 335 463 335 428 320 c 1,9,10
 372 298 372 298 322 298 c 2,11,-1
 167 298 l 1,12,-1
 138 20 l 2,13,14
 135 -2 135 -2 96 -2 c 2,15,-1
 88 -2 l 2,16,17
 50 -2 50 -2 50 20 c 1,18,-1
 118 670 l 2,19,20
 121 700 121 700 151 700 c 2,0,-1
331 374 m 2,21,22
 371 374 371 374 414 400 c 0,23,24
 437 415 437 415 452 446.5 c 128,-1,25
 467 478 467 478 467 528 c 128,-1,26
 467 578 467 578 430.5 601 c 128,-1,27
 394 624 394 624 343 624 c 2,28,-1
 201 624 l 1,29,-1
 175 374 l 1,30,-1
 331 374 l 2,21,22
EndSplineSet
EndChar

StartChar: Q
Encoding: 81 81 52
Width: 731
GlyphClass: 2
Flags: W
LayerCount: 2
Fore
SplineSet
217 6 m 0,0,1
 60 67 60 67 60 275.5 c 128,-1,2
 60 484 60 484 153.5 595 c 128,-1,3
 247 706 247 706 410 706 c 0,4,5
 545 706 545 706 615 632.5 c 128,-1,6
 685 559 685 559 685 417 c 0,7,8
 685 248 685 248 620.5 141 c 128,-1,9
 556 34 556 34 444 5 c 1,10,-1
 444 1 l 1,11,-1
 638 -62 l 1,12,13
 650 -67 650 -67 650 -82 c 0,14,15
 650 -157 650 -157 629 -157 c 0,16,17
 614 -157 614 -157 418 -76.5 c 128,-1,18
 222 4 222 4 217 6 c 0,0,1
343 67 m 0,19,20
 457 67 457 67 525 155.5 c 128,-1,21
 593 244 593 244 593 404 c 0,22,23
 593 514 593 514 544 572 c 128,-1,24
 495 630 495 630 402 630 c 0,25,26
 289 630 289 630 220.5 540.5 c 128,-1,27
 152 451 152 451 152 290 c 0,28,29
 152 182 152 182 201.5 124.5 c 128,-1,30
 251 67 251 67 343 67 c 0,19,20
EndSplineSet
EndChar

StartChar: R
Encoding: 82 82 53
Width: 610
GlyphClass: 2
Flags: W
LayerCount: 2
Fore
SplineSet
151 700 m 2,0,-1
 319 700 l 2,1,2
 430 700 430 700 486.5 663.5 c 128,-1,3
 543 627 543 627 543 551.5 c 128,-1,4
 543 476 543 476 507 427 c 128,-1,5
 471 378 471 378 409 354 c 1,6,-1
 409 350 l 1,7,8
 435 340 435 340 451.5 310.5 c 128,-1,9
 468 281 468 281 485 225 c 2,10,-1
 543 28 l 2,11,12
 545 20 545 20 545 17 c 0,13,14
 545 -2 545 -2 501 -2 c 2,15,-1
 491 -2 l 2,16,17
 456 -2 456 -2 452 14 c 2,18,-1
 397 210 l 2,19,20
 381 267 381 267 350 287.5 c 128,-1,21
 319 308 319 308 258 308 c 2,22,-1
 168 308 l 1,23,-1
 138 20 l 2,24,25
 135 -2 135 -2 96 -2 c 2,26,-1
 88 -2 l 2,27,28
 50 -2 50 -2 50 20 c 1,29,-1
 118 670 l 2,30,31
 121 700 121 700 151 700 c 2,0,-1
308 384 m 2,32,33
 367 384 367 384 408.5 426.5 c 128,-1,34
 450 469 450 469 450 522 c 0,35,36
 450 624 450 624 326 624 c 2,37,-1
 201 624 l 1,38,-1
 176 384 l 1,39,-1
 308 384 l 2,32,33
EndSplineSet
EndChar

StartChar: S
Encoding: 83 83 54
Width: 500
GlyphClass: 2
Flags: W
LayerCount: 2
Fore
SplineSet
198 598.5 m 128,-1,1
 157 567 157 567 157 508 c 0,2,3
 157 478 157 478 178.5 456.5 c 128,-1,4
 200 435 200 435 233 423 c 128,-1,5
 266 411 266 411 303.5 394 c 128,-1,6
 341 377 341 377 374 358.5 c 128,-1,7
 407 340 407 340 428.5 303.5 c 128,-1,8
 450 267 450 267 450 218 c 0,9,10
 450 115 450 115 382.5 54.5 c 128,-1,11
 315 -6 315 -6 206 -6 c 0,12,13
 154 -6 154 -6 95 9.5 c 128,-1,14
 36 25 36 25 36 56 c 0,15,16
 36 121 36 121 52 121 c 0,17,18
 54 121 54 121 74 108.5 c 128,-1,19
 94 96 94 96 131.5 83 c 128,-1,20
 169 70 169 70 222 70 c 128,-1,21
 275 70 275 70 317 107.5 c 128,-1,22
 359 145 359 145 359 204 c 0,23,24
 359 245 359 245 329 272 c 128,-1,25
 299 299 299 299 256 315.5 c 128,-1,26
 213 332 213 332 170 350.5 c 128,-1,27
 127 369 127 369 97 406 c 128,-1,28
 67 443 67 443 67 498 c 0,29,30
 67 591 67 591 134 648.5 c 128,-1,31
 201 706 201 706 309 706 c 0,32,33
 358 706 358 706 411 688.5 c 128,-1,34
 464 671 464 671 464 646 c 0,35,36
 464 636 464 636 448.5 614 c 128,-1,37
 433 592 433 592 426 592 c 0,38,39
 422 592 422 592 406 602 c 0,40,41
 358 630 358 630 298.5 630 c 128,-1,0
 239 630 239 630 198 598.5 c 128,-1,1
EndSplineSet
EndChar

StartChar: T
Encoding: 84 84 55
Width: 549
GlyphClass: 2
Flags: W
LayerCount: 2
Fore
SplineSet
65 624 m 2,0,1
 48 624 48 624 48 646 c 0,2,3
 48 700 48 700 73 700 c 2,4,-1
 545 700 l 2,5,6
 562 700 562 700 562 678 c 0,7,8
 562 624 562 624 537 624 c 2,9,-1
 347 624 l 1,10,-1
 284 20 l 2,11,12
 281 -2 281 -2 242 -2 c 2,13,-1
 234 -2 l 2,14,15
 196 -2 196 -2 196 20 c 1,16,-1
 259 624 l 1,17,-1
 65 624 l 2,0,1
EndSplineSet
EndChar

StartChar: U
Encoding: 85 85 56
Width: 712
GlyphClass: 2
Flags: W
LayerCount: 2
Fore
SplineSet
157 702 m 2,0,-1
 165 702 l 2,1,2
 202 702 202 702 202 680 c 1,3,4
 153 216 153 216 153 206 c 0,5,6
 153 144 153 144 197 107 c 128,-1,7
 241 70 241 70 322 70 c 128,-1,8
 403 70 403 70 460 112.5 c 128,-1,9
 517 155 517 155 524 221 c 2,10,-1
 572 680 l 2,11,12
 574 702 574 702 615 702 c 2,13,-1
 623 702 l 2,14,15
 660 702 660 702 660 680 c 1,16,-1
 612 224 l 2,17,18
 601 115 601 115 523.5 54.5 c 128,-1,19
 446 -6 446 -6 319.5 -6 c 128,-1,20
 193 -6 193 -6 128.5 46 c 128,-1,21
 64 98 64 98 64 193 c 0,22,23
 64 203 64 203 114 680 c 0,24,25
 116 702 116 702 157 702 c 2,0,-1
EndSplineSet
EndChar

StartChar: V
Encoding: 86 86 57
Width: 617
GlyphClass: 2
Flags: W
LayerCount: 2
Fore
SplineSet
583 702 m 2,0,-1
 589 702 l 2,1,2
 631 702 631 702 631 686 c 0,3,4
 631 681 631 681 626 671 c 2,5,-1
 328 14 l 2,6,7
 321 -2 321 -2 287 -2 c 2,8,-1
 256 -2 l 2,9,10
 221 -2 221 -2 217 14 c 0,11,12
 55 679 55 679 55 681 c 0,13,14
 55 702 55 702 100 702 c 2,15,-1
 109 702 l 2,16,17
 144 702 144 702 148 686 c 2,18,-1
 277 152 l 1,19,-1
 282 100 l 1,20,-1
 301 153 l 1,21,-1
 542 686 l 2,22,23
 549 702 549 702 583 702 c 2,0,-1
EndSplineSet
EndChar

StartChar: W
Encoding: 87 87 58
Width: 882
GlyphClass: 2
Flags: W
LayerCount: 2
Fore
SplineSet
614 -2 m 2,0,-1
 573 -2 l 2,1,2
 537 -2 537 -2 534 14 c 2,3,-1
 468 421 l 1,4,-1
 461 551 l 1,5,-1
 426 421 l 1,6,-1
 275 14 l 2,7,8
 268 -2 268 -2 234 -2 c 2,9,-1
 193 -2 l 2,10,11
 157 -2 157 -2 154 14 c 2,12,-1
 49 682 l 1,13,14
 49 702 49 702 94 702 c 2,15,-1
 103 702 l 2,16,17
 139 702 139 702 142 686 c 2,18,-1
 218 194 l 2,19,20
 226 140 226 140 226 101 c 1,21,-1
 433 685 l 2,22,23
 438 702 438 702 473 702 c 2,24,-1
 489 702 l 2,25,26
 524 702 524 702 527 685 c 2,27,-1
 599 193 l 1,28,-1
 606 101 l 1,29,-1
 813 686 l 2,30,31
 818 702 818 702 854 702 c 2,32,-1
 860 702 l 2,33,34
 902 702 902 702 902 686 c 0,35,36
 902 682 902 682 655 14 c 0,37,38
 650 -2 650 -2 614 -2 c 2,0,-1
EndSplineSet
EndChar

StartChar: X
Encoding: 88 88 59
Width: 611
GlyphClass: 2
Flags: W
LayerCount: 2
Fore
SplineSet
35 -2 m 2,0,-1
 27 -2 l 2,1,2
 -17 -2 -17 -2 -17 14 c 0,3,4
 -17 21 -17 21 -7 33 c 2,5,-1
 251 365 l 1,6,-1
 83 667 l 2,7,8
 77 676 77 676 77 683 c 0,9,10
 77 702 77 702 124 702 c 2,11,-1
 138 702 l 2,12,13
 171 702 171 702 180 687 c 2,14,-1
 315 446 l 1,15,-1
 505 688 l 2,16,17
 515 702 515 702 549 702 c 2,18,-1
 555 702 l 2,19,20
 600 702 600 702 600 686 c 0,21,22
 600 681 600 681 590 667 c 2,23,-1
 359 370 l 1,24,-1
 548 33 l 2,25,26
 554 21 554 21 554 17 c 0,27,28
 554 -2 554 -2 507 -2 c 2,29,-1
 491 -2 l 2,30,31
 458 -2 458 -2 449 13 c 2,32,-1
 294 288 l 1,33,-1
 79 12 l 2,34,35
 69 -2 69 -2 35 -2 c 2,0,-1
EndSplineSet
EndChar

StartChar: Y
Encoding: 89 89 60
Width: 559
GlyphClass: 2
Flags: W
LayerCount: 2
Fore
SplineSet
246 -2 m 2,0,-1
 238 -2 l 2,1,2
 200 -2 200 -2 200 20 c 1,3,-1
 235 359 l 1,4,-1
 59 667 l 2,5,6
 53 676 53 676 53 683 c 0,7,8
 53 702 53 702 100 702 c 2,9,-1
 111 702 l 2,10,11
 144 702 144 702 153 687 c 2,12,-1
 291 441 l 1,13,-1
 485 688 l 2,14,15
 495 702 495 702 535.5 702 c 128,-1,16
 576 702 576 702 576 686 c 0,17,18
 576 681 576 681 566 667 c 2,19,-1
 323 356 l 1,20,-1
 288 20 l 2,21,22
 285 -2 285 -2 246 -2 c 2,0,-1
EndSplineSet
EndChar

StartChar: Z
Encoding: 90 90 61
Width: 616
GlyphClass: 2
Flags: W
LayerCount: 2
Fore
SplineSet
513 0 m 2,0,-1
 25 0 l 2,1,2
 18 0 18 0 12 16.5 c 128,-1,3
 6 33 6 33 6 46.5 c 128,-1,4
 6 60 6 60 11 65 c 2,5,-1
 479 624 l 1,6,-1
 118 624 l 2,7,8
 101 624 101 624 101 646 c 0,9,10
 101 700 101 700 126 700 c 2,11,-1
 585 700 l 2,12,13
 590 700 590 700 596 683.5 c 128,-1,14
 602 667 602 667 602 653.5 c 128,-1,15
 602 640 602 640 597 635 c 2,16,-1
 129 76 l 1,17,-1
 521 76 l 2,18,19
 538 76 538 76 538 54 c 0,20,21
 538 0 538 0 513 0 c 2,0,-1
EndSplineSet
EndChar

StartChar: bracketleft
Encoding: 91 91 62
Width: 291
GlyphClass: 2
Flags: W
LayerCount: 2
Fore
SplineSet
282 706 m 2,0,-1
 204 706 l 1,1,-1
 122 -76 l 1,2,-1
 199 -76 l 2,3,4
 217 -76 217 -76 217 -96 c 0,5,6
 217 -138 217 -138 193 -138 c 2,7,-1
 72 -138 l 2,8,9
 56 -138 56 -138 50.5 -131 c 128,-1,10
 45 -124 45 -124 45 -108 c 1,11,-1
 134 738 l 2,12,13
 137 768 137 768 167 768 c 2,14,-1
 288 768 l 2,15,16
 306 768 306 768 306 748 c 0,17,18
 306 706 306 706 282 706 c 2,0,-1
EndSplineSet
EndChar

StartChar: backslash
Encoding: 92 92 63
Width: 361
GlyphClass: 2
Flags: W
LayerCount: 2
Fore
SplineSet
35 690 m 0,0,1
 35 703 35 703 51 703 c 2,2,-1
 76 703 l 2,3,4
 96 703 96 703 102 682 c 2,5,-1
 325 -1 l 2,6,7
 326 -4 326 -4 326 -9 c 0,8,9
 326 -22 326 -22 311 -22 c 2,10,-1
 286 -22 l 2,11,12
 266 -22 266 -22 260 -1 c 2,13,-1
 37 682 l 2,14,15
 35 688 35 688 35 690 c 0,0,1
EndSplineSet
EndChar

StartChar: bracketright
Encoding: 93 93 64
Width: 291
GlyphClass: 2
Flags: W
LayerCount: 2
Fore
SplineSet
7 -76 m 2,0,-1
 85 -76 l 1,1,-1
 167 706 l 1,2,-1
 90 706 l 2,3,4
 72 706 72 706 72 726 c 0,5,6
 72 768 72 768 96 768 c 2,7,-1
 217 768 l 2,8,9
 233 768 233 768 238.5 761 c 128,-1,10
 244 754 244 754 244 738 c 1,11,-1
 155 -108 l 2,12,13
 152 -138 152 -138 122 -138 c 2,14,-1
 1 -138 l 2,15,16
 -17 -138 -17 -138 -17 -118 c 0,17,18
 -17 -76 -17 -76 7 -76 c 2,0,-1
EndSplineSet
EndChar

StartChar: asciicircum
Encoding: 94 94 65
Width: 450
GlyphClass: 2
Flags: W
LayerCount: 2
Fore
SplineSet
234 684 m 2,0,-1
 254 684 l 2,1,2
 278 684 278 684 286 664 c 1,3,-1
 378 355 l 2,4,5
 380 350 380 350 380 341 c 1,6,7
 377 320 377 320 350 320 c 2,8,-1
 346 320 l 2,9,10
 321 320 321 320 314 343 c 2,11,-1
 235 604 l 1,12,-1
 101 343 l 1,13,14
 88 320 88 320 64 320 c 2,15,-1
 60 320 l 2,16,17
 36 320 36 320 36 337 c 0,18,19
 36 346 36 346 40 355 c 2,20,-1
 198 664 l 2,21,22
 209 684 209 684 234 684 c 2,0,-1
EndSplineSet
EndChar

StartChar: underscore
Encoding: 95 95 66
Width: 534
GlyphClass: 2
Flags: W
LayerCount: 2
Fore
SplineSet
532 -138 m 2,0,-1
 -3 -138 l 2,1,2
 -21 -138 -21 -138 -21 -114 c 128,-1,3
 -21 -90 -21 -90 2 -90 c 2,4,-1
 537 -90 l 2,5,6
 555 -90 555 -90 555 -114 c 128,-1,7
 555 -138 555 -138 532 -138 c 2,0,-1
EndSplineSet
EndChar

StartChar: grave
Encoding: 96 96 67
Width: 320
GlyphClass: 2
Flags: W
LayerCount: 2
Fore
SplineSet
238 614 m 0,0,1
 238 605 238 605 208.5 605 c 128,-1,2
 179 605 179 605 164 623 c 0,3,4
 76 723 76 723 73 729.5 c 128,-1,5
 70 736 70 736 70 740 c 0,6,7
 71 752 71 752 118 752 c 128,-1,8
 165 752 165 752 180 726 c 0,9,10
 238 627 238 627 238 614 c 0,0,1
EndSplineSet
EndChar

StartChar: a
Encoding: 97 97 68
Width: 545
GlyphClass: 2
Flags: W
LayerCount: 2
Fore
SplineSet
484 66 m 1,0,-1
 511 71 l 1,1,2
 517 71 517 71 517 60 c 128,-1,3
 517 49 517 49 513.5 29.5 c 128,-1,4
 510 10 510 10 490.5 2 c 128,-1,5
 471 -6 471 -6 453 -6 c 0,6,7
 363 -6 363 -6 363 92 c 2,8,-1
 363 102 l 1,9,10
 306 -6 306 -6 207 -6 c 0,11,12
 150 -6 150 -6 100 36 c 0,13,14
 73 59 73 59 56.5 103.5 c 128,-1,15
 40 148 40 148 40 210 c 0,16,17
 40 351 40 351 107 440 c 128,-1,18
 174 529 174 529 285 529 c 0,19,20
 355 529 355 529 412 475 c 1,21,22
 418 494 418 494 422 502 c 0,23,24
 434 525 434 525 457 525 c 2,25,-1
 463 525 l 2,26,27
 488 525 488 525 488 504 c 1,28,29
 448 134 448 134 448 113 c 128,-1,30
 448 92 448 92 451 83 c 128,-1,31
 454 74 454 74 460 71 c 0,32,33
 471 66 471 66 484 66 c 1,0,-1
293 456 m 0,34,35
 127 456 127 456 127 216 c 0,36,37
 127 67 127 67 226 67 c 0,38,39
 266 67 266 67 307 106.5 c 128,-1,40
 348 146 348 146 376 236 c 1,41,-1
 389 367 l 2,42,43
 391 385 391 385 397 417 c 1,44,45
 348 456 348 456 293 456 c 0,34,35
EndSplineSet
EndChar

StartChar: b
Encoding: 98 98 69
Width: 569
GlyphClass: 2
Flags: W
LayerCount: 2
Fore
SplineSet
155 752 m 2,0,-1
 159 752 l 2,1,2
 197 752 197 752 197 730 c 1,3,-1
 165 425 l 1,4,5
 224 529 224 529 324 529 c 0,6,7
 387 529 387 529 444 488 c 0,8,9
 474 467 474 467 492.5 422.5 c 128,-1,10
 511 378 511 378 511 316 c 0,11,12
 511 175 511 175 438 84.5 c 128,-1,13
 365 -6 365 -6 246 -6 c 0,14,15
 169 -6 169 -6 113 48 c 1,16,17
 99 -2 99 -2 71 -2 c 2,18,-1
 63 -2 l 2,19,20
 38 -2 38 -2 38 20 c 1,21,-1
 113 730 l 2,22,23
 116 752 116 752 155 752 c 2,0,-1
129 106 m 1,24,25
 175 67 175 67 233 67 c 128,-1,26
 291 67 291 67 329.5 87.5 c 128,-1,27
 368 108 368 108 388 144 c 0,28,29
 424 211 424 211 424 310 c 0,30,31
 424 456 424 456 305 456 c 0,32,33
 264 456 264 456 222 417.5 c 128,-1,34
 180 379 180 379 151 290 c 1,35,-1
 137 156 l 2,36,37
 134 134 134 134 129 106 c 1,24,25
EndSplineSet
EndChar

StartChar: c
Encoding: 99 99 70
Width: 485
GlyphClass: 2
Flags: W
LayerCount: 2
Fore
SplineSet
404 97 m 0,0,1
 410 97 410 97 410 81 c 128,-1,2
 410 65 410 65 405 39.5 c 128,-1,3
 400 14 400 14 352.5 4 c 128,-1,4
 305 -6 305 -6 263 -6 c 0,5,6
 155 -6 155 -6 101 44 c 128,-1,7
 47 94 47 94 47 194.5 c 128,-1,8
 47 295 47 295 72 365.5 c 128,-1,9
 97 436 97 436 158 482.5 c 128,-1,10
 219 529 219 529 311 529 c 0,11,12
 374 529 374 529 412.5 512 c 128,-1,13
 451 495 451 495 451 477 c 0,14,15
 451 466 451 466 437.5 446.5 c 128,-1,16
 424 427 424 427 412 427 c 0,17,18
 411 427 411 427 400 434 c 0,19,20
 365 457 365 457 295 457 c 128,-1,21
 225 457 225 457 179.5 397.5 c 128,-1,22
 134 338 134 338 134 210 c 0,23,24
 134 135 134 135 166.5 100.5 c 128,-1,25
 199 66 199 66 270 66 c 0,26,27
 332 66 332 66 385 90 c 0,28,29
 402 97 402 97 404 97 c 0,0,1
EndSplineSet
EndChar

StartChar: d
Encoding: 100 100 71
Width: 565
GlyphClass: 2
Flags: W
LayerCount: 2
Fore
SplineSet
511 66 m 1,0,-1
 538 71 l 1,1,2
 544 71 544 71 544 60 c 128,-1,3
 544 49 544 49 540.5 29.5 c 128,-1,4
 537 10 537 10 517.5 2 c 128,-1,5
 498 -6 498 -6 480 -6 c 0,6,7
 390 -6 390 -6 390 92 c 2,8,-1
 390 102 l 1,9,10
 332 -6 332 -6 229 -6 c 0,11,12
 165 -6 165 -6 108 36 c 0,13,14
 78 59 78 59 59.5 103.5 c 128,-1,15
 41 148 41 148 41 210 c 0,16,17
 41 351 41 351 110 440 c 128,-1,18
 179 529 179 529 292 529 c 0,19,20
 374 529 374 529 428 484 c 1,21,-1
 455 730 l 2,22,23
 458 752 458 752 497 752 c 2,24,-1
 501 752 l 2,25,26
 539 752 539 752 539 730 c 1,27,28
 475 137 475 137 475 114.5 c 128,-1,29
 475 92 475 92 478 83 c 128,-1,30
 481 74 481 74 488 71 c 0,31,32
 498 66 498 66 511 66 c 1,0,-1
421 418 m 1,33,34
 373 456 373 456 313.5 456 c 128,-1,35
 254 456 254 456 218.5 436 c 128,-1,36
 183 416 183 416 164 380 c 0,37,38
 129 312 129 312 129 223 c 128,-1,39
 129 134 129 134 159 100.5 c 128,-1,40
 189 67 189 67 248 67 c 0,41,42
 289 67 289 67 331 106 c 128,-1,43
 373 145 373 145 402 234 c 1,44,-1
 421 418 l 1,33,34
EndSplineSet
EndChar

StartChar: e
Encoding: 101 101 72
Width: 539
GlyphClass: 2
Flags: W
LayerCount: 2
Fore
SplineSet
410 102 m 0,0,1
 430 115 430 115 434 115 c 0,2,3
 441 115 441 115 441 99.5 c 128,-1,4
 441 84 441 84 436 58 c 0,5,6
 430 27 430 27 374 10.5 c 128,-1,7
 318 -6 318 -6 272 -6 c 0,8,9
 46 -6 46 -6 46 201 c 0,10,11
 46 346 46 346 114 437.5 c 128,-1,12
 182 529 182 529 321 529 c 0,13,14
 406 529 406 529 447.5 486.5 c 128,-1,15
 489 444 489 444 489 395 c 128,-1,16
 489 346 489 346 466.5 309 c 128,-1,17
 444 272 444 272 404 252 c 0,18,19
 327 213 327 213 219 213 c 0,20,21
 170 213 170 213 133 220 c 1,22,-1
 133 210 l 2,23,24
 133 131 133 131 170.5 98.5 c 128,-1,25
 208 66 208 66 279 66 c 128,-1,26
 350 66 350 66 410 102 c 0,0,1
312 457 m 0,27,28
 162 457 162 457 138 285 c 1,29,-1
 209 285 l 2,30,31
 294 285 294 285 344 307 c 0,32,33
 366 317 366 317 384 338 c 128,-1,34
 402 359 402 359 402 388 c 128,-1,35
 402 417 402 417 377.5 437 c 128,-1,36
 353 457 353 457 312 457 c 0,27,28
EndSplineSet
EndChar

StartChar: f
Encoding: 102 102 73
Width: 325
GlyphClass: 2
Flags: W
LayerCount: 2
Fore
SplineSet
296 523 m 2,0,1
 312 523 312 523 312 504 c 0,2,3
 312 484 312 484 298 467.5 c 128,-1,4
 284 451 284 451 267 451 c 2,5,-1
 201 451 l 1,6,-1
 156 20 l 2,7,8
 153 -2 153 -2 114 -2 c 2,9,-1
 110 -2 l 2,10,11
 72 -2 72 -2 72 20 c 1,12,-1
 117 451 l 1,13,-1
 77 451 l 2,14,15
 60 451 60 451 60 478 c 0,16,17
 60 523 60 523 85 523 c 2,18,-1
 125 523 l 1,19,-1
 135 624 l 2,20,21
 148 756 148 756 278 756 c 0,22,23
 349 756 349 756 349 725 c 0,24,25
 349 715 349 715 340 696 c 128,-1,26
 331 677 331 677 323 677 c 0,27,28
 322 677 322 677 317 678 c 0,29,30
 299 684 299 684 275.5 684 c 128,-1,31
 252 684 252 684 237 670 c 128,-1,32
 222 656 222 656 218 614 c 2,33,-1
 209 523 l 1,34,-1
 296 523 l 2,0,1
EndSplineSet
EndChar

StartChar: g
Encoding: 103 103 74
Width: 546
GlyphClass: 2
Flags: W
LayerCount: 2
Fore
SplineSet
213 -212 m 0,0,1
 141 -212 141 -212 91 -189 c 128,-1,2
 41 -166 41 -166 41 -141 c 0,3,4
 41 -86 41 -86 55 -86 c 0,5,6
 57 -86 57 -86 75.5 -99.5 c 128,-1,7
 94 -113 94 -113 130.5 -126.5 c 128,-1,8
 167 -140 167 -140 213 -140 c 0,9,10
 286 -140 286 -140 325 -82 c 128,-1,11
 364 -24 364 -24 375 108 c 1,12,13
 317 0 317 0 214 0 c 0,14,15
 155 0 155 0 104 41 c 0,16,17
 76 63 76 63 59 106.5 c 128,-1,18
 42 150 42 150 42 210 c 0,19,20
 42 351 42 351 110.5 440 c 128,-1,21
 179 529 179 529 292 529 c 0,22,23
 365 529 365 529 424 475 c 1,24,25
 430 494 430 494 434 502 c 0,26,27
 446 525 446 525 469 525 c 2,28,-1
 475 525 l 2,29,30
 500 525 500 525 500 504 c 1,31,-1
 457 99 l 2,32,33
 439 -75 439 -75 381.5 -143.5 c 128,-1,34
 324 -212 324 -212 213 -212 c 0,0,1
300 456 m 0,35,36
 129 456 129 456 129 216 c 0,37,38
 129 73 129 73 233 73 c 0,39,40
 274 73 274 73 316.5 113 c 128,-1,41
 359 153 359 153 388 244 c 1,42,-1
 401 367 l 2,43,44
 403 385 403 385 409 417 c 1,45,46
 357 456 357 456 300 456 c 0,35,36
EndSplineSet
EndChar

StartChar: h
Encoding: 104 104 75
Width: 565
GlyphClass: 2
Flags: W
LayerCount: 2
Fore
SplineSet
495 66 m 1,0,-1
 522 71 l 1,1,2
 528 71 528 71 528 60 c 128,-1,3
 528 49 528 49 524.5 29.5 c 128,-1,4
 521 10 521 10 501.5 2 c 128,-1,5
 482 -6 482 -6 464 -6 c 0,6,7
 374 -6 374 -6 374 92 c 0,8,9
 374 110 374 110 388 240.5 c 128,-1,10
 402 371 402 371 402 379 c 0,11,12
 402 456 402 456 326 456 c 0,13,14
 285 456 285 456 241 419.5 c 128,-1,15
 197 383 197 383 167 297 c 1,16,-1
 138 20 l 2,17,18
 135 -2 135 -2 96 -2 c 2,19,-1
 92 -2 l 2,20,21
 54 -2 54 -2 54 19 c 1,22,-1
 129 730 l 2,23,24
 132 752 132 752 171 752 c 2,25,-1
 175 752 l 2,26,27
 213 752 213 752 213 730 c 1,28,-1
 181 432 l 1,29,30
 253 529 253 529 356 529 c 0,31,32
 488 529 488 529 488 399 c 1,33,-1
 459 107 l 1,34,35
 459 77 459 77 472 71 c 0,36,37
 482 66 482 66 495 66 c 1,0,-1
EndSplineSet
EndChar

StartChar: i
Encoding: 105 105 76
Width: 265
GlyphClass: 2
Flags: W
LayerCount: 2
Fore
SplineSet
166 752 m 2,0,-1
 178 752 l 2,1,2
 216 752 216 752 216 730 c 1,3,-1
 210 671 l 1,4,5
 210 649 210 649 172 649 c 2,6,-1
 160 649 l 2,7,8
 118 649 118 649 118 671 c 1,9,-1
 124 730 l 2,10,11
 127 752 127 752 166 752 c 2,0,-1
183 66 m 1,12,-1
 210 71 l 1,13,14
 216 71 216 71 216 60 c 128,-1,15
 216 49 216 49 212.5 29.5 c 128,-1,16
 209 10 209 10 189.5 2 c 128,-1,17
 170 -6 170 -6 152 -6 c 0,18,19
 63 -6 63 -6 63 89 c 0,20,21
 63 125 63 125 83 314 c 128,-1,22
 103 503 103 503 104 503 c 0,23,24
 107 525 107 525 146 525 c 2,25,-1
 150 525 l 2,26,27
 188 525 188 525 188 503 c 1,28,29
 148 137 148 137 148 112.5 c 128,-1,30
 148 88 148 88 154 78.5 c 128,-1,31
 160 69 160 69 166 67.5 c 128,-1,32
 172 66 172 66 183 66 c 1,12,-1
EndSplineSet
EndChar

StartChar: j
Encoding: 106 106 77
Width: 276
GlyphClass: 2
Flags: W
LayerCount: 2
Fore
SplineSet
182 752 m 2,0,-1
 194 752 l 2,1,2
 232 752 232 752 232 730 c 1,3,-1
 226 671 l 1,4,5
 226 649 226 649 188 649 c 2,6,-1
 176 649 l 2,7,8
 134 649 134 649 134 671 c 1,9,-1
 140 730 l 2,10,11
 143 752 143 752 182 752 c 2,0,-1
162 525 m 2,12,-1
 166 525 l 2,13,14
 204 525 204 525 204 503 c 1,15,-1
 143 -74 l 2,16,17
 135 -152 135 -152 97.5 -182 c 128,-1,18
 60 -212 60 -212 18.5 -212 c 128,-1,19
 -23 -212 -23 -212 -45 -200.5 c 128,-1,20
 -67 -189 -67 -189 -67 -171 c 0,21,22
 -67 -123 -67 -123 -56 -123 c 0,23,24
 -55 -123 -55 -123 -38 -131.5 c 128,-1,25
 -21 -140 -21 -140 2.5 -140 c 128,-1,26
 26 -140 26 -140 41 -124 c 128,-1,27
 56 -108 56 -108 60 -66 c 2,28,-1
 120 503 l 2,29,30
 123 525 123 525 162 525 c 2,12,-1
EndSplineSet
EndChar

StartChar: k
Encoding: 107 107 78
Width: 521
GlyphClass: 2
Flags: W
LayerCount: 2
Fore
SplineSet
448 525 m 2,0,-1
 452 525 l 2,1,2
 486 525 486 525 486 513 c 0,3,4
 486 504 486 504 474 492 c 2,5,-1
 256 272 l 1,6,-1
 457 28 l 2,7,8
 464 18 464 18 464 11 c 0,9,10
 464 -2 464 -2 419 -2 c 2,11,-1
 415 -2 l 2,12,13
 372 -2 372 -2 362 11 c 2,14,-1
 166 248 l 1,15,-1
 162 248 l 1,16,-1
 138 20 l 2,17,18
 135 -2 135 -2 96 -2 c 2,19,-1
 92 -2 l 2,20,21
 54 -2 54 -2 54 20 c 1,22,-1
 129 730 l 2,23,24
 131 752 131 752 171 752 c 2,25,-1
 175 752 l 2,26,27
 213 752 213 752 213 730 c 1,28,-1
 166 283 l 1,29,-1
 170 283 l 1,30,-1
 394 511 l 2,31,32
 407 525 407 525 448 525 c 2,0,-1
EndSplineSet
EndChar

StartChar: l
Encoding: 108 108 79
Width: 297
GlyphClass: 2
Flags: W
LayerCount: 2
Fore
SplineSet
197 66 m 1,0,-1
 224 71 l 1,1,2
 230 71 230 71 230 60 c 128,-1,3
 230 49 230 49 226.5 29.5 c 128,-1,4
 223 10 223 10 203.5 2 c 128,-1,5
 184 -6 184 -6 166 -6 c 0,6,7
 76 -6 76 -6 76 92 c 0,8,9
 76 137 76 137 124 580 c 1,10,-1
 141 730 l 2,11,12
 144 752 144 752 183 752 c 2,13,-1
 187 752 l 2,14,15
 225 752 225 752 225 730 c 1,16,17
 161 137 161 137 161 114.5 c 128,-1,18
 161 92 161 92 164 83 c 128,-1,19
 167 74 167 74 174 71 c 0,20,21
 184 66 184 66 197 66 c 1,0,-1
EndSplineSet
EndChar

StartChar: m
Encoding: 109 109 80
Width: 848
GlyphClass: 2
Flags: W
LayerCount: 2
Fore
SplineSet
763 399 m 1,0,-1
 734 107 l 1,1,2
 734 77 734 77 746 71 c 0,3,4
 757 66 757 66 770 66 c 1,5,6
 770 66 770 66 797 71 c 1,7,8
 803 71 803 71 803 60 c 128,-1,9
 803 49 803 49 799.5 29.5 c 128,-1,10
 796 10 796 10 776.5 2 c 128,-1,11
 757 -6 757 -6 739 -6 c 0,12,13
 649 -6 649 -6 649 92 c 0,14,15
 649 110 649 110 663 240.5 c 128,-1,16
 677 371 677 371 677 379 c 0,17,18
 677 456 677 456 601 456 c 0,19,20
 563 456 563 456 522.5 421 c 128,-1,21
 482 386 482 386 452 305 c 1,22,-1
 422 20 l 2,23,24
 420 -2 420 -2 380 -2 c 2,25,-1
 376 -2 l 2,26,27
 338 -2 338 -2 338 19 c 1,28,29
 375 363 375 363 375 379 c 0,30,31
 375 456 375 456 299 456 c 0,32,33
 261 456 261 456 221 422 c 128,-1,34
 181 388 181 388 151 307 c 1,35,36
 147 265 147 265 121 20 c 0,37,38
 118 -2 118 -2 79 -2 c 2,39,-1
 75 -2 l 2,40,41
 37 -2 37 -2 37 19 c 1,42,43
 81 410 81 410 81 457 c 1,44,-1
 80 491 l 2,45,46
 80 514 80 514 136 514 c 0,47,48
 162 514 162 514 162 439 c 0,49,50
 162 432 162 432 161 427 c 1,51,52
 226 529 226 529 329 529 c 0,53,54
 448 529 448 529 460 421 c 1,55,56
 525 529 525 529 631 529 c 0,57,58
 763 529 763 529 763 399 c 1,0,-1
EndSplineSet
EndChar

StartChar: n
Encoding: 110 110 81
Width: 557
GlyphClass: 2
Flags: W
LayerCount: 2
Fore
SplineSet
471 399 m 1,0,-1
 442 107 l 1,1,2
 442 77 442 77 454 71 c 0,3,4
 465 66 465 66 478 66 c 1,5,6
 478 66 478 66 505 71 c 1,7,8
 511 71 511 71 511 60 c 128,-1,9
 511 49 511 49 507.5 29.5 c 128,-1,10
 504 10 504 10 484.5 2 c 128,-1,11
 465 -6 465 -6 447 -6 c 0,12,13
 357 -6 357 -6 357 92 c 0,14,15
 357 110 357 110 371 240.5 c 128,-1,16
 385 371 385 371 385 379 c 0,17,18
 385 456 385 456 309 456 c 0,19,20
 268 456 268 456 223.5 419 c 128,-1,21
 179 382 179 382 150 295 c 1,22,-1
 121 20 l 2,23,24
 118 -2 118 -2 79 -2 c 2,25,-1
 75 -2 l 2,26,27
 37 -2 37 -2 37 19 c 1,28,29
 81 410 81 410 81 457 c 1,30,-1
 80 491 l 2,31,32
 80 514 80 514 136 514 c 0,33,34
 162 514 162 514 162 439 c 0,35,36
 162 434 162 434 161 428 c 1,37,38
 235 529 235 529 339 529 c 0,39,40
 471 529 471 529 471 399 c 1,0,-1
EndSplineSet
EndChar

StartChar: o
Encoding: 111 111 82
Width: 569
GlyphClass: 2
Flags: W
LayerCount: 2
Fore
SplineSet
45 209 m 0,0,1
 45 341 45 341 106 430 c 0,2,3
 137 476 137 476 189 502.5 c 128,-1,4
 241 529 241 529 309 529 c 0,5,6
 407 529 407 529 458.5 473.5 c 128,-1,7
 510 418 510 418 510 312 c 0,8,9
 510 159 510 159 441.5 76.5 c 128,-1,10
 373 -6 373 -6 252 -6 c 0,11,12
 150 -6 150 -6 97.5 49 c 128,-1,13
 45 104 45 104 45 209 c 0,0,1
257 66 m 0,14,15
 337 66 337 66 380 128.5 c 128,-1,16
 423 191 423 191 423 310 c 0,17,18
 423 385 423 385 392.5 421 c 128,-1,19
 362 457 362 457 298 457 c 0,20,21
 217 457 217 457 174 392 c 128,-1,22
 131 327 131 327 131 212 c 0,23,24
 131 66 131 66 257 66 c 0,14,15
EndSplineSet
EndChar

StartChar: p
Encoding: 112 112 83
Width: 573
GlyphClass: 2
Flags: W
LayerCount: 2
Fore
SplineSet
87 457 m 1,0,-1
 86 491 l 2,1,2
 86 514 86 514 142 514 c 0,3,4
 168 514 168 514 168 439 c 0,5,6
 168 432 168 432 167 426 c 1,7,8
 225 529 225 529 329 529 c 0,9,10
 393 529 393 529 449 488 c 0,11,12
 479 466 479 466 497.5 422 c 128,-1,13
 516 378 516 378 516 318 c 0,14,15
 516 175 516 175 447.5 84.5 c 128,-1,16
 379 -6 379 -6 265 -6 c 0,17,18
 188 -6 188 -6 130 47 c 1,19,-1
 106 -186 l 2,20,21
 103 -208 103 -208 64 -208 c 2,22,-1
 60 -208 l 2,23,24
 22 -208 22 -208 22 -187 c 1,25,26
 87 409 87 409 87 457 c 1,0,-1
310 456 m 0,27,28
 269 456 269 456 226.5 417 c 128,-1,29
 184 378 184 378 155 290 c 1,30,31
 148 230 148 230 137 111 c 1,32,33
 188 66 188 66 253 66 c 0,34,35
 429 66 429 66 429 312 c 0,36,37
 429 456 429 456 310 456 c 0,27,28
EndSplineSet
EndChar

StartChar: q
Encoding: 113 113 84
Width: 566
GlyphClass: 2
Flags: W
LayerCount: 2
Fore
SplineSet
404 -208 m 2,0,-1
 400 -208 l 2,1,2
 362 -208 362 -208 362 -186 c 1,3,-1
 391 98 l 1,4,5
 332 -6 332 -6 232 -6 c 0,6,7
 169 -6 169 -6 112 36 c 0,8,9
 82 59 82 59 63.5 103.5 c 128,-1,10
 45 148 45 148 45 210 c 0,11,12
 45 351 45 351 117.5 440 c 128,-1,13
 190 529 190 529 310 529 c 0,14,15
 387 529 387 529 443 475 c 1,16,17
 457 525 457 525 485 525 c 2,18,-1
 493 525 l 2,19,20
 518 525 518 525 518 503 c 1,21,-1
 446 -186 l 2,22,23
 443 -208 443 -208 404 -208 c 2,0,-1
318 456 m 0,24,25
 132 456 132 456 132 216 c 0,26,27
 132 67 132 67 251 67 c 0,28,29
 292 67 292 67 334 105.5 c 128,-1,30
 376 144 376 144 405 233 c 1,31,-1
 419 367 l 2,32,33
 422 390 422 390 427 417 c 1,34,35
 381 456 381 456 318 456 c 0,24,25
EndSplineSet
EndChar

StartChar: r
Encoding: 114 114 85
Width: 366
GlyphClass: 2
Flags: W
LayerCount: 2
Fore
SplineSet
106 457 m 1,0,-1
 105 491 l 2,1,2
 105 514 105 514 161 514 c 0,3,4
 187 514 187 514 187 439 c 0,5,6
 187 435 187 435 186 429 c 1,7,8
 210 476 210 476 245.5 502.5 c 128,-1,9
 281 529 281 529 319 529 c 0,10,11
 369 529 369 529 369 491 c 0,12,13
 369 473 369 473 359 454 c 128,-1,14
 349 435 349 435 340 435 c 0,15,16
 338 435 338 435 327 440.5 c 128,-1,17
 316 446 316 446 301 446 c 0,18,19
 267 446 267 446 232.5 410 c 128,-1,20
 198 374 198 374 174 288 c 1,21,-1
 146 20 l 2,22,23
 143 -2 143 -2 104 -2 c 2,24,-1
 100 -2 l 2,25,26
 62 -2 62 -2 62 19 c 1,27,28
 106 409 106 409 106 457 c 1,0,-1
EndSplineSet
EndChar

StartChar: s
Encoding: 115 115 86
Width: 413
GlyphClass: 2
Flags: W
LayerCount: 2
Fore
SplineSet
27 51 m 0,0,1
 27 105 27 105 43 105 c 0,2,3
 46 105 46 105 61 96 c 0,4,5
 108 66 108 66 159 66 c 128,-1,6
 210 66 210 66 240 89.5 c 128,-1,7
 270 113 270 113 270 150.5 c 128,-1,8
 270 188 270 188 247.5 209.5 c 128,-1,9
 225 231 225 231 193 242 c 128,-1,10
 161 253 161 253 129.5 265.5 c 128,-1,11
 98 278 98 278 75.5 306 c 128,-1,12
 53 334 53 334 53 379 c 0,13,14
 53 446 53 446 104.5 487.5 c 128,-1,15
 156 529 156 529 235 529 c 0,16,17
 278 529 278 529 318.5 517 c 128,-1,18
 359 505 359 505 359 481 c 0,19,20
 359 471 359 471 346.5 452 c 128,-1,21
 334 433 334 433 323 433 c 0,22,23
 322 433 322 433 310 439 c 0,24,25
 274 457 274 457 232.5 457 c 128,-1,26
 191 457 191 457 166 439 c 128,-1,27
 141 421 141 421 141 392.5 c 128,-1,28
 141 364 141 364 163 347 c 128,-1,29
 185 330 185 330 216.5 319 c 128,-1,30
 248 308 248 308 280 293.5 c 128,-1,31
 312 279 312 279 334 248 c 128,-1,32
 356 217 356 217 356 171 c 0,33,34
 356 92 356 92 304.5 43 c 128,-1,35
 253 -6 253 -6 167 -6 c 0,36,37
 127 -6 127 -6 77 9 c 128,-1,38
 27 24 27 24 27 51 c 0,0,1
EndSplineSet
EndChar

StartChar: t
Encoding: 116 116 87
Width: 342
GlyphClass: 2
Flags: W
LayerCount: 2
Fore
SplineSet
181 650 m 2,0,-1
 185 650 l 2,1,2
 223 650 223 650 223 628 c 1,3,-1
 212 523 l 1,4,-1
 297 523 l 2,5,6
 313 523 313 523 313 504 c 0,7,8
 313 484 313 484 299 467.5 c 128,-1,9
 285 451 285 451 268 451 c 2,10,-1
 204 451 l 1,11,12
 170 143 170 143 170 123 c 0,13,14
 170 66 170 66 218 66 c 0,15,16
 236 66 236 66 249 69.5 c 128,-1,17
 262 73 262 73 263 73 c 0,18,19
 270 73 270 73 270 60.5 c 128,-1,20
 270 48 270 48 265 27 c 0,21,22
 257 -6 257 -6 197 -6 c 0,23,24
 85 -6 85 -6 85 104 c 1,25,-1
 120 451 l 1,26,-1
 70 451 l 2,27,28
 53 451 53 451 53 478 c 0,29,30
 53 523 53 523 78 523 c 2,31,-1
 128 523 l 1,32,-1
 140 628 l 2,33,34
 143 650 143 650 181 650 c 2,0,-1
EndSplineSet
EndChar

StartChar: u
Encoding: 117 117 88
Width: 557
GlyphClass: 2
Flags: W
LayerCount: 2
Fore
SplineSet
488 66 m 1,0,-1
 515 71 l 1,1,2
 521 71 521 71 521 60 c 128,-1,3
 521 49 521 49 517.5 29.5 c 128,-1,4
 514 10 514 10 494.5 2 c 128,-1,5
 475 -6 475 -6 457 -6 c 0,6,7
 367 -6 367 -6 367 92 c 2,8,-1
 367 102 l 1,9,10
 295 -6 295 -6 189 -6 c 0,11,12
 57 -6 57 -6 57 124 c 1,13,-1
 95 503 l 2,14,15
 98 525 98 525 137 525 c 2,16,-1
 141 525 l 2,17,18
 179 525 179 525 179 503 c 1,19,20
 143 158 143 158 143 144 c 0,21,22
 143 67 143 67 219 67 c 0,23,24
 261 67 261 67 305.5 106 c 128,-1,25
 350 145 350 145 379 237 c 1,26,-1
 407 503 l 2,27,28
 410 525 410 525 449 525 c 2,29,-1
 453 525 l 2,30,31
 491 525 491 525 491 503 c 1,32,33
 452 137 452 137 452 114.5 c 128,-1,34
 452 92 452 92 455 83 c 128,-1,35
 458 74 458 74 464 71 c 0,36,37
 475 66 475 66 488 66 c 1,0,-1
EndSplineSet
EndChar

StartChar: v
Encoding: 118 118 89
Width: 485
GlyphClass: 2
Flags: W
LayerCount: 2
Fore
SplineSet
226 -2 m 2,0,-1
 191 -2 l 2,1,2
 156 -2 156 -2 152 14 c 0,3,4
 40 502 40 502 40 508 c 0,5,6
 42 525 42 525 85 525 c 2,7,-1
 93 525 l 2,8,9
 128 525 128 525 132 509 c 2,10,-1
 223 104 l 1,11,-1
 400 509 l 2,12,13
 407 525 407 525 445 525 c 128,-1,14
 483 525 483 525 483 510 c 0,15,16
 483 503 483 503 479 494 c 2,17,-1
 267 14 l 2,18,19
 260 -2 260 -2 226 -2 c 2,0,-1
EndSplineSet
EndChar

StartChar: w
Encoding: 119 119 90
Width: 747
GlyphClass: 2
Flags: W
LayerCount: 2
Fore
SplineSet
651 509 m 2,0,1
 656 525 656 525 696 525 c 128,-1,2
 736 525 736 525 736 510 c 0,3,4
 736 503 736 503 732 494 c 2,5,-1
 547 14 l 2,6,7
 540 -2 540 -2 506 -2 c 2,8,-1
 473 -2 l 2,9,10
 438 -2 438 -2 435 14 c 2,11,-1
 382 378 l 1,12,-1
 249 14 l 2,13,14
 244 -2 244 -2 208 -2 c 2,15,-1
 175 -2 l 2,16,17
 139 -2 139 -2 136 14 c 0,18,19
 51 504 51 504 51 508 c 0,20,21
 53 525 53 525 96 525 c 2,22,-1
 105 525 l 2,23,24
 141 525 141 525 144 509 c 2,25,-1
 207 110 l 1,26,-1
 352 508 l 2,27,28
 359 525 359 525 393 525 c 2,29,-1
 404 525 l 2,30,31
 438 525 438 525 441 508 c 2,32,-1
 505 110 l 1,33,-1
 651 509 l 2,0,1
EndSplineSet
EndChar

StartChar: x
Encoding: 120 120 91
Width: 485
GlyphClass: 2
Flags: W
LayerCount: 2
Fore
SplineSet
41 -2 m 2,0,-1
 37 -2 l 2,1,2
 -7 -2 -7 -2 -7 13 c 0,3,4
 -7 20 -7 20 2 33 c 1,5,-1
 189 268 l 1,6,-1
 63 490 l 1,7,8
 56 500 56 500 56 508 c 1,9,10
 59 525 59 525 104 525 c 2,11,-1
 115 525 l 2,12,13
 148 525 148 525 157 510 c 2,14,-1
 253 344 l 1,15,-1
 386 511 l 2,16,17
 396 525 396 525 430 525 c 2,18,-1
 434 525 l 2,19,20
 478 525 478 525 478 510 c 0,21,22
 478 502 478 502 469 490 c 2,23,-1
 294 270 l 1,24,-1
 431 33 l 1,25,26
 438 23 438 23 438 15 c 1,27,28
 435 -2 435 -2 390 -2 c 2,29,-1
 379 -2 l 2,30,31
 346 -2 346 -2 337 13 c 2,32,-1
 232 196 l 1,33,-1
 85 12 l 2,34,35
 74 -2 74 -2 41 -2 c 2,0,-1
EndSplineSet
EndChar

StartChar: y
Encoding: 121 121 92
Width: 481
GlyphClass: 2
Flags: W
LayerCount: 2
Fore
SplineSet
103 -208 m 2,0,-1
 88 -208 l 2,1,2
 57 -208 57 -208 57 -193 c 0,3,4
 57 -188 57 -188 169 28 c 1,5,6
 41 502 41 502 41 508 c 0,7,8
 41 525 41 525 86 525 c 2,9,-1
 94 525 l 2,10,11
 128 525 128 525 132 509 c 2,12,-1
 230 148 l 1,13,-1
 401 509 l 2,14,15
 409 525 409 525 447 525 c 128,-1,16
 485 525 485 525 485 509 c 0,17,18
 485 508 485 508 481 494 c 1,19,-1
 152 -187 l 2,20,21
 142 -208 142 -208 103 -208 c 2,0,-1
EndSplineSet
EndChar

StartChar: z
Encoding: 122 122 93
Width: 489
GlyphClass: 2
Flags: W
LayerCount: 2
Fore
SplineSet
401 0 m 2,0,-1
 31 0 l 2,1,2
 26 0 26 0 20 15.5 c 128,-1,3
 14 31 14 31 14 44 c 128,-1,4
 14 57 14 57 19 62 c 2,5,-1
 352 451 l 1,6,-1
 96 451 l 2,7,8
 79 451 79 451 79 478 c 0,9,10
 79 523 79 523 104 523 c 2,11,-1
 455 523 l 2,12,13
 461 523 461 523 465.5 507 c 128,-1,14
 470 491 470 491 470 478 c 128,-1,15
 470 465 470 465 466 461 c 2,16,-1
 134 72 l 1,17,-1
 409 72 l 2,18,19
 426 72 426 72 426 45 c 0,20,21
 426 0 426 0 401 0 c 2,0,-1
EndSplineSet
EndChar

StartChar: braceleft
Encoding: 123 123 94
Width: 274
GlyphClass: 2
Flags: W
LayerCount: 2
Fore
SplineSet
265 706 m 2,0,-1
 243 706 l 2,1,2
 223 706 223 706 214 691 c 128,-1,3
 205 676 205 676 202 645 c 2,4,-1
 184 469 l 2,5,6
 174 371 174 371 89 314 c 1,7,8
 118 299 118 299 135 261.5 c 128,-1,9
 152 224 152 224 152 195 c 128,-1,10
 152 166 152 166 141.5 77.5 c 128,-1,11
 131 -11 131 -11 131 -38 c 0,12,13
 131 -76 131 -76 160 -76 c 2,14,-1
 182 -76 l 2,15,16
 200 -76 200 -76 200 -96 c 0,17,18
 200 -138 200 -138 176 -138 c 2,19,-1
 126 -138 l 2,20,21
 101 -138 101 -138 80 -117 c 128,-1,22
 59 -96 59 -96 59 -46 c 0,23,24
 59 -22 59 -22 70 78 c 128,-1,25
 81 178 81 178 81 191 c 0,26,27
 81 256 81 256 40 274 c 0,28,29
 19 283 19 283 19 303 c 1,30,-1
 20 322 l 2,31,32
 21 345 21 345 49 356 c 1,33,34
 81 370 81 370 94 399.5 c 128,-1,35
 107 429 107 429 113 485 c 2,36,-1
 131 652 l 2,37,38
 138 716 138 716 164 742 c 128,-1,39
 190 768 190 768 221 768 c 2,40,-1
 271 768 l 2,41,42
 289 768 289 768 289 748 c 0,43,44
 289 706 289 706 265 706 c 2,0,-1
EndSplineSet
EndChar

StartChar: bar
Encoding: 124 124 95
Width: 250
GlyphClass: 2
Flags: W
LayerCount: 2
Fore
SplineSet
96 -118 m 2,0,-1
 96 748 l 2,1,2
 96 770 96 770 120 770 c 2,3,-1
 130 770 l 2,4,5
 154 770 154 770 154 748 c 2,6,-1
 154 -118 l 2,7,8
 154 -140 154 -140 130 -140 c 2,9,-1
 120 -140 l 2,10,11
 96 -140 96 -140 96 -118 c 2,0,-1
EndSplineSet
EndChar

StartChar: braceright
Encoding: 125 125 96
Width: 274
GlyphClass: 2
Flags: W
LayerCount: 2
Fore
SplineSet
7 -76 m 2,0,-1
 29 -76 l 2,1,2
 49 -76 49 -76 58 -61 c 128,-1,3
 67 -46 67 -46 70 -15 c 2,4,-1
 88 161 l 2,5,6
 98 259 98 259 183 316 c 1,7,8
 154 331 154 331 137 368.5 c 128,-1,9
 120 406 120 406 120 435 c 128,-1,10
 120 464 120 464 130.5 552.5 c 128,-1,11
 141 641 141 641 141 668 c 0,12,13
 141 706 141 706 112 706 c 2,14,-1
 90 706 l 2,15,16
 72 706 72 706 72 726 c 0,17,18
 72 768 72 768 96 768 c 2,19,-1
 146 768 l 2,20,21
 171 768 171 768 192 747 c 128,-1,22
 213 726 213 726 213 676 c 0,23,24
 213 652 213 652 202 552 c 128,-1,25
 191 452 191 452 191 439 c 0,26,27
 191 374 191 374 232 356 c 0,28,29
 253 347 253 347 253 327 c 1,30,-1
 252 308 l 2,31,32
 251 285 251 285 223 274 c 1,33,34
 191 260 191 260 178 230.5 c 128,-1,35
 165 201 165 201 159 145 c 2,36,-1
 141 -22 l 2,37,38
 134 -86 134 -86 108 -112 c 128,-1,39
 82 -138 82 -138 51 -138 c 2,40,-1
 1 -138 l 2,41,42
 -17 -138 -17 -138 -17 -118 c 0,43,44
 -17 -76 -17 -76 7 -76 c 2,0,-1
EndSplineSet
EndChar

StartChar: asciitilde
Encoding: 126 126 97
Width: 547
GlyphClass: 2
Flags: W
LayerCount: 2
Fore
SplineSet
79 263 m 0,0,1
 79 280 79 280 119 297.5 c 128,-1,2
 159 315 159 315 202.5 315 c 128,-1,3
 246 315 246 315 300 302 c 128,-1,4
 354 289 354 289 373 289 c 128,-1,5
 392 289 392 289 413 294.5 c 128,-1,6
 434 300 434 300 442 300 c 128,-1,7
 450 300 450 300 459 291 c 128,-1,8
 468 282 468 282 468 268 c 0,9,10
 468 250 468 250 428 232.5 c 128,-1,11
 388 215 388 215 344 215 c 128,-1,12
 300 215 300 215 246.5 228 c 128,-1,13
 193 241 193 241 174 241 c 128,-1,14
 155 241 155 241 134 235.5 c 128,-1,15
 113 230 113 230 108 230 c 0,16,17
 93 230 93 230 86 243 c 128,-1,18
 79 256 79 256 79 263 c 0,0,1
EndSplineSet
EndChar

StartChar: exclamdown
Encoding: 161 161 99
Width: 294
GlyphClass: 2
Flags: W
LayerCount: 2
Fore
SplineSet
178 415 m 2,0,-1
 161 415 l 2,1,2
 123 415 123 415 123 437 c 1,3,-1
 130 503 l 2,4,5
 132 525 132 525 172 525 c 2,6,-1
 189 525 l 2,7,8
 227 525 227 525 227 503 c 1,9,-1
 220 437 l 2,10,11
 217 415 217 415 178 415 c 2,0,-1
104 -179 m 2,12,-1
 84 -179 l 2,13,14
 47 -179 47 -179 47 -157 c 1,15,-1
 122 299 l 2,16,17
 125 321 125 321 155 321 c 2,18,-1
 166 321 l 2,19,20
 194 321 194 321 194 299 c 1,21,-1
 146 -157 l 2,22,23
 143 -179 143 -179 104 -179 c 2,12,-1
EndSplineSet
EndChar

StartChar: cent
Encoding: 162 162 100
Width: 486
GlyphClass: 2
Flags: W
LayerCount: 2
Fore
SplineSet
390 90 m 0,0,1
 405 97 405 97 409.5 97 c 128,-1,2
 414 97 414 97 414 81 c 128,-1,3
 414 65 414 65 409 40 c 0,4,5
 401 0 401 0 281 -6 c 1,6,-1
 276 -51 l 2,7,8
 273 -71 273 -71 254 -71 c 0,9,10
 243 -71 243 -71 239.5 -66.5 c 128,-1,11
 236 -62 236 -62 236 -51 c 1,12,-1
 241 -5 l 1,13,14
 146 0 146 0 98.5 50.5 c 128,-1,15
 51 101 51 101 51 196.5 c 128,-1,16
 51 292 51 292 74.5 361 c 128,-1,17
 98 430 98 430 155 477 c 128,-1,18
 212 524 212 524 298 528 c 1,19,-1
 301 558 l 2,20,21
 302 578 302 578 323 578 c 0,22,23
 341 578 341 578 341 558 c 1,24,-1
 338 528 l 1,25,26
 391 525 391 525 423 509 c 128,-1,27
 455 493 455 493 455 477 c 0,28,29
 455 466 455 466 441.5 446.5 c 128,-1,30
 428 427 428 427 416 427 c 0,31,32
 414 427 414 427 405 433 c 0,33,34
 377 451 377 451 330 455 c 1,35,-1
 288 66 l 1,36,37
 342 68 342 68 390 90 c 0,0,1
138 210 m 0,38,39
 138 142 138 142 164.5 107 c 128,-1,40
 191 72 191 72 248 67 c 1,41,-1
 290 456 l 1,42,43
 221 450 221 450 179.5 390.5 c 128,-1,44
 138 331 138 331 138 210 c 0,38,39
EndSplineSet
EndChar

StartChar: sterling
Encoding: 163 163 101
Width: 491
GlyphClass: 2
Flags: W
LayerCount: 2
Fore
SplineSet
326 339 m 2,0,-1
 201 339 l 1,1,-1
 192 249 l 2,2,3
 186 186 186 186 170 145 c 128,-1,4
 154 104 154 104 143 93 c 128,-1,5
 132 82 132 82 116 72 c 1,6,-1
 396 72 l 2,7,8
 407 72 407 72 410 65 c 128,-1,9
 413 58 413 58 413 42 c 0,10,11
 413 0 413 0 388 0 c 2,12,-1
 14 0 l 2,13,14
 -2 0 -2 0 -2 18 c 0,15,16
 -2 26 -2 26 -0.5 43 c 128,-1,17
 1 60 1 60 15.5 70 c 128,-1,18
 30 80 30 80 47 86.5 c 128,-1,19
 64 93 64 93 79.5 111.5 c 128,-1,20
 95 130 95 130 98 159 c 2,21,-1
 117 339 l 1,22,-1
 61 339 l 2,23,24
 44 339 44 339 44 366 c 0,25,26
 44 411 44 411 69 411 c 2,27,-1
 125 411 l 1,28,-1
 134 498 l 2,29,30
 155 706 155 706 361 706 c 0,31,32
 458 706 458 706 458 674 c 0,33,34
 458 667 458 667 449.5 646 c 128,-1,35
 441 625 441 625 431 625 c 0,36,37
 430 625 430 625 409 629.5 c 128,-1,38
 388 634 388 634 369 634 c 0,39,40
 298 634 298 634 261.5 602.5 c 128,-1,41
 225 571 225 571 218 503 c 2,42,-1
 209 411 l 1,43,-1
 355 411 l 2,44,45
 371 411 371 411 371 392 c 0,46,47
 371 372 371 372 357 355.5 c 128,-1,48
 343 339 343 339 326 339 c 2,0,-1
EndSplineSet
EndChar

StartChar: currency
Encoding: 164 164 102
Width: 534
GlyphClass: 2
Flags: W
LayerCount: 2
Fore
SplineSet
94 143 m 128,-1,1
 83 143 83 143 76 151.5 c 128,-1,2
 69 160 69 160 69 170 c 128,-1,3
 69 180 69 180 82 193 c 2,4,-1
 108 217 l 1,5,6
 85 254 85 254 85 300 c 0,7,8
 85 374 85 374 131 427 c 1,9,-1
 109 450 l 1,10,11
 100 461 100 461 100 470 c 128,-1,12
 100 479 100 479 109 489 c 128,-1,13
 118 499 118 499 131 499 c 128,-1,14
 144 499 144 499 151 489 c 1,15,-1
 173 465 l 1,16,17
 224 500 224 500 281 500 c 128,-1,18
 338 500 338 500 382 466 c 1,19,-1
 408 490 l 2,20,21
 420 500 420 500 429 500 c 128,-1,22
 438 500 438 500 447 491.5 c 128,-1,23
 456 483 456 483 456 472.5 c 128,-1,24
 456 462 456 462 443 450 c 2,25,-1
 416 426 l 1,26,27
 442 385 442 385 442 339 c 0,28,29
 442 270 442 270 394 217 c 1,30,-1
 416 193 l 2,31,32
 425 182 425 182 425 172 c 1,33,34
 423 163 423 163 413 153 c 128,-1,35
 403 143 403 143 392 143 c 128,-1,36
 381 143 381 143 373 154 c 1,37,-1
 351 178 l 1,38,39
 301 145 301 145 243 145 c 128,-1,40
 185 145 185 145 143 178 c 1,41,-1
 116 153 l 2,42,0
 105 143 105 143 94 143 c 128,-1,1
175.5 235.5 m 128,-1,44
 205 206 205 206 253 206 c 128,-1,45
 301 206 301 206 340.5 244 c 128,-1,46
 380 282 380 282 380 330 c 128,-1,47
 380 378 380 378 350 408.5 c 128,-1,48
 320 439 320 439 271.5 439 c 128,-1,49
 223 439 223 439 184.5 400 c 128,-1,50
 146 361 146 361 146 313 c 128,-1,43
 146 265 146 265 175.5 235.5 c 128,-1,44
EndSplineSet
EndChar

StartChar: yen
Encoding: 165 165 103
Width: 559
GlyphClass: 2
Flags: W
LayerCount: 2
Fore
SplineSet
73 422 m 2,0,-1
 199 422 l 1,1,-1
 59 667 l 2,2,3
 53 676 53 676 53 683 c 0,4,5
 53 702 53 702 100 702 c 2,6,-1
 111 702 l 2,7,8
 144 702 144 702 153 687 c 2,9,-1
 291 441 l 1,10,-1
 485 688 l 2,11,12
 495 702 495 702 535.5 702 c 128,-1,13
 576 702 576 702 576 686 c 0,14,15
 576 681 576 681 566 667 c 2,16,-1
 374 422 l 1,17,-1
 501 422 l 2,18,19
 517 422 517 422 517 397 c 0,20,21
 517 355 517 355 494 355 c 2,22,-1
 323 355 l 1,23,-1
 313 259 l 1,24,-1
 484 259 l 2,25,26
 500 259 500 259 500 234 c 0,27,28
 500 192 500 192 477 192 c 2,29,-1
 306 192 l 1,30,-1
 288 20 l 2,31,32
 285 -2 285 -2 246 -2 c 2,33,-1
 238 -2 l 2,34,35
 200 -2 200 -2 200 20 c 1,36,-1
 218 192 l 1,37,-1
 49 192 l 2,38,39
 33 192 33 192 33 217 c 0,40,41
 33 259 33 259 56 259 c 2,42,-1
 225 259 l 1,43,-1
 234 355 l 1,44,-1
 66 355 l 2,45,46
 50 355 50 355 50 380 c 0,47,48
 50 422 50 422 73 422 c 2,0,-1
EndSplineSet
EndChar

StartChar: brokenbar
Encoding: 166 166 104
Width: 250
GlyphClass: 2
Flags: W
LayerCount: 2
Fore
SplineSet
167 770 m 2,0,-1
 177 770 l 2,1,2
 199 770 199 770 199 748 c 1,3,-1
 165 425 l 2,4,5
 162 403 162 403 139 403 c 2,6,-1
 129 403 l 2,7,8
 107 403 107 403 107 425 c 1,9,-1
 141 748 l 2,10,11
 143 770 143 770 167 770 c 2,0,-1
110 226 m 2,12,-1
 120 226 l 2,13,14
 142 226 142 226 142 204 c 1,15,-1
 108 -118 l 2,16,17
 105 -140 105 -140 82 -140 c 2,18,-1
 72 -140 l 2,19,20
 50 -140 50 -140 50 -118 c 1,21,-1
 84 204 l 2,22,23
 86 226 86 226 110 226 c 2,12,-1
EndSplineSet
EndChar

StartChar: section
Encoding: 167 167 105
Width: 429
GlyphClass: 2
Flags: W
LayerCount: 2
Fore
SplineSet
167 -6 m 0,0,1
 125 -6 125 -6 87.5 6 c 128,-1,2
 50 18 50 18 50 41 c 0,3,4
 50 95 50 95 66 95 c 0,5,6
 69 95 69 95 83 88 c 0,7,8
 123 66 123 66 165.5 66 c 128,-1,9
 208 66 208 66 231.5 84.5 c 128,-1,10
 255 103 255 103 255 129.5 c 128,-1,11
 255 156 255 156 234 171.5 c 128,-1,12
 213 187 213 187 182.5 196 c 128,-1,13
 152 205 152 205 121.5 218 c 128,-1,14
 91 231 91 231 70 261 c 128,-1,15
 49 291 49 291 49 338 c 0,16,17
 49 421 49 421 116 474 c 1,18,19
 86 502 86 502 86 549 c 0,20,21
 86 627 86 627 139.5 666.5 c 128,-1,22
 193 706 193 706 262 706 c 0,23,24
 305 706 305 706 345 694 c 128,-1,25
 385 682 385 682 385 658 c 0,26,27
 385 648 385 648 372.5 629 c 128,-1,28
 360 610 360 610 349 610 c 0,29,30
 348 610 348 610 336 616 c 0,31,32
 300 634 300 634 259.5 634 c 128,-1,33
 219 634 219 634 196.5 615.5 c 128,-1,34
 174 597 174 597 174 570 c 128,-1,35
 174 543 174 543 195 528.5 c 128,-1,36
 216 514 216 514 246 505 c 128,-1,37
 276 496 276 496 306.5 483.5 c 128,-1,38
 337 471 337 471 358 441.5 c 128,-1,39
 379 412 379 412 379 366 c 0,40,41
 379 278 379 278 311 227 c 1,42,43
 342 198 342 198 342 154 c 0,44,45
 342 74 342 74 289 34 c 128,-1,46
 236 -6 236 -6 167 -6 c 0,0,1
274.5 293.5 m 128,-1,48
 293 315 293 315 293 351 c 128,-1,49
 293 387 293 387 269.5 404 c 128,-1,50
 246 421 246 421 199 435 c 1,51,52
 134 417 134 417 134 349 c 0,53,54
 134 313 134 313 157.5 296.5 c 128,-1,55
 181 280 181 280 229 266 c 1,56,47
 256 272 256 272 274.5 293.5 c 128,-1,48
EndSplineSet
EndChar

StartChar: dieresis
Encoding: 168 168 106
Width: 320
GlyphClass: 2
Flags: W
LayerCount: 2
Fore
SplineSet
235 702 m 2,0,-1
 239 702 l 2,1,2
 277 702 277 702 277 680 c 1,3,-1
 272 629 l 2,4,5
 269 607 269 607 230 607 c 2,6,-1
 226 607 l 2,7,8
 188 607 188 607 188 629 c 1,9,-1
 193 680 l 2,10,11
 195 702 195 702 235 702 c 2,0,-1
91 702 m 2,12,-1
 95 702 l 2,13,14
 133 702 133 702 133 680 c 1,15,-1
 128 629 l 2,16,17
 125 607 125 607 86 607 c 2,18,-1
 82 607 l 2,19,20
 44 607 44 607 44 629 c 1,21,-1
 49 680 l 2,22,23
 52 702 52 702 91 702 c 2,12,-1
EndSplineSet
EndChar

StartChar: copyright
Encoding: 169 169 107
Width: 739
GlyphClass: 2
Flags: W
LayerCount: 2
Fore
SplineSet
10 352 m 128,-1,1
 10 501 10 501 114.5 604.5 c 128,-1,2
 219 708 219 708 369 708 c 128,-1,3
 519 708 519 708 624 604.5 c 128,-1,4
 729 501 729 501 729 352 c 128,-1,5
 729 203 729 203 623.5 98 c 128,-1,6
 518 -7 518 -7 369 -7 c 128,-1,7
 220 -7 220 -7 115 98 c 128,-1,0
 10 203 10 203 10 352 c 128,-1,1
149 570.5 m 128,-1,9
 58 481 58 481 58 352.5 c 128,-1,10
 58 224 58 224 149.5 132.5 c 128,-1,11
 241 41 241 41 369.5 41 c 128,-1,12
 498 41 498 41 589.5 132.5 c 128,-1,13
 681 224 681 224 681 352.5 c 128,-1,14
 681 481 681 481 589.5 570.5 c 128,-1,15
 498 660 498 660 369 660 c 128,-1,8
 240 660 240 660 149 570.5 c 128,-1,9
385 135 m 0,16,17
 287 135 287 135 240 187 c 128,-1,18
 193 239 193 239 193 347 c 0,19,20
 193 560 193 560 387 560 c 0,21,22
 430 560 430 560 465.5 548 c 128,-1,23
 501 536 501 536 501 523 c 0,24,25
 501 515 501 515 493.5 501.5 c 128,-1,26
 486 488 486 488 480 488 c 0,27,28
 479 488 479 488 468 495 c 0,29,30
 435 515 435 515 388 515 c 0,31,32
 316 515 316 515 281.5 474.5 c 128,-1,33
 247 434 247 434 247 347.5 c 128,-1,34
 247 261 247 261 281 220.5 c 128,-1,35
 315 180 315 180 385 180 c 0,36,37
 434 180 434 180 473 202 c 0,38,39
 486 210 486 210 488 210 c 0,40,41
 494 210 494 210 501.5 197 c 128,-1,42
 509 184 509 184 509 178 c 0,43,44
 509 165 509 165 471.5 150 c 128,-1,45
 434 135 434 135 385 135 c 0,16,17
EndSplineSet
EndChar

StartChar: ordfeminine
Encoding: 170 170 108
Width: 319
GlyphClass: 2
Flags: W
LayerCount: 2
Fore
SplineSet
262 478 m 1,0,-1
 275 480 l 2,1,2
 278 480 278 480 278 474.5 c 128,-1,3
 278 469 278 469 276 458 c 0,4,5
 273 442 273 442 247 442 c 0,6,7
 202 442 202 442 202 490 c 2,8,-1
 202 495 l 1,9,10
 174 442 174 442 123 442 c 0,11,12
 91 442 91 442 64.5 466.5 c 128,-1,13
 38 491 38 491 38 554.5 c 128,-1,14
 38 618 38 618 71.5 662 c 128,-1,15
 105 706 105 706 161 706 c 0,16,17
 198 706 198 706 227 679 c 1,18,19
 234 704 234 704 249 704 c 2,20,-1
 253 704 l 2,21,22
 264 704 264 704 264 694 c 1,23,24
 244 511 244 511 244 500 c 128,-1,25
 244 489 244 489 247 484 c 0,26,27
 251 478 251 478 262 478 c 1,0,-1
165 670 m 0,28,29
 81 670 81 670 81 552 c 0,30,31
 81 478 81 478 132 478 c 0,32,33
 152 478 152 478 173.5 497.5 c 128,-1,34
 195 517 195 517 208 561 c 1,35,-1
 215 626 l 2,36,37
 217 644 217 644 219 651 c 1,38,39
 192 670 192 670 165 670 c 0,28,29
EndSplineSet
EndChar

StartChar: guillemotleft
Encoding: 171 171 109
Width: 471
GlyphClass: 2
Flags: W
LayerCount: 2
Fore
SplineSet
226 230 m 2,0,1
 216 244 216 244 216 257 c 128,-1,2
 216 270 216 270 231 286 c 2,3,-1
 378 442 l 2,4,5
 390 454 390 454 400 454 c 128,-1,6
 410 454 410 454 421.5 444.5 c 128,-1,7
 433 435 433 435 433 426.5 c 128,-1,8
 433 418 433 418 423 402 c 1,9,-1
 297 258 l 1,10,-1
 392 113 l 2,11,12
 398 104 398 104 398 96 c 128,-1,13
 398 88 398 88 385.5 74.5 c 128,-1,14
 373 61 373 61 361 61 c 128,-1,15
 349 61 349 61 339 74 c 2,16,-1
 226 230 l 2,0,1
54 230 m 2,17,18
 44 244 44 244 44 257 c 128,-1,19
 44 270 44 270 59 286 c 2,20,-1
 206 442 l 2,21,22
 218 454 218 454 228 454 c 128,-1,23
 238 454 238 454 249.5 444.5 c 128,-1,24
 261 435 261 435 261 426.5 c 128,-1,25
 261 418 261 418 251 402 c 1,26,-1
 125 258 l 1,27,-1
 220 113 l 2,28,29
 226 104 226 104 226 96 c 128,-1,30
 226 88 226 88 213.5 74.5 c 128,-1,31
 201 61 201 61 189 61 c 128,-1,32
 177 61 177 61 167 74 c 2,33,-1
 54 230 l 2,17,18
EndSplineSet
EndChar

StartChar: logicalnot
Encoding: 172 172 110
Width: 560
GlyphClass: 2
Flags: W
LayerCount: 2
Fore
SplineSet
46 285 m 0,0,1
 46 338 46 338 71 338 c 2,2,-1
 505 338 l 2,3,4
 521 338 521 338 526.5 331 c 128,-1,5
 532 324 532 324 532 308 c 1,6,-1
 510 99 l 2,7,8
 507 77 507 77 478 77 c 2,9,-1
 465 77 l 2,10,11
 437 77 437 77 437 99 c 1,12,-1
 455 265 l 1,13,-1
 64 265 l 2,14,15
 46 265 46 265 46 285 c 0,0,1
EndSplineSet
EndChar

StartChar: uni00AD
Encoding: 173 173 111
Width: 320
GlyphClass: 2
Flags: W
LayerCount: 2
Fore
SplineSet
65 301 m 2,0,-1
 259 301 l 2,1,2
 276 301 276 301 276 274 c 0,3,4
 276 229 276 229 251 229 c 2,5,-1
 57 229 l 2,6,7
 40 229 40 229 40 256 c 0,8,9
 40 301 40 301 65 301 c 2,0,-1
EndSplineSet
EndChar

StartChar: registered
Encoding: 174 174 112
Width: 739
GlyphClass: 2
Flags: W
LayerCount: 2
Fore
SplineSet
10 353 m 128,-1,1
 10 502 10 502 114.5 605.5 c 128,-1,2
 219 709 219 709 369 709 c 128,-1,3
 519 709 519 709 624 605.5 c 128,-1,4
 729 502 729 502 729 353 c 128,-1,5
 729 204 729 204 623.5 99 c 128,-1,6
 518 -6 518 -6 369 -6 c 128,-1,7
 220 -6 220 -6 115 99 c 128,-1,0
 10 204 10 204 10 353 c 128,-1,1
149 571.5 m 128,-1,9
 58 482 58 482 58 353.5 c 128,-1,10
 58 225 58 225 149.5 133.5 c 128,-1,11
 241 42 241 42 369.5 42 c 128,-1,12
 498 42 498 42 589.5 133.5 c 128,-1,13
 681 225 681 225 681 353.5 c 128,-1,14
 681 482 681 482 589.5 571.5 c 128,-1,15
 498 661 498 661 369 661 c 128,-1,8
 240 661 240 661 149 571.5 c 128,-1,9
249 157 m 2,16,-1
 249 540 l 2,17,18
 249 558 249 558 267 558 c 2,19,-1
 366 558 l 2,20,21
 508 558 508 558 508 454 c 0,22,23
 508 382 508 382 440 355 c 1,24,-1
 440 351 l 1,25,26
 457 345 457 345 468 328.5 c 128,-1,27
 479 312 479 312 493 278 c 2,28,-1
 539 162 l 1,29,30
 541 154 541 154 541 153 c 0,31,32
 541 144 541 144 516 144 c 2,33,-1
 510 144 l 2,34,35
 491 144 491 144 487 153 c 2,36,-1
 442 269 l 2,37,38
 429 303 429 303 409.5 315 c 128,-1,39
 390 327 390 327 354 327 c 2,40,-1
 301 327 l 1,41,-1
 301 157 l 2,42,43
 301 144 301 144 277 144 c 2,44,-1
 273 144 l 2,45,46
 249 144 249 144 249 157 c 2,16,-1
301 372 m 1,47,-1
 379 372 l 2,48,49
 410 372 410 372 432 393.5 c 128,-1,50
 454 415 454 415 454 444 c 0,51,52
 454 513 454 513 375 513 c 2,53,-1
 301 513 l 1,54,-1
 301 372 l 1,47,-1
EndSplineSet
EndChar

StartChar: macron
Encoding: 175 175 113
Width: 320
GlyphClass: 2
Flags: W
LayerCount: 2
Fore
SplineSet
48 683 m 2,0,-1
 274 683 l 2,1,2
 291 683 291 683 291 657 c 0,3,4
 291 612 291 612 266 612 c 2,5,-1
 40 612 l 2,6,7
 23 612 23 612 23 639 c 0,8,9
 23 683 23 683 48 683 c 2,0,-1
EndSplineSet
EndChar

StartChar: degree
Encoding: 176 176 114
Width: 345
GlyphClass: 2
Flags: W
LayerCount: 2
Fore
SplineSet
69.5 475 m 128,-1,1
 36 509 36 509 36 565.5 c 128,-1,2
 36 622 36 622 78 664 c 128,-1,3
 120 706 120 706 177 706 c 128,-1,4
 234 706 234 706 268.5 671.5 c 128,-1,5
 303 637 303 637 303 581 c 128,-1,6
 303 525 303 525 260 483 c 128,-1,7
 217 441 217 441 160 441 c 128,-1,0
 103 441 103 441 69.5 475 c 128,-1,1
232 638 m 128,-1,9
 211 661 211 661 175.5 661 c 128,-1,10
 140 661 140 661 112.5 631.5 c 128,-1,11
 85 602 85 602 85 566.5 c 128,-1,12
 85 531 85 531 106.5 508.5 c 128,-1,13
 128 486 128 486 163 486 c 128,-1,14
 198 486 198 486 225.5 513.5 c 128,-1,15
 253 541 253 541 253 578 c 128,-1,8
 253 615 253 615 232 638 c 128,-1,9
EndSplineSet
EndChar

StartChar: plusminus
Encoding: 177 177 115
Width: 560
GlyphClass: 2
Flags: W
LayerCount: 2
Fore
SplineSet
81 327 m 2,0,1
 54 327 54 327 54 357 c 1,2,-1
 55 364 l 1,3,4
 58 394 58 394 88 394 c 2,5,-1
 257 394 l 1,6,-1
 275 563 l 2,7,8
 278 593 278 593 308 593 c 2,9,-1
 315 593 l 2,10,11
 342 593 342 593 342 563 c 1,12,-1
 324 394 l 1,13,-1
 492 394 l 2,14,15
 519 394 519 394 519 364 c 1,16,-1
 518 357 l 1,17,18
 515 327 515 327 485 327 c 2,19,-1
 317 327 l 1,20,-1
 299 159 l 2,21,22
 296 129 296 129 266 129 c 2,23,-1
 259 129 l 2,24,25
 232 129 232 129 232 159 c 1,26,-1
 250 327 l 1,27,-1
 81 327 l 2,0,1
44 73 m 2,28,-1
 468 73 l 2,29,30
 495 73 495 73 495 43 c 1,31,-1
 493 30 l 2,32,33
 488 0 488 0 460 0 c 2,34,-1
 36 0 l 2,35,36
 21 0 21 0 15 7 c 128,-1,37
 9 14 9 14 9 30 c 1,38,-1
 11 43 l 2,39,40
 16 73 16 73 44 73 c 2,28,-1
EndSplineSet
EndChar

StartChar: twosuperior
Encoding: 178 178 116
Width: 320
GlyphClass: 2
Flags: W
LayerCount: 2
Fore
SplineSet
251 341 m 2,0,1
 261 341 261 341 261 320 c 128,-1,2
 261 299 261 299 246 299 c 2,3,-1
 31 299 l 2,4,5
 27 299 27 299 23 310 c 128,-1,6
 19 321 19 321 19 327 c 128,-1,7
 19 333 19 333 20 334 c 2,8,-1
 198 531 l 2,9,10
 237 574 237 574 237 612 c 0,11,12
 237 636 237 636 219.5 650 c 128,-1,13
 202 664 202 664 175 664 c 128,-1,14
 148 664 148 664 127.5 657 c 128,-1,15
 107 650 107 650 95.5 642.5 c 128,-1,16
 84 635 84 635 80.5 635 c 128,-1,17
 77 635 77 635 71.5 645.5 c 128,-1,18
 66 656 66 656 66 663 c 0,19,20
 66 680 66 680 104 693 c 128,-1,21
 142 706 142 706 184 706 c 128,-1,22
 226 706 226 706 256.5 682.5 c 128,-1,23
 287 659 287 659 287 620 c 0,24,25
 287 563 287 563 240 512 c 2,26,-1
 85 341 l 1,27,-1
 251 341 l 2,0,1
EndSplineSet
EndChar

StartChar: threesuperior
Encoding: 179 179 117
Width: 320
GlyphClass: 2
Flags: W
LayerCount: 2
Fore
SplineSet
136 534 m 2,0,-1
 152 534 l 2,1,2
 195 534 195 534 216 561 c 128,-1,3
 237 588 237 588 237 615 c 0,4,5
 237 665 237 665 174 665 c 0,6,7
 132 665 132 665 112 655.5 c 128,-1,8
 92 646 92 646 88.5 646 c 128,-1,9
 85 646 85 646 79 657 c 128,-1,10
 73 668 73 668 73 675 c 0,11,12
 73 687 73 687 111 696.5 c 128,-1,13
 149 706 149 706 189 706 c 128,-1,14
 229 706 229 706 257.5 683.5 c 128,-1,15
 286 661 286 661 286 622.5 c 128,-1,16
 286 584 286 584 267 559.5 c 128,-1,17
 248 535 248 535 218 525 c 1,18,-1
 217 522 l 1,19,20
 243 515 243 515 261.5 491.5 c 128,-1,21
 280 468 280 468 280 431 c 0,22,23
 280 363 280 363 235.5 329.5 c 128,-1,24
 191 296 191 296 138 296 c 0,25,26
 79 296 79 296 60 306 c 128,-1,27
 41 316 41 316 41 325 c 0,28,29
 41 359 41 359 50 359 c 1,30,-1
 62 354 l 1,31,32
 96 337 96 337 134.5 337 c 128,-1,33
 173 337 173 337 201.5 359 c 128,-1,34
 230 381 230 381 230 431 c 0,35,36
 230 493 230 493 151 493 c 2,37,-1
 131 493 l 2,38,39
 121 493 121 493 121 513.5 c 128,-1,40
 121 534 121 534 136 534 c 2,0,-1
EndSplineSet
EndChar

StartChar: acute
Encoding: 180 180 118
Width: 320
GlyphClass: 2
Flags: W
LayerCount: 2
Fore
SplineSet
201 752 m 128,-1,1
 248 752 248 752 248 740.5 c 128,-1,2
 248 729 248 729 141 622 c 0,3,4
 124 605 124 605 95.5 605 c 128,-1,5
 67 605 67 605 67 614 c 0,6,7
 67 626 67 626 136 726 c 0,8,0
 154 752 154 752 201 752 c 128,-1,1
EndSplineSet
EndChar

StartChar: mu
Encoding: 181 181 119
Width: 566
GlyphClass: 2
Flags: W
LayerCount: 2
Fore
SplineSet
513 66 m 1,0,-1
 540 71 l 1,1,2
 546 71 546 71 546 60 c 128,-1,3
 546 49 546 49 542.5 29.5 c 128,-1,4
 539 10 539 10 519.5 2 c 128,-1,5
 500 -6 500 -6 482 -6 c 0,6,7
 392 -6 392 -6 392 92 c 2,8,-1
 392 102 l 1,9,10
 320 -6 320 -6 214 -6 c 0,11,12
 184 -6 184 -6 153 3 c 1,13,-1
 133 -186 l 2,14,15
 130 -208 130 -208 91 -208 c 2,16,-1
 87 -208 l 2,17,18
 49 -208 49 -208 49 -187 c 1,19,-1
 120 503 l 2,20,21
 123 525 123 525 162 525 c 2,22,-1
 166 525 l 2,23,24
 204 525 204 525 204 503 c 1,25,26
 168 158 168 158 168 144 c 0,27,28
 168 67 168 67 244 67 c 0,29,30
 286 67 286 67 330.5 106 c 128,-1,31
 375 145 375 145 404 237 c 1,32,-1
 432 503 l 2,33,34
 435 525 435 525 474 525 c 2,35,-1
 478 525 l 2,36,37
 516 525 516 525 516 503 c 1,38,39
 477 137 477 137 477 114.5 c 128,-1,40
 477 92 477 92 480 83 c 128,-1,41
 483 74 483 74 490 71 c 0,42,43
 500 66 500 66 513 66 c 1,0,-1
EndSplineSet
EndChar

StartChar: paragraph
Encoding: 182 182 120
Width: 515
GlyphClass: 2
Flags: W
LayerCount: 2
Fore
SplineSet
61 450 m 0,0,1
 61 564 61 564 135 632 c 128,-1,2
 209 700 209 700 313 700 c 2,3,-1
 526 700 l 2,4,5
 537 700 537 700 540.5 695.5 c 128,-1,6
 544 691 544 691 544 680 c 2,7,-1
 542 658 l 2,8,9
 541 638 541 638 520 638 c 2,10,-1
 484 638 l 1,11,-1
 401 -151 l 2,12,13
 398 -173 398 -173 379 -173 c 2,14,-1
 357 -173 l 2,15,16
 339 -173 339 -173 339 -151 c 1,17,-1
 422 638 l 1,18,-1
 344 638 l 1,19,-1
 261 -151 l 2,20,21
 258 -173 258 -173 239 -173 c 2,22,-1
 217 -173 l 2,23,24
 199 -173 199 -173 199 -151 c 1,25,-1
 241 247 l 1,26,27
 162 256 162 256 111.5 313 c 128,-1,28
 61 370 61 370 61 450 c 0,0,1
EndSplineSet
EndChar

StartChar: periodcentered
Encoding: 183 183 121
Width: 267
GlyphClass: 2
Flags: W
LayerCount: 2
Fore
SplineSet
102 321.5 m 128,-1,1
 89 334 89 334 89 356.5 c 128,-1,2
 89 379 89 379 105 395.5 c 128,-1,3
 121 412 121 412 143.5 412 c 128,-1,4
 166 412 166 412 179 399 c 128,-1,5
 192 386 192 386 192 363 c 128,-1,6
 192 340 192 340 175.5 324.5 c 128,-1,7
 159 309 159 309 137 309 c 128,-1,0
 115 309 115 309 102 321.5 c 128,-1,1
EndSplineSet
EndChar

StartChar: cedilla
Encoding: 184 184 122
Width: 320
GlyphClass: 2
Flags: W
LayerCount: 2
Fore
SplineSet
148 -210 m 0,0,1
 89 -210 89 -210 62 -190 c 0,2,3
 51 -182 51 -182 51 -169 c 0,4,5
 51 -136 51 -136 63 -136 c 1,6,-1
 73 -142 l 2,7,8
 105 -161 105 -161 141 -161 c 0,9,10
 201 -161 201 -161 201 -121 c 0,11,12
 201 -108 201 -108 191.5 -100.5 c 128,-1,13
 182 -93 182 -93 171 -90 c 0,14,15
 141 -84 141 -84 141 -69 c 0,16,17
 141 -68 141 -68 145 -56 c 2,18,-1
 168 0 l 1,19,-1
 211 0 l 1,20,-1
 191 -49 l 1,21,-1
 195 -49 l 2,22,23
 210 -49 210 -49 225 -52 c 128,-1,24
 240 -55 240 -55 256.5 -70.5 c 128,-1,25
 273 -86 273 -86 273 -111 c 0,26,27
 273 -210 273 -210 148 -210 c 0,0,1
EndSplineSet
EndChar

StartChar: onesuperior
Encoding: 185 185 123
Width: 217
GlyphClass: 2
Flags: W
LayerCount: 2
Fore
SplineSet
63 633 m 1,0,1
 54 633 54 633 54 652 c 128,-1,2
 54 671 54 671 66 673 c 1,3,-1
 175 702 l 1,4,5
 192 702 192 702 192 690 c 1,6,-1
 152 309 l 2,7,8
 150 297 150 297 129 297 c 2,9,-1
 125 297 l 2,10,11
 104 297 104 297 104 309 c 1,12,-1
 140 650 l 1,13,-1
 63 633 l 1,0,1
EndSplineSet
EndChar

StartChar: ordmasculine
Encoding: 186 186 124
Width: 337
GlyphClass: 2
Flags: W
LayerCount: 2
Fore
SplineSet
156 441 m 0,0,1
 53 441 53 441 53 547 c 0,2,3
 53 642 53 642 99 677 c 0,4,5
 137 706 137 706 183 706 c 0,6,7
 282 706 282 706 282 600 c 0,8,9
 282 441 282 441 156 441 c 0,0,1
157 477 m 0,10,11
 239 477 239 477 239 598 c 0,12,13
 239 670 239 670 178 670 c 0,14,15
 96 670 96 670 96 549 c 0,16,17
 96 510 96 510 111 493.5 c 128,-1,18
 126 477 126 477 157 477 c 0,10,11
EndSplineSet
EndChar

StartChar: guillemotright
Encoding: 187 187 125
Width: 471
GlyphClass: 2
Flags: W
LayerCount: 2
Fore
SplineSet
263 74 m 2,0,1
 250 61 250 61 239.5 61 c 128,-1,2
 229 61 229 61 218.5 72 c 128,-1,3
 208 83 208 83 208 91 c 128,-1,4
 208 99 208 99 218 113 c 1,5,-1
 345 258 l 1,6,-1
 249 402 l 2,7,8
 243 411 243 411 243 421.5 c 128,-1,9
 243 432 243 432 256.5 443 c 128,-1,10
 270 454 270 454 281.5 454 c 128,-1,11
 293 454 293 454 302 442 c 2,12,-1
 415 286 l 2,13,14
 426 271 426 271 425.5 258.5 c 128,-1,15
 425 246 425 246 410 230 c 2,16,-1
 263 74 l 2,0,1
91 74 m 2,17,18
 78 61 78 61 67.5 61 c 128,-1,19
 57 61 57 61 46.5 72 c 128,-1,20
 36 83 36 83 36 91 c 128,-1,21
 36 99 36 99 46 113 c 1,22,-1
 173 258 l 1,23,-1
 77 402 l 2,24,25
 71 411 71 411 71 421.5 c 128,-1,26
 71 432 71 432 84.5 443 c 128,-1,27
 98 454 98 454 109.5 454 c 128,-1,28
 121 454 121 454 130 442 c 2,29,-1
 243 286 l 2,30,31
 254 271 254 271 253.5 258.5 c 128,-1,32
 253 246 253 246 238 230 c 2,33,-1
 91 74 l 2,17,18
EndSplineSet
EndChar

StartChar: onequarter
Encoding: 188 188 126
Width: 671
GlyphClass: 2
Flags: W
LayerCount: 2
Fore
SplineSet
567 703 m 2,0,-1
 580 703 l 2,1,2
 593 703 593 703 593 697 c 0,3,4
 593 694 593 694 588 687 c 2,5,-1
 111 14 l 2,6,7
 100 -2 100 -2 79 -2 c 2,8,-1
 66 -2 l 2,9,10
 53 -2 53 -2 53 3.5 c 128,-1,11
 53 9 53 9 58 14 c 1,12,-1
 535 687 l 2,13,14
 546 703 546 703 567 703 c 2,0,-1
81 633 m 1,15,16
 72 633 72 633 72 652 c 128,-1,17
 72 671 72 671 84 673 c 1,18,-1
 193 702 l 1,19,20
 210 702 210 702 210 690 c 1,21,-1
 170 309 l 2,22,23
 168 297 168 297 147 297 c 2,24,-1
 143 297 l 2,25,26
 122 297 122 297 122 309 c 1,27,-1
 158 650 l 1,28,-1
 81 633 l 1,15,16
593 128 m 2,29,30
 603 128 603 128 603 107.5 c 128,-1,31
 603 87 603 87 588 87 c 2,32,-1
 550 87 l 1,33,-1
 542 11 l 2,34,35
 540 -2 540 -2 524 -2 c 2,36,-1
 511 -2 l 2,37,38
 494 -2 494 -2 494 11 c 1,39,-1
 502 87 l 1,40,-1
 327 87 l 2,41,42
 323 87 323 87 319.5 95 c 128,-1,43
 316 103 316 103 316 110.5 c 128,-1,44
 316 118 316 118 318 122 c 2,45,-1
 537 396 l 2,46,47
 543 404 543 404 557 404 c 2,48,-1
 566 404 l 2,49,50
 582 404 582 404 582 391 c 1,51,-1
 554 128 l 1,52,-1
 593 128 l 2,29,30
374 128 m 1,53,-1
 506 128 l 1,54,-1
 527 320 l 1,55,-1
 524 321 l 1,56,-1
 374 128 l 1,53,-1
EndSplineSet
EndChar

StartChar: onehalf
Encoding: 189 189 127
Width: 746
GlyphClass: 2
Flags: W
LayerCount: 2
Fore
SplineSet
567 703 m 2,0,-1
 580 703 l 2,1,2
 593 703 593 703 593 697 c 0,3,4
 593 694 593 694 588 687 c 2,5,-1
 111 14 l 2,6,7
 100 -2 100 -2 79 -2 c 2,8,-1
 66 -2 l 2,9,10
 53 -2 53 -2 53 3.5 c 128,-1,11
 53 9 53 9 58 14 c 1,12,-1
 535 687 l 2,13,14
 546 703 546 703 567 703 c 2,0,-1
81 633 m 1,15,16
 72 633 72 633 72 652 c 128,-1,17
 72 671 72 671 84 673 c 1,18,-1
 193 702 l 1,19,20
 210 702 210 702 210 690 c 1,21,-1
 170 309 l 2,22,23
 168 297 168 297 147 297 c 2,24,-1
 143 297 l 2,25,26
 122 297 122 297 122 309 c 1,27,-1
 158 650 l 1,28,-1
 81 633 l 1,15,16
645 42 m 2,29,30
 655 42 655 42 655 21 c 128,-1,31
 655 0 655 0 640 0 c 2,32,-1
 425 0 l 2,33,34
 421 0 421 0 417 11 c 128,-1,35
 413 22 413 22 413 28 c 128,-1,36
 413 34 413 34 414 35 c 2,37,-1
 592 232 l 2,38,39
 631 275 631 275 631 313 c 0,40,41
 631 337 631 337 613.5 351 c 128,-1,42
 596 365 596 365 569 365 c 128,-1,43
 542 365 542 365 521.5 357.5 c 128,-1,44
 501 350 501 350 489.5 343 c 128,-1,45
 478 336 478 336 474.5 336 c 128,-1,46
 471 336 471 336 465.5 346.5 c 128,-1,47
 460 357 460 357 460 364 c 0,48,49
 460 381 460 381 498 394 c 128,-1,50
 536 407 536 407 578 407 c 128,-1,51
 620 407 620 407 650.5 383.5 c 128,-1,52
 681 360 681 360 681 321 c 0,53,54
 681 264 681 264 634 213 c 2,55,-1
 479 42 l 1,56,-1
 645 42 l 2,29,30
EndSplineSet
EndChar

StartChar: threequarters
Encoding: 190 190 128
Width: 738
GlyphClass: 2
Flags: W
LayerCount: 2
Fore
SplineSet
148 534 m 2,0,-1
 164 534 l 2,1,2
 207 534 207 534 228 561 c 128,-1,3
 249 588 249 588 249 615 c 0,4,5
 249 665 249 665 186 665 c 0,6,7
 144 665 144 665 124 655.5 c 128,-1,8
 104 646 104 646 100.5 646 c 128,-1,9
 97 646 97 646 91 657 c 128,-1,10
 85 668 85 668 85 675 c 0,11,12
 85 687 85 687 123 696.5 c 128,-1,13
 161 706 161 706 201 706 c 128,-1,14
 241 706 241 706 269.5 683.5 c 128,-1,15
 298 661 298 661 298 622.5 c 128,-1,16
 298 584 298 584 279 559.5 c 128,-1,17
 260 535 260 535 230 525 c 1,18,-1
 229 522 l 1,19,20
 255 515 255 515 273.5 491.5 c 128,-1,21
 292 468 292 468 292 431 c 0,22,23
 292 363 292 363 247.5 329.5 c 128,-1,24
 203 296 203 296 150 296 c 0,25,26
 91 296 91 296 72 306 c 128,-1,27
 53 316 53 316 53 325 c 0,28,29
 53 359 53 359 62 359 c 1,30,-1
 74 354 l 1,31,32
 108 337 108 337 146.5 337 c 128,-1,33
 185 337 185 337 213.5 359 c 128,-1,34
 242 381 242 381 242 431 c 0,35,36
 242 493 242 493 163 493 c 2,37,-1
 143 493 l 2,38,39
 133 493 133 493 133 513.5 c 128,-1,40
 133 534 133 534 148 534 c 2,0,-1
633 703 m 2,41,-1
 646 703 l 2,42,43
 659 703 659 703 659 697 c 0,44,45
 659 694 659 694 654 687 c 2,46,-1
 177 14 l 2,47,48
 166 -2 166 -2 145 -2 c 2,49,-1
 132 -2 l 2,50,51
 119 -2 119 -2 119 3.5 c 128,-1,52
 119 9 119 9 124 14 c 1,53,-1
 601 687 l 2,54,55
 612 703 612 703 633 703 c 2,41,-1
661 128 m 2,56,57
 671 128 671 128 671 107.5 c 128,-1,58
 671 87 671 87 656 87 c 2,59,-1
 618 87 l 1,60,-1
 610 11 l 2,61,62
 608 -2 608 -2 592 -2 c 2,63,-1
 579 -2 l 2,64,65
 562 -2 562 -2 562 11 c 1,66,-1
 570 87 l 1,67,-1
 395 87 l 2,68,69
 391 87 391 87 387.5 95 c 128,-1,70
 384 103 384 103 384 110.5 c 128,-1,71
 384 118 384 118 386 122 c 2,72,-1
 605 396 l 2,73,74
 611 404 611 404 625 404 c 2,75,-1
 634 404 l 2,76,77
 650 404 650 404 650 391 c 1,78,-1
 622 128 l 1,79,-1
 661 128 l 2,56,57
442 128 m 1,80,-1
 574 128 l 1,81,-1
 595 320 l 1,82,-1
 592 321 l 1,83,-1
 442 128 l 1,80,-1
EndSplineSet
EndChar

StartChar: questiondown
Encoding: 191 191 129
Width: 425
GlyphClass: 2
Flags: W
LayerCount: 2
Fore
SplineSet
328 415 m 2,0,-1
 311 415 l 2,1,2
 273 415 273 415 273 437 c 1,3,-1
 280 503 l 2,4,5
 282 525 282 525 323 525 c 2,6,-1
 340 525 l 2,7,8
 377 525 377 525 377 503 c 1,9,-1
 370 437 l 2,10,11
 368 415 368 415 328 415 c 2,0,-1
243 -109 m 0,12,13
 298 -109 298 -109 349 -84 c 0,14,15
 366 -75 366 -75 369 -75 c 0,16,17
 374 -75 374 -75 374 -92 c 128,-1,18
 374 -109 374 -109 369 -135.5 c 128,-1,19
 364 -162 364 -162 314 -172.5 c 128,-1,20
 264 -183 264 -183 219 -183 c 0,21,22
 130 -183 130 -183 81 -140.5 c 128,-1,23
 32 -98 32 -98 32 -33 c 0,24,25
 32 44 32 44 106 114 c 0,26,27
 137 144 137 144 169 172 c 0,28,29
 249 244 249 244 263 301 c 0,30,31
 268 321 268 321 298 321 c 2,32,-1
 313 321 l 2,33,34
 341 321 341 321 341 300 c 0,35,36
 341 268 341 268 312.5 224 c 128,-1,37
 284 180 284 180 240.5 141 c 128,-1,38
 197 102 197 102 178.5 83.5 c 128,-1,39
 160 65 160 65 143.5 36 c 128,-1,40
 127 7 127 7 127 -21 c 0,41,42
 127 -109 127 -109 243 -109 c 0,12,13
EndSplineSet
EndChar

StartChar: Agrave
Encoding: 192 192 130
Width: 613
GlyphClass: 2
Flags: W
LayerCount: 2
Fore
SplineSet
23 -2 m 2,0,-1
 18 -2 l 2,1,2
 -23 -2 -23 -2 -23 14 c 0,3,4
 -23 19 -23 19 -18 29 c 2,5,-1
 287 686 l 2,6,7
 294 702 294 702 328 702 c 2,8,-1
 357 702 l 2,9,10
 392 702 392 702 396 686 c 2,11,-1
 564 28 l 2,12,13
 565 24 565 24 565 18 c 0,14,15
 565 -2 565 -2 521 -2 c 2,16,-1
 513 -2 l 2,17,18
 478 -2 478 -2 474 14 c 2,19,-1
 432 178 l 1,20,-1
 138 178 l 1,21,-1
 64 14 l 2,22,23
 57 -2 57 -2 23 -2 c 2,0,-1
174 254 m 1,24,-1
 413 254 l 1,25,-1
 340 552 l 1,26,-1
 333 610 l 1,27,-1
 311 552 l 1,28,-1
 174 254 l 1,24,-1
423 794 m 0,29,30
 423 785 423 785 393.5 785 c 128,-1,31
 364 785 364 785 349 803 c 0,32,33
 261 903 261 903 258 909.5 c 128,-1,34
 255 916 255 916 255 920 c 0,35,36
 256 932 256 932 303 932 c 128,-1,37
 350 932 350 932 365 906 c 0,38,39
 423 807 423 807 423 794 c 0,29,30
EndSplineSet
EndChar

StartChar: Aacute
Encoding: 193 193 131
Width: 613
GlyphClass: 2
Flags: W
LayerCount: 2
Fore
SplineSet
23 -2 m 2,0,-1
 18 -2 l 2,1,2
 -23 -2 -23 -2 -23 14 c 0,3,4
 -23 19 -23 19 -18 29 c 2,5,-1
 287 686 l 2,6,7
 294 702 294 702 328 702 c 2,8,-1
 357 702 l 2,9,10
 392 702 392 702 396 686 c 2,11,-1
 564 28 l 2,12,13
 565 24 565 24 565 18 c 0,14,15
 565 -2 565 -2 521 -2 c 2,16,-1
 513 -2 l 2,17,18
 478 -2 478 -2 474 14 c 2,19,-1
 432 178 l 1,20,-1
 138 178 l 1,21,-1
 64 14 l 2,22,23
 57 -2 57 -2 23 -2 c 2,0,-1
174 254 m 1,24,-1
 413 254 l 1,25,-1
 340 552 l 1,26,-1
 333 610 l 1,27,-1
 311 552 l 1,28,-1
 174 254 l 1,24,-1
428 932 m 128,-1,30
 475 932 475 932 475 920.5 c 128,-1,31
 475 909 475 909 368 802 c 0,32,33
 351 785 351 785 322.5 785 c 128,-1,34
 294 785 294 785 294 794 c 0,35,36
 294 806 294 806 363 906 c 0,37,29
 381 932 381 932 428 932 c 128,-1,30
EndSplineSet
EndChar

StartChar: Acircumflex
Encoding: 194 194 132
Width: 613
GlyphClass: 2
Flags: W
LayerCount: 2
Fore
SplineSet
23 -2 m 2,0,-1
 18 -2 l 2,1,2
 -23 -2 -23 -2 -23 14 c 0,3,4
 -23 19 -23 19 -18 29 c 2,5,-1
 287 686 l 2,6,7
 294 702 294 702 328 702 c 2,8,-1
 357 702 l 2,9,10
 392 702 392 702 396 686 c 2,11,-1
 564 28 l 2,12,13
 565 24 565 24 565 18 c 0,14,15
 565 -2 565 -2 521 -2 c 2,16,-1
 513 -2 l 2,17,18
 478 -2 478 -2 474 14 c 2,19,-1
 432 178 l 1,20,-1
 138 178 l 1,21,-1
 64 14 l 2,22,23
 57 -2 57 -2 23 -2 c 2,0,-1
174 254 m 1,24,-1
 413 254 l 1,25,-1
 340 552 l 1,26,-1
 333 610 l 1,27,-1
 311 552 l 1,28,-1
 174 254 l 1,24,-1
351 906 m 2,29,-1
 376 906 l 2,30,31
 408 906 408 906 420 884 c 2,32,-1
 467 796 l 2,33,34
 472 788 472 788 471 776 c 128,-1,35
 470 764 470 764 447.5 764 c 128,-1,36
 425 764 425 764 412 777 c 1,37,-1
 357 851 l 1,38,-1
 288 777 l 1,39,40
 272 764 272 764 251 764 c 128,-1,41
 230 764 230 764 230 776 c 0,42,43
 230 785 230 785 237 796 c 2,44,-1
 303 884 l 2,45,46
 319 906 319 906 351 906 c 2,29,-1
EndSplineSet
EndChar

StartChar: Atilde
Encoding: 195 195 133
Width: 613
GlyphClass: 2
Flags: W
LayerCount: 2
Fore
SplineSet
23 -2 m 2,0,-1
 18 -2 l 2,1,2
 -23 -2 -23 -2 -23 14 c 0,3,4
 -23 19 -23 19 -18 29 c 2,5,-1
 287 686 l 2,6,7
 294 702 294 702 328 702 c 2,8,-1
 357 702 l 2,9,10
 392 702 392 702 396 686 c 2,11,-1
 564 28 l 2,12,13
 565 24 565 24 565 18 c 0,14,15
 565 -2 565 -2 521 -2 c 2,16,-1
 513 -2 l 2,17,18
 478 -2 478 -2 474 14 c 2,19,-1
 432 178 l 1,20,-1
 138 178 l 1,21,-1
 64 14 l 2,22,23
 57 -2 57 -2 23 -2 c 2,0,-1
174 254 m 1,24,-1
 413 254 l 1,25,-1
 340 552 l 1,26,-1
 333 610 l 1,27,-1
 311 552 l 1,28,-1
 174 254 l 1,24,-1
484.5 814 m 128,-1,30
 453 795 453 795 417.5 795 c 128,-1,31
 382 795 382 795 339.5 805 c 128,-1,32
 297 815 297 815 282 815 c 128,-1,33
 267 815 267 815 251.5 808.5 c 128,-1,34
 236 802 236 802 226 802 c 128,-1,35
 216 802 216 802 207 812.5 c 128,-1,36
 198 823 198 823 198 832 c 0,37,38
 198 851 198 851 232 869.5 c 128,-1,39
 266 888 266 888 300 888 c 128,-1,40
 334 888 334 888 374.5 878 c 128,-1,41
 415 868 415 868 431 868 c 128,-1,42
 447 868 447 868 462.5 874.5 c 128,-1,43
 478 881 478 881 487.5 881 c 128,-1,44
 497 881 497 881 506.5 870 c 128,-1,45
 516 859 516 859 516 851 c 0,46,29
 516 833 516 833 484.5 814 c 128,-1,30
EndSplineSet
EndChar

StartChar: Adieresis
Encoding: 196 196 134
Width: 613
GlyphClass: 2
Flags: W
LayerCount: 2
Fore
SplineSet
23 -2 m 2,0,-1
 18 -2 l 2,1,2
 -23 -2 -23 -2 -23 14 c 0,3,4
 -23 19 -23 19 -18 29 c 2,5,-1
 287 686 l 2,6,7
 294 702 294 702 328 702 c 2,8,-1
 357 702 l 2,9,10
 392 702 392 702 396 686 c 2,11,-1
 564 28 l 2,12,13
 565 24 565 24 565 18 c 0,14,15
 565 -2 565 -2 521 -2 c 2,16,-1
 513 -2 l 2,17,18
 478 -2 478 -2 474 14 c 2,19,-1
 432 178 l 1,20,-1
 138 178 l 1,21,-1
 64 14 l 2,22,23
 57 -2 57 -2 23 -2 c 2,0,-1
174 254 m 1,24,-1
 413 254 l 1,25,-1
 340 552 l 1,26,-1
 333 610 l 1,27,-1
 311 552 l 1,28,-1
 174 254 l 1,24,-1
431 882 m 2,29,-1
 435 882 l 2,30,31
 473 882 473 882 473 860 c 1,32,-1
 468 809 l 2,33,34
 465 787 465 787 426 787 c 2,35,-1
 422 787 l 2,36,37
 384 787 384 787 384 809 c 1,38,-1
 389 860 l 2,39,40
 391 882 391 882 431 882 c 2,29,-1
287 882 m 2,41,-1
 291 882 l 2,42,43
 329 882 329 882 329 860 c 1,44,-1
 324 809 l 2,45,46
 321 787 321 787 282 787 c 2,47,-1
 278 787 l 2,48,49
 240 787 240 787 240 809 c 1,50,-1
 245 860 l 2,51,52
 248 882 248 882 287 882 c 2,41,-1
EndSplineSet
EndChar

StartChar: Aring
Encoding: 197 197 135
Width: 613
GlyphClass: 2
Flags: W
LayerCount: 2
Fore
SplineSet
23 -2 m 2,0,-1
 18 -2 l 2,1,2
 -23 -2 -23 -2 -23 14 c 0,3,4
 -23 19 -23 19 -18 29 c 2,5,-1
 287 686 l 2,6,7
 294 702 294 702 328 702 c 2,8,-1
 357 702 l 2,9,10
 392 702 392 702 396 686 c 2,11,-1
 564 28 l 2,12,13
 565 24 565 24 565 18 c 0,14,15
 565 -2 565 -2 521 -2 c 2,16,-1
 513 -2 l 2,17,18
 478 -2 478 -2 474 14 c 2,19,-1
 432 178 l 1,20,-1
 138 178 l 1,21,-1
 64 14 l 2,22,23
 57 -2 57 -2 23 -2 c 2,0,-1
174 254 m 1,24,-1
 413 254 l 1,25,-1
 340 552 l 1,26,-1
 333 610 l 1,27,-1
 311 552 l 1,28,-1
 174 254 l 1,24,-1
413.5 771.5 m 128,-1,30
 386 744 386 744 350.5 744 c 128,-1,31
 315 744 315 744 293.5 765.5 c 128,-1,32
 272 787 272 787 272 822.5 c 128,-1,33
 272 858 272 858 300 885.5 c 128,-1,34
 328 913 328 913 363 913 c 128,-1,35
 398 913 398 913 419.5 891 c 128,-1,36
 441 869 441 869 441 834 c 128,-1,29
 441 799 441 799 413.5 771.5 c 128,-1,30
319 791.5 m 128,-1,38
 331 779 331 779 352.5 779 c 128,-1,39
 374 779 374 779 390 795 c 128,-1,40
 406 811 406 811 406 832 c 128,-1,41
 406 853 406 853 393.5 865.5 c 128,-1,42
 381 878 381 878 360.5 878 c 128,-1,43
 340 878 340 878 323.5 862 c 128,-1,44
 307 846 307 846 307 825 c 128,-1,37
 307 804 307 804 319 791.5 c 128,-1,38
EndSplineSet
EndChar

StartChar: AE
Encoding: 198 198 136
Width: 915
GlyphClass: 2
Flags: W
LayerCount: 2
Fore
SplineSet
770 0 m 2,0,-1
 478 0 l 2,1,2
 448 0 448 0 445 29 c 2,3,-1
 429 178 l 1,4,-1
 134 178 l 1,5,-1
 37 14 l 2,6,7
 27 -2 27 -2 -4 -2 c 2,8,-1
 -9 -2 l 2,9,10
 -47 -2 -47 -2 -47 13 c 0,11,12
 -47 20 -47 20 -41 31 c 2,13,-1
 347 673 l 2,14,15
 363 700 363 700 392 700 c 2,16,-1
 842 700 l 2,17,18
 859 700 859 700 859 678 c 0,19,20
 859 624 859 624 834 624 c 2,21,-1
 468 624 l 1,22,-1
 494 396 l 1,23,-1
 779 396 l 2,24,25
 796 396 796 396 796 374 c 0,26,27
 796 320 796 320 771 320 c 2,28,-1
 502 320 l 1,29,-1
 530 76 l 1,30,-1
 778 76 l 2,31,32
 795 76 795 76 795 54 c 0,33,34
 795 0 795 0 770 0 c 2,0,-1
180 253 m 1,35,-1
 419 253 l 1,36,-1
 389 552 l 1,37,-1
 389 610 l 1,38,-1
 360 552 l 1,39,-1
 180 253 l 1,35,-1
EndSplineSet
EndChar

StartChar: Ccedilla
Encoding: 199 199 137
Width: 619
GlyphClass: 2
Flags: W
LayerCount: 2
Fore
SplineSet
304 -210 m 0,0,1
 245 -210 245 -210 218 -190 c 0,2,3
 207 -182 207 -182 207 -169 c 0,4,5
 207 -136 207 -136 219 -136 c 1,6,-1
 229 -142 l 2,7,8
 261 -161 261 -161 297 -161 c 0,9,10
 357 -161 357 -161 357 -121 c 0,11,12
 357 -108 357 -108 347.5 -100.5 c 128,-1,13
 338 -93 338 -93 327 -90 c 0,14,15
 297 -84 297 -84 297 -69 c 0,16,17
 297 -68 297 -68 301 -56 c 2,18,-1
 321 -6 l 1,19,20
 177 -4 177 -4 107.5 64 c 128,-1,21
 38 132 38 132 38 274 c 0,22,23
 38 456 38 456 116 574 c 0,24,25
 157 636 157 636 231 671 c 128,-1,26
 305 706 305 706 391 706 c 128,-1,27
 477 706 477 706 533.5 686 c 128,-1,28
 590 666 590 666 590 645 c 0,29,30
 590 633 590 633 574.5 609.5 c 128,-1,31
 559 586 559 586 550 586 c 0,32,33
 548 586 548 586 528 597 c 128,-1,34
 508 608 508 608 471 619 c 128,-1,35
 434 630 434 630 392 630 c 0,36,37
 299 630 299 630 238.5 583.5 c 128,-1,38
 178 537 178 537 153 462.5 c 128,-1,39
 128 388 128 388 128 281.5 c 128,-1,40
 128 175 128 175 178.5 122.5 c 128,-1,41
 229 70 229 70 334 70 c 0,42,43
 382 70 382 70 426 82 c 128,-1,44
 470 94 470 94 494 106 c 128,-1,45
 518 118 518 118 519 118 c 0,46,47
 526 118 526 118 526 101 c 128,-1,48
 526 84 526 84 519 52 c 0,49,50
 514 29 514 29 468.5 14 c 128,-1,51
 423 -1 423 -1 365 -4 c 1,52,-1
 347 -49 l 1,53,-1
 351 -49 l 2,54,55
 366 -49 366 -49 381 -52 c 128,-1,56
 396 -55 396 -55 412.5 -70.5 c 128,-1,57
 429 -86 429 -86 429 -111 c 0,58,59
 429 -210 429 -210 304 -210 c 0,0,1
EndSplineSet
EndChar

StartChar: Egrave
Encoding: 200 200 138
Width: 546
GlyphClass: 2
Flags: W
LayerCount: 2
Fore
SplineSet
145 700 m 2,0,-1
 498 700 l 2,1,2
 515 700 515 700 515 678 c 0,3,4
 515 624 515 624 490 624 c 2,5,-1
 195 624 l 1,6,-1
 171 396 l 1,7,-1
 435 396 l 2,8,9
 452 396 452 396 452 374 c 0,10,11
 452 320 452 320 427 320 c 2,12,-1
 163 320 l 1,13,-1
 138 76 l 1,14,-1
 434 76 l 2,15,16
 451 76 451 76 451 54 c 0,17,18
 451 0 451 0 426 0 c 2,19,-1
 72 0 l 2,20,21
 45 0 45 0 45 24 c 0,22,23
 45 28 45 28 112 670 c 0,24,25
 115 700 115 700 145 700 c 2,0,-1
401 794 m 0,26,27
 401 785 401 785 371.5 785 c 128,-1,28
 342 785 342 785 327 803 c 0,29,30
 239 903 239 903 236 909.5 c 128,-1,31
 233 916 233 916 233 920 c 0,32,33
 234 932 234 932 281 932 c 128,-1,34
 328 932 328 932 343 906 c 0,35,36
 401 807 401 807 401 794 c 0,26,27
EndSplineSet
EndChar

StartChar: Eacute
Encoding: 201 201 139
Width: 546
GlyphClass: 2
Flags: W
LayerCount: 2
Fore
SplineSet
145 700 m 2,0,-1
 498 700 l 2,1,2
 515 700 515 700 515 678 c 0,3,4
 515 624 515 624 490 624 c 2,5,-1
 195 624 l 1,6,-1
 171 396 l 1,7,-1
 435 396 l 2,8,9
 452 396 452 396 452 374 c 0,10,11
 452 320 452 320 427 320 c 2,12,-1
 163 320 l 1,13,-1
 138 76 l 1,14,-1
 434 76 l 2,15,16
 451 76 451 76 451 54 c 0,17,18
 451 0 451 0 426 0 c 2,19,-1
 72 0 l 2,20,21
 45 0 45 0 45 24 c 0,22,23
 45 28 45 28 112 670 c 0,24,25
 115 700 115 700 145 700 c 2,0,-1
406 932 m 128,-1,27
 453 932 453 932 453 920.5 c 128,-1,28
 453 909 453 909 346 802 c 0,29,30
 329 785 329 785 300.5 785 c 128,-1,31
 272 785 272 785 272 794 c 0,32,33
 272 806 272 806 341 906 c 0,34,26
 359 932 359 932 406 932 c 128,-1,27
EndSplineSet
EndChar

StartChar: Ecircumflex
Encoding: 202 202 140
Width: 546
GlyphClass: 2
Flags: W
LayerCount: 2
Fore
SplineSet
145 700 m 2,0,-1
 498 700 l 2,1,2
 515 700 515 700 515 678 c 0,3,4
 515 624 515 624 490 624 c 2,5,-1
 195 624 l 1,6,-1
 171 396 l 1,7,-1
 435 396 l 2,8,9
 452 396 452 396 452 374 c 0,10,11
 452 320 452 320 427 320 c 2,12,-1
 163 320 l 1,13,-1
 138 76 l 1,14,-1
 434 76 l 2,15,16
 451 76 451 76 451 54 c 0,17,18
 451 0 451 0 426 0 c 2,19,-1
 72 0 l 2,20,21
 45 0 45 0 45 24 c 0,22,23
 45 28 45 28 112 670 c 0,24,25
 115 700 115 700 145 700 c 2,0,-1
329 906 m 2,26,-1
 354 906 l 2,27,28
 386 906 386 906 398 884 c 2,29,-1
 445 796 l 2,30,31
 450 788 450 788 449 776 c 128,-1,32
 448 764 448 764 425.5 764 c 128,-1,33
 403 764 403 764 390 777 c 1,34,-1
 335 851 l 1,35,-1
 266 777 l 1,36,37
 250 764 250 764 229 764 c 128,-1,38
 208 764 208 764 208 776 c 0,39,40
 208 785 208 785 215 796 c 2,41,-1
 281 884 l 2,42,43
 297 906 297 906 329 906 c 2,26,-1
EndSplineSet
EndChar

StartChar: Edieresis
Encoding: 203 203 141
Width: 546
GlyphClass: 2
Flags: W
LayerCount: 2
Fore
SplineSet
145 700 m 2,0,-1
 498 700 l 2,1,2
 515 700 515 700 515 678 c 0,3,4
 515 624 515 624 490 624 c 2,5,-1
 195 624 l 1,6,-1
 171 396 l 1,7,-1
 435 396 l 2,8,9
 452 396 452 396 452 374 c 0,10,11
 452 320 452 320 427 320 c 2,12,-1
 163 320 l 1,13,-1
 138 76 l 1,14,-1
 434 76 l 2,15,16
 451 76 451 76 451 54 c 0,17,18
 451 0 451 0 426 0 c 2,19,-1
 72 0 l 2,20,21
 45 0 45 0 45 24 c 0,22,23
 45 28 45 28 112 670 c 0,24,25
 115 700 115 700 145 700 c 2,0,-1
409 882 m 2,26,-1
 413 882 l 2,27,28
 451 882 451 882 451 860 c 1,29,-1
 446 809 l 2,30,31
 443 787 443 787 404 787 c 2,32,-1
 400 787 l 2,33,34
 362 787 362 787 362 809 c 1,35,-1
 367 860 l 2,36,37
 369 882 369 882 409 882 c 2,26,-1
265 882 m 2,38,-1
 269 882 l 2,39,40
 307 882 307 882 307 860 c 1,41,-1
 302 809 l 2,42,43
 299 787 299 787 260 787 c 2,44,-1
 256 787 l 2,45,46
 218 787 218 787 218 809 c 1,47,-1
 223 860 l 2,48,49
 226 882 226 882 265 882 c 2,38,-1
EndSplineSet
EndChar

StartChar: Igrave
Encoding: 204 204 142
Width: 282
GlyphClass: 2
Flags: W
LayerCount: 2
Fore
SplineSet
173 702 m 2,0,-1
 181 702 l 2,1,2
 219 702 219 702 219 680 c 1,3,-1
 150 20 l 2,4,5
 147 -2 147 -2 108 -2 c 2,6,-1
 100 -2 l 2,7,8
 62 -2 62 -2 62 20 c 1,9,-1
 131 680 l 2,10,11
 133 702 133 702 173 702 c 2,0,-1
257 794 m 0,12,13
 257 785 257 785 227.5 785 c 128,-1,14
 198 785 198 785 183 803 c 0,15,16
 95 903 95 903 92 909.5 c 128,-1,17
 89 916 89 916 89 920 c 0,18,19
 90 932 90 932 137 932 c 128,-1,20
 184 932 184 932 199 906 c 0,21,22
 257 807 257 807 257 794 c 0,12,13
EndSplineSet
EndChar

StartChar: Iacute
Encoding: 205 205 143
Width: 282
GlyphClass: 2
Flags: W
LayerCount: 2
Fore
SplineSet
173 702 m 2,0,-1
 181 702 l 2,1,2
 219 702 219 702 219 680 c 1,3,-1
 150 20 l 2,4,5
 147 -2 147 -2 108 -2 c 2,6,-1
 100 -2 l 2,7,8
 62 -2 62 -2 62 20 c 1,9,-1
 131 680 l 2,10,11
 133 702 133 702 173 702 c 2,0,-1
262 932 m 128,-1,13
 309 932 309 932 309 920.5 c 128,-1,14
 309 909 309 909 202 802 c 0,15,16
 185 785 185 785 156.5 785 c 128,-1,17
 128 785 128 785 128 794 c 0,18,19
 128 806 128 806 197 906 c 0,20,12
 215 932 215 932 262 932 c 128,-1,13
EndSplineSet
EndChar

StartChar: Icircumflex
Encoding: 206 206 144
Width: 282
GlyphClass: 2
Flags: W
LayerCount: 2
Fore
SplineSet
173 702 m 2,0,-1
 181 702 l 2,1,2
 219 702 219 702 219 680 c 1,3,-1
 150 20 l 2,4,5
 147 -2 147 -2 108 -2 c 2,6,-1
 100 -2 l 2,7,8
 62 -2 62 -2 62 20 c 1,9,-1
 131 680 l 2,10,11
 133 702 133 702 173 702 c 2,0,-1
185 906 m 2,12,-1
 210 906 l 2,13,14
 242 906 242 906 254 884 c 2,15,-1
 301 796 l 2,16,17
 306 788 306 788 305 776 c 128,-1,18
 304 764 304 764 281.5 764 c 128,-1,19
 259 764 259 764 246 777 c 1,20,-1
 191 851 l 1,21,-1
 122 777 l 1,22,23
 106 764 106 764 85 764 c 128,-1,24
 64 764 64 764 64 776 c 0,25,26
 64 785 64 785 71 796 c 2,27,-1
 137 884 l 2,28,29
 153 906 153 906 185 906 c 2,12,-1
EndSplineSet
EndChar

StartChar: Idieresis
Encoding: 207 207 145
Width: 282
GlyphClass: 2
Flags: W
LayerCount: 2
Fore
SplineSet
173 702 m 2,0,-1
 181 702 l 2,1,2
 219 702 219 702 219 680 c 1,3,-1
 150 20 l 2,4,5
 147 -2 147 -2 108 -2 c 2,6,-1
 100 -2 l 2,7,8
 62 -2 62 -2 62 20 c 1,9,-1
 131 680 l 2,10,11
 133 702 133 702 173 702 c 2,0,-1
265 882 m 2,12,-1
 269 882 l 2,13,14
 307 882 307 882 307 860 c 1,15,-1
 302 809 l 2,16,17
 299 787 299 787 260 787 c 2,18,-1
 256 787 l 2,19,20
 218 787 218 787 218 809 c 1,21,-1
 223 860 l 2,22,23
 225 882 225 882 265 882 c 2,12,-1
121 882 m 2,24,-1
 125 882 l 2,25,26
 163 882 163 882 163 860 c 1,27,-1
 158 809 l 2,28,29
 155 787 155 787 116 787 c 2,30,-1
 112 787 l 2,31,32
 74 787 74 787 74 809 c 1,33,-1
 79 860 l 2,34,35
 82 882 82 882 121 882 c 2,24,-1
EndSplineSet
EndChar

StartChar: Eth
Encoding: 208 208 146
Width: 696
GlyphClass: 2
Flags: W
LayerCount: 2
Fore
SplineSet
24 396 m 2,0,-1
 89 396 l 1,1,-1
 118 670 l 2,2,3
 121 700 121 700 151 700 c 2,4,-1
 366 700 l 2,5,6
 493 700 493 700 568.5 631.5 c 128,-1,7
 644 563 644 563 644 415 c 0,8,9
 644 303 644 303 615 220 c 128,-1,10
 586 137 586 137 535 90 c 0,11,12
 436 0 436 0 293 0 c 2,13,-1
 78 0 l 2,14,15
 51 0 51 0 51 24 c 1,16,-1
 81 320 l 1,17,-1
 16 320 l 2,18,19
 -1 320 -1 320 -1 342 c 0,20,21
 -1 396 -1 396 24 396 c 2,0,-1
294 76 m 2,22,23
 403 76 403 76 478 155.5 c 128,-1,24
 553 235 553 235 553 401 c 0,25,26
 553 519 553 519 498.5 571.5 c 128,-1,27
 444 624 444 624 351 624 c 2,28,-1
 201 624 l 1,29,-1
 177 396 l 1,30,-1
 288 396 l 2,31,32
 305 396 305 396 305 374 c 0,33,34
 305 320 305 320 280 320 c 2,35,-1
 169 320 l 1,36,-1
 144 76 l 1,37,-1
 294 76 l 2,22,23
EndSplineSet
EndChar

StartChar: Ntilde
Encoding: 209 209 147
Width: 719
GlyphClass: 2
Flags: W
LayerCount: 2
Fore
SplineSet
163 702 m 2,0,-1
 184 702 l 2,1,2
 213 702 213 702 224 683 c 2,3,-1
 499 201 l 1,4,-1
 523 145 l 1,5,-1
 579 680 l 2,6,7
 581 702 581 702 621 702 c 2,8,-1
 628 702 l 2,9,10
 666 702 666 702 666 680 c 1,11,-1
 597 20 l 2,12,13
 594 -2 594 -2 555 -2 c 2,14,-1
 535 -2 l 2,15,16
 509 -2 509 -2 501 12 c 2,17,-1
 217 510 l 1,18,-1
 196 561 l 1,19,-1
 139 20 l 2,20,21
 136 -2 136 -2 97 -2 c 2,22,-1
 90 -2 l 2,23,24
 52 -2 52 -2 52 20 c 1,25,-1
 121 680 l 2,26,27
 123 702 123 702 163 702 c 2,0,-1
541.5 814 m 128,-1,29
 510 795 510 795 474.5 795 c 128,-1,30
 439 795 439 795 396.5 805 c 128,-1,31
 354 815 354 815 339 815 c 128,-1,32
 324 815 324 815 308.5 808.5 c 128,-1,33
 293 802 293 802 283 802 c 128,-1,34
 273 802 273 802 264 812.5 c 128,-1,35
 255 823 255 823 255 832 c 0,36,37
 255 851 255 851 289 869.5 c 128,-1,38
 323 888 323 888 357 888 c 128,-1,39
 391 888 391 888 431.5 878 c 128,-1,40
 472 868 472 868 488 868 c 128,-1,41
 504 868 504 868 519.5 874.5 c 128,-1,42
 535 881 535 881 544.5 881 c 128,-1,43
 554 881 554 881 563.5 870 c 128,-1,44
 573 859 573 859 573 851 c 0,45,28
 573 833 573 833 541.5 814 c 128,-1,29
EndSplineSet
EndChar

StartChar: Ograve
Encoding: 210 210 148
Width: 731
GlyphClass: 2
Flags: W
LayerCount: 2
Fore
SplineSet
100 522 m 1,0,1
 126 577 126 577 165 617.5 c 128,-1,2
 204 658 204 658 265 682 c 128,-1,3
 326 706 326 706 402 706 c 0,4,5
 537 706 537 706 607.5 633.5 c 128,-1,6
 678 561 678 561 678 420 c 0,7,8
 678 215 678 215 584 104.5 c 128,-1,9
 490 -6 490 -6 327 -6 c 0,10,11
 193 -6 193 -6 123 67 c 128,-1,12
 53 140 53 140 53 279 c 128,-1,13
 53 418 53 418 100 522 c 1,0,1
335 70 m 0,14,15
 450 70 450 70 518 158.5 c 128,-1,16
 586 247 586 247 586 410 c 0,17,18
 586 519 586 519 537 574.5 c 128,-1,19
 488 630 488 630 394 630 c 0,20,21
 278 630 278 630 211 543 c 128,-1,22
 144 456 144 456 144 291 c 0,23,24
 144 182 144 182 192.5 126 c 128,-1,25
 241 70 241 70 335 70 c 0,14,15
486 794 m 0,26,27
 486 785 486 785 456.5 785 c 128,-1,28
 427 785 427 785 412 803 c 0,29,30
 324 903 324 903 321 909.5 c 128,-1,31
 318 916 318 916 318 920 c 0,32,33
 319 932 319 932 366 932 c 128,-1,34
 413 932 413 932 428 906 c 0,35,36
 486 807 486 807 486 794 c 0,26,27
EndSplineSet
EndChar

StartChar: Oacute
Encoding: 211 211 149
Width: 731
GlyphClass: 2
Flags: W
LayerCount: 2
Fore
SplineSet
100 522 m 1,0,1
 126 577 126 577 165 617.5 c 128,-1,2
 204 658 204 658 265 682 c 128,-1,3
 326 706 326 706 402 706 c 0,4,5
 537 706 537 706 607.5 633.5 c 128,-1,6
 678 561 678 561 678 420 c 0,7,8
 678 215 678 215 584 104.5 c 128,-1,9
 490 -6 490 -6 327 -6 c 0,10,11
 193 -6 193 -6 123 67 c 128,-1,12
 53 140 53 140 53 279 c 128,-1,13
 53 418 53 418 100 522 c 1,0,1
335 70 m 0,14,15
 450 70 450 70 518 158.5 c 128,-1,16
 586 247 586 247 586 410 c 0,17,18
 586 519 586 519 537 574.5 c 128,-1,19
 488 630 488 630 394 630 c 0,20,21
 278 630 278 630 211 543 c 128,-1,22
 144 456 144 456 144 291 c 0,23,24
 144 182 144 182 192.5 126 c 128,-1,25
 241 70 241 70 335 70 c 0,14,15
491 932 m 128,-1,27
 538 932 538 932 538 920.5 c 128,-1,28
 538 909 538 909 431 802 c 0,29,30
 414 785 414 785 385.5 785 c 128,-1,31
 357 785 357 785 357 794 c 0,32,33
 357 806 357 806 426 906 c 0,34,26
 444 932 444 932 491 932 c 128,-1,27
EndSplineSet
EndChar

StartChar: Ocircumflex
Encoding: 212 212 150
Width: 731
GlyphClass: 2
Flags: W
LayerCount: 2
Fore
SplineSet
100 522 m 1,0,1
 126 577 126 577 165 617.5 c 128,-1,2
 204 658 204 658 265 682 c 128,-1,3
 326 706 326 706 402 706 c 0,4,5
 537 706 537 706 607.5 633.5 c 128,-1,6
 678 561 678 561 678 420 c 0,7,8
 678 215 678 215 584 104.5 c 128,-1,9
 490 -6 490 -6 327 -6 c 0,10,11
 193 -6 193 -6 123 67 c 128,-1,12
 53 140 53 140 53 279 c 128,-1,13
 53 418 53 418 100 522 c 1,0,1
335 70 m 0,14,15
 450 70 450 70 518 158.5 c 128,-1,16
 586 247 586 247 586 410 c 0,17,18
 586 519 586 519 537 574.5 c 128,-1,19
 488 630 488 630 394 630 c 0,20,21
 278 630 278 630 211 543 c 128,-1,22
 144 456 144 456 144 291 c 0,23,24
 144 182 144 182 192.5 126 c 128,-1,25
 241 70 241 70 335 70 c 0,14,15
414 906 m 2,26,-1
 439 906 l 2,27,28
 471 906 471 906 483 884 c 2,29,-1
 530 796 l 2,30,31
 535 788 535 788 534 776 c 128,-1,32
 533 764 533 764 510.5 764 c 128,-1,33
 488 764 488 764 475 777 c 1,34,-1
 420 851 l 1,35,-1
 351 777 l 1,36,37
 335 764 335 764 314 764 c 128,-1,38
 293 764 293 764 293 776 c 0,39,40
 293 785 293 785 300 796 c 2,41,-1
 366 884 l 2,42,43
 382 906 382 906 414 906 c 2,26,-1
EndSplineSet
EndChar

StartChar: Otilde
Encoding: 213 213 151
Width: 731
GlyphClass: 2
Flags: W
LayerCount: 2
Fore
SplineSet
100 522 m 1,0,1
 126 577 126 577 165 617.5 c 128,-1,2
 204 658 204 658 265 682 c 128,-1,3
 326 706 326 706 402 706 c 0,4,5
 537 706 537 706 607.5 633.5 c 128,-1,6
 678 561 678 561 678 420 c 0,7,8
 678 215 678 215 584 104.5 c 128,-1,9
 490 -6 490 -6 327 -6 c 0,10,11
 193 -6 193 -6 123 67 c 128,-1,12
 53 140 53 140 53 279 c 128,-1,13
 53 418 53 418 100 522 c 1,0,1
335 70 m 0,14,15
 450 70 450 70 518 158.5 c 128,-1,16
 586 247 586 247 586 410 c 0,17,18
 586 519 586 519 537 574.5 c 128,-1,19
 488 630 488 630 394 630 c 0,20,21
 278 630 278 630 211 543 c 128,-1,22
 144 456 144 456 144 291 c 0,23,24
 144 182 144 182 192.5 126 c 128,-1,25
 241 70 241 70 335 70 c 0,14,15
547.5 814 m 128,-1,27
 516 795 516 795 480.5 795 c 128,-1,28
 445 795 445 795 402.5 805 c 128,-1,29
 360 815 360 815 345 815 c 128,-1,30
 330 815 330 815 314.5 808.5 c 128,-1,31
 299 802 299 802 289 802 c 128,-1,32
 279 802 279 802 270 812.5 c 128,-1,33
 261 823 261 823 261 832 c 0,34,35
 261 851 261 851 295 869.5 c 128,-1,36
 329 888 329 888 363 888 c 128,-1,37
 397 888 397 888 437.5 878 c 128,-1,38
 478 868 478 868 494 868 c 128,-1,39
 510 868 510 868 525.5 874.5 c 128,-1,40
 541 881 541 881 550.5 881 c 128,-1,41
 560 881 560 881 569.5 870 c 128,-1,42
 579 859 579 859 579 851 c 0,43,26
 579 833 579 833 547.5 814 c 128,-1,27
EndSplineSet
EndChar

StartChar: Odieresis
Encoding: 214 214 152
Width: 731
GlyphClass: 2
Flags: W
LayerCount: 2
Fore
SplineSet
100 522 m 1,0,1
 126 577 126 577 165 617.5 c 128,-1,2
 204 658 204 658 265 682 c 128,-1,3
 326 706 326 706 402 706 c 0,4,5
 537 706 537 706 607.5 633.5 c 128,-1,6
 678 561 678 561 678 420 c 0,7,8
 678 215 678 215 584 104.5 c 128,-1,9
 490 -6 490 -6 327 -6 c 0,10,11
 193 -6 193 -6 123 67 c 128,-1,12
 53 140 53 140 53 279 c 128,-1,13
 53 418 53 418 100 522 c 1,0,1
335 70 m 0,14,15
 450 70 450 70 518 158.5 c 128,-1,16
 586 247 586 247 586 410 c 0,17,18
 586 519 586 519 537 574.5 c 128,-1,19
 488 630 488 630 394 630 c 0,20,21
 278 630 278 630 211 543 c 128,-1,22
 144 456 144 456 144 291 c 0,23,24
 144 182 144 182 192.5 126 c 128,-1,25
 241 70 241 70 335 70 c 0,14,15
494 882 m 2,26,-1
 498 882 l 2,27,28
 536 882 536 882 536 860 c 1,29,-1
 531 809 l 2,30,31
 528 787 528 787 489 787 c 2,32,-1
 485 787 l 2,33,34
 447 787 447 787 447 809 c 1,35,-1
 452 860 l 2,36,37
 454 882 454 882 494 882 c 2,26,-1
350 882 m 2,38,-1
 354 882 l 2,39,40
 392 882 392 882 392 860 c 1,41,-1
 387 809 l 2,42,43
 384 787 384 787 345 787 c 2,44,-1
 341 787 l 2,45,46
 303 787 303 787 303 809 c 1,47,-1
 308 860 l 2,48,49
 311 882 311 882 350 882 c 2,38,-1
EndSplineSet
EndChar

StartChar: multiply
Encoding: 215 215 153
Width: 560
GlyphClass: 2
Flags: W
LayerCount: 2
Fore
SplineSet
80 399 m 2,0,1
 73 406 73 406 73 412.5 c 128,-1,2
 73 419 73 419 83 427 c 1,3,-1
 104 447 l 2,4,5
 111 454 111 454 118 454 c 128,-1,6
 125 454 125 454 132 447 c 2,7,-1
 285 275 l 1,8,-1
 474 447 l 2,9,10
 481 454 481 454 488 454 c 128,-1,11
 495 454 495 454 502 447 c 2,12,-1
 519 427 l 2,13,14
 524 421 524 421 524 414 c 128,-1,15
 524 407 524 407 516 399 c 2,16,-1
 327 228 l 1,17,-1
 480 56 l 2,18,19
 485 50 485 50 485 43 c 128,-1,20
 485 36 485 36 477 28 c 2,21,-1
 455 8 l 2,22,23
 447 0 447 0 441 0 c 128,-1,24
 435 0 435 0 427 8 c 2,25,-1
 275 181 l 1,26,-1
 85 8 l 2,27,28
 77 0 77 0 71 0 c 128,-1,29
 65 0 65 0 57 8 c 1,30,-1
 41 28 l 1,31,32
 34 35 34 35 34 41.5 c 128,-1,33
 34 48 34 48 44 56 c 2,34,-1
 233 228 l 1,35,-1
 80 399 l 2,0,1
EndSplineSet
EndChar

StartChar: Oslash
Encoding: 216 216 154
Width: 731
GlyphClass: 2
Flags: W
LayerCount: 2
Fore
SplineSet
53 282 m 0,0,1
 53 418 53 418 100 522 c 1,2,3
 126 577 126 577 165 617.5 c 128,-1,4
 204 658 204 658 265 682 c 128,-1,5
 326 706 326 706 402 706 c 0,6,7
 538 706 538 706 607 634 c 1,8,-1
 669 695 l 2,9,10
 676 702 676 702 683 702 c 128,-1,11
 690 702 690 702 696.5 695.5 c 128,-1,12
 703 689 703 689 703 682.5 c 128,-1,13
 703 676 703 676 696 669 c 2,14,-1
 631 604 l 1,15,16
 678 534 678 534 678 420 c 0,17,18
 678 215 678 215 584 104.5 c 128,-1,19
 490 -6 490 -6 333.5 -6 c 128,-1,20
 177 -6 177 -6 108 84 c 1,21,-1
 33 9 l 2,22,23
 25 1 25 1 19 1 c 128,-1,24
 13 1 13 1 6 8 c 128,-1,25
 -1 15 -1 15 -1 21 c 128,-1,26
 -1 27 -1 27 7 35 c 2,27,-1
 88 116 l 1,28,29
 53 183 53 183 53 282 c 0,0,1
144 291 m 0,30,31
 144 231 144 231 159 187 c 1,32,-1
 542 568 l 1,33,34
 492 630 492 630 394 630 c 0,35,36
 278 630 278 630 211 543 c 128,-1,37
 144 456 144 456 144 291 c 0,30,31
175 150 m 1,38,39
 222 70 222 70 336 70 c 128,-1,40
 450 70 450 70 518 158.5 c 128,-1,41
 586 247 586 247 586 410 c 0,42,43
 586 486 586 486 562 536 c 1,44,-1
 175 150 l 1,38,39
EndSplineSet
EndChar

StartChar: Ugrave
Encoding: 217 217 155
Width: 712
GlyphClass: 2
Flags: W
LayerCount: 2
Fore
SplineSet
157 702 m 2,0,-1
 165 702 l 2,1,2
 202 702 202 702 202 680 c 1,3,4
 153 216 153 216 153 206 c 0,5,6
 153 144 153 144 197 107 c 128,-1,7
 241 70 241 70 322 70 c 128,-1,8
 403 70 403 70 460 112.5 c 128,-1,9
 517 155 517 155 524 221 c 2,10,-1
 572 680 l 2,11,12
 574 702 574 702 615 702 c 2,13,-1
 623 702 l 2,14,15
 660 702 660 702 660 680 c 1,16,-1
 612 224 l 2,17,18
 601 115 601 115 523.5 54.5 c 128,-1,19
 446 -6 446 -6 319.5 -6 c 128,-1,20
 193 -6 193 -6 128.5 46 c 128,-1,21
 64 98 64 98 64 193 c 0,22,23
 64 203 64 203 114 680 c 0,24,25
 116 702 116 702 157 702 c 2,0,-1
474 794 m 0,26,27
 474 785 474 785 444.5 785 c 128,-1,28
 415 785 415 785 400 803 c 0,29,30
 312 903 312 903 309 909.5 c 128,-1,31
 306 916 306 916 306 920 c 0,32,33
 307 932 307 932 354 932 c 128,-1,34
 401 932 401 932 416 906 c 0,35,36
 474 807 474 807 474 794 c 0,26,27
EndSplineSet
EndChar

StartChar: Uacute
Encoding: 218 218 156
Width: 712
GlyphClass: 2
Flags: W
LayerCount: 2
Fore
SplineSet
157 702 m 2,0,-1
 165 702 l 2,1,2
 202 702 202 702 202 680 c 1,3,4
 153 216 153 216 153 206 c 0,5,6
 153 144 153 144 197 107 c 128,-1,7
 241 70 241 70 322 70 c 128,-1,8
 403 70 403 70 460 112.5 c 128,-1,9
 517 155 517 155 524 221 c 2,10,-1
 572 680 l 2,11,12
 574 702 574 702 615 702 c 2,13,-1
 623 702 l 2,14,15
 660 702 660 702 660 680 c 1,16,-1
 612 224 l 2,17,18
 601 115 601 115 523.5 54.5 c 128,-1,19
 446 -6 446 -6 319.5 -6 c 128,-1,20
 193 -6 193 -6 128.5 46 c 128,-1,21
 64 98 64 98 64 193 c 0,22,23
 64 203 64 203 114 680 c 0,24,25
 116 702 116 702 157 702 c 2,0,-1
479 932 m 128,-1,27
 526 932 526 932 526 920.5 c 128,-1,28
 526 909 526 909 419 802 c 0,29,30
 402 785 402 785 373.5 785 c 128,-1,31
 345 785 345 785 345 794 c 0,32,33
 345 806 345 806 414 906 c 0,34,26
 432 932 432 932 479 932 c 128,-1,27
EndSplineSet
EndChar

StartChar: Ucircumflex
Encoding: 219 219 157
Width: 712
GlyphClass: 2
Flags: W
LayerCount: 2
Fore
SplineSet
157 702 m 2,0,-1
 165 702 l 2,1,2
 202 702 202 702 202 680 c 1,3,4
 153 216 153 216 153 206 c 0,5,6
 153 144 153 144 197 107 c 128,-1,7
 241 70 241 70 322 70 c 128,-1,8
 403 70 403 70 460 112.5 c 128,-1,9
 517 155 517 155 524 221 c 2,10,-1
 572 680 l 2,11,12
 574 702 574 702 615 702 c 2,13,-1
 623 702 l 2,14,15
 660 702 660 702 660 680 c 1,16,-1
 612 224 l 2,17,18
 601 115 601 115 523.5 54.5 c 128,-1,19
 446 -6 446 -6 319.5 -6 c 128,-1,20
 193 -6 193 -6 128.5 46 c 128,-1,21
 64 98 64 98 64 193 c 0,22,23
 64 203 64 203 114 680 c 0,24,25
 116 702 116 702 157 702 c 2,0,-1
402 906 m 2,26,-1
 427 906 l 2,27,28
 459 906 459 906 471 884 c 2,29,-1
 518 796 l 2,30,31
 523 788 523 788 522 776 c 128,-1,32
 521 764 521 764 498.5 764 c 128,-1,33
 476 764 476 764 463 777 c 1,34,-1
 408 851 l 1,35,-1
 339 777 l 1,36,37
 323 764 323 764 302 764 c 128,-1,38
 281 764 281 764 281 776 c 0,39,40
 281 785 281 785 288 796 c 2,41,-1
 354 884 l 2,42,43
 370 906 370 906 402 906 c 2,26,-1
EndSplineSet
EndChar

StartChar: Udieresis
Encoding: 220 220 158
Width: 712
GlyphClass: 2
Flags: W
LayerCount: 2
Fore
SplineSet
157 702 m 2,0,-1
 165 702 l 2,1,2
 202 702 202 702 202 680 c 1,3,4
 153 216 153 216 153 206 c 0,5,6
 153 144 153 144 197 107 c 128,-1,7
 241 70 241 70 322 70 c 128,-1,8
 403 70 403 70 460 112.5 c 128,-1,9
 517 155 517 155 524 221 c 2,10,-1
 572 680 l 2,11,12
 574 702 574 702 615 702 c 2,13,-1
 623 702 l 2,14,15
 660 702 660 702 660 680 c 1,16,-1
 612 224 l 2,17,18
 601 115 601 115 523.5 54.5 c 128,-1,19
 446 -6 446 -6 319.5 -6 c 128,-1,20
 193 -6 193 -6 128.5 46 c 128,-1,21
 64 98 64 98 64 193 c 0,22,23
 64 203 64 203 114 680 c 0,24,25
 116 702 116 702 157 702 c 2,0,-1
482 882 m 2,26,-1
 486 882 l 2,27,28
 524 882 524 882 524 860 c 1,29,-1
 519 809 l 2,30,31
 516 787 516 787 477 787 c 2,32,-1
 473 787 l 2,33,34
 435 787 435 787 435 809 c 1,35,-1
 440 860 l 2,36,37
 442 882 442 882 482 882 c 2,26,-1
338 882 m 2,38,-1
 342 882 l 2,39,40
 380 882 380 882 380 860 c 1,41,-1
 375 809 l 2,42,43
 372 787 372 787 333 787 c 2,44,-1
 329 787 l 2,45,46
 291 787 291 787 291 809 c 1,47,-1
 296 860 l 2,48,49
 299 882 299 882 338 882 c 2,38,-1
EndSplineSet
EndChar

StartChar: Yacute
Encoding: 221 221 159
Width: 559
GlyphClass: 2
Flags: W
LayerCount: 2
Fore
SplineSet
246 -2 m 2,0,-1
 238 -2 l 2,1,2
 200 -2 200 -2 200 20 c 1,3,-1
 235 359 l 1,4,-1
 59 667 l 2,5,6
 53 676 53 676 53 683 c 0,7,8
 53 702 53 702 100 702 c 2,9,-1
 111 702 l 2,10,11
 144 702 144 702 153 687 c 2,12,-1
 291 441 l 1,13,-1
 485 688 l 2,14,15
 495 702 495 702 535.5 702 c 128,-1,16
 576 702 576 702 576 686 c 0,17,18
 576 681 576 681 566 667 c 2,19,-1
 323 356 l 1,20,-1
 288 20 l 2,21,22
 285 -2 285 -2 246 -2 c 2,0,-1
405 932 m 128,-1,24
 452 932 452 932 452 920.5 c 128,-1,25
 452 909 452 909 345 802 c 0,26,27
 328 785 328 785 299.5 785 c 128,-1,28
 271 785 271 785 271 794 c 0,29,30
 271 806 271 806 340 906 c 0,31,23
 358 932 358 932 405 932 c 128,-1,24
EndSplineSet
EndChar

StartChar: Thorn
Encoding: 222 222 160
Width: 567
GlyphClass: 2
Flags: W
LayerCount: 2
Fore
SplineSet
161 702 m 2,0,-1
 169 702 l 2,1,2
 207 702 207 702 207 680 c 1,3,-1
 196 578 l 1,4,-1
 341 578 l 2,5,6
 414 578 414 578 473 548 c 0,7,8
 506 532 506 532 526 497 c 128,-1,9
 546 462 546 462 546 406.5 c 128,-1,10
 546 351 546 351 527.5 306 c 128,-1,11
 509 261 509 261 482.5 237 c 128,-1,12
 456 213 456 213 421 198 c 0,13,14
 367 176 367 176 309 176 c 2,15,-1
 154 176 l 1,16,-1
 138 20 l 2,17,18
 135 -2 135 -2 96 -2 c 2,19,-1
 88 -2 l 2,20,21
 50 -2 50 -2 50 20 c 1,22,-1
 119 680 l 2,23,24
 122 702 122 702 161 702 c 2,0,-1
318 252 m 2,25,26
 358 252 358 252 400 278 c 0,27,28
 424 293 424 293 439 324.5 c 128,-1,29
 454 356 454 356 454 406 c 128,-1,30
 454 456 454 456 417.5 479 c 128,-1,31
 381 502 381 502 330 502 c 2,32,-1
 188 502 l 1,33,-1
 162 252 l 1,34,-1
 318 252 l 2,25,26
EndSplineSet
EndChar

StartChar: germandbls
Encoding: 223 223 161
Width: 554
GlyphClass: 2
Flags: W
LayerCount: 2
Fore
SplineSet
261 0 m 2,0,-1
 227 0 l 2,1,2
 210 0 210 0 210 27 c 0,3,4
 210 72 210 72 235 72 c 2,5,-1
 270 72 l 2,6,7
 328 72 328 72 369.5 113.5 c 128,-1,8
 411 155 411 155 411 216.5 c 128,-1,9
 411 278 411 278 379 309 c 128,-1,10
 347 340 347 340 298 340 c 2,11,-1
 263 340 l 2,12,13
 246 340 246 340 246 367 c 0,14,15
 246 412 246 412 271 412 c 2,16,-1
 283 412 l 2,17,18
 335 412 335 412 375 451.5 c 128,-1,19
 415 491 415 491 415 545 c 0,20,21
 415 634 415 634 314 634 c 0,22,23
 263 634 263 634 229.5 603.5 c 128,-1,24
 196 573 196 573 191 521 c 2,25,-1
 138 20 l 2,26,27
 135 -2 135 -2 96 -2 c 2,28,-1
 92 -2 l 2,29,30
 54 -2 54 -2 54 20 c 1,31,-1
 107 521 l 2,32,33
 115 603 115 603 175 654.5 c 128,-1,34
 235 706 235 706 324 706 c 0,35,36
 505 706 505 706 505 561 c 0,37,38
 505 509 505 509 473 458 c 128,-1,39
 441 407 441 407 386 385 c 1,40,41
 440 373 440 373 469.5 331 c 128,-1,42
 499 289 499 289 499 230 c 0,43,44
 499 123 499 123 429.5 61.5 c 128,-1,45
 360 0 360 0 261 0 c 2,0,-1
EndSplineSet
EndChar

StartChar: agrave
Encoding: 224 224 162
Width: 545
GlyphClass: 2
Flags: W
LayerCount: 2
Fore
SplineSet
484 66 m 1,0,-1
 511 71 l 1,1,2
 517 71 517 71 517 60 c 128,-1,3
 517 49 517 49 513.5 29.5 c 128,-1,4
 510 10 510 10 490.5 2 c 128,-1,5
 471 -6 471 -6 453 -6 c 0,6,7
 363 -6 363 -6 363 92 c 2,8,-1
 363 102 l 1,9,10
 306 -6 306 -6 207 -6 c 0,11,12
 150 -6 150 -6 100 36 c 0,13,14
 73 59 73 59 56.5 103.5 c 128,-1,15
 40 148 40 148 40 210 c 0,16,17
 40 351 40 351 107 440 c 128,-1,18
 174 529 174 529 285 529 c 0,19,20
 355 529 355 529 412 475 c 1,21,22
 418 494 418 494 422 502 c 0,23,24
 434 525 434 525 457 525 c 2,25,-1
 463 525 l 2,26,27
 488 525 488 525 488 504 c 1,28,29
 448 134 448 134 448 113 c 128,-1,30
 448 92 448 92 451 83 c 128,-1,31
 454 74 454 74 460 71 c 0,32,33
 471 66 471 66 484 66 c 1,0,-1
293 456 m 0,34,35
 127 456 127 456 127 216 c 0,36,37
 127 67 127 67 226 67 c 0,38,39
 266 67 266 67 307 106.5 c 128,-1,40
 348 146 348 146 376 236 c 1,41,-1
 389 367 l 2,42,43
 391 385 391 385 397 417 c 1,44,45
 348 456 348 456 293 456 c 0,34,35
365 614 m 0,46,47
 365 605 365 605 335.5 605 c 128,-1,48
 306 605 306 605 291 623 c 0,49,50
 203 723 203 723 200 729.5 c 128,-1,51
 197 736 197 736 197 740 c 0,52,53
 198 752 198 752 245 752 c 128,-1,54
 292 752 292 752 307 726 c 0,55,56
 365 627 365 627 365 614 c 0,46,47
EndSplineSet
EndChar

StartChar: aacute
Encoding: 225 225 163
Width: 545
GlyphClass: 2
Flags: W
LayerCount: 2
Fore
SplineSet
484 66 m 1,0,-1
 511 71 l 1,1,2
 517 71 517 71 517 60 c 128,-1,3
 517 49 517 49 513.5 29.5 c 128,-1,4
 510 10 510 10 490.5 2 c 128,-1,5
 471 -6 471 -6 453 -6 c 0,6,7
 363 -6 363 -6 363 92 c 2,8,-1
 363 102 l 1,9,10
 306 -6 306 -6 207 -6 c 0,11,12
 150 -6 150 -6 100 36 c 0,13,14
 73 59 73 59 56.5 103.5 c 128,-1,15
 40 148 40 148 40 210 c 0,16,17
 40 351 40 351 107 440 c 128,-1,18
 174 529 174 529 285 529 c 0,19,20
 355 529 355 529 412 475 c 1,21,22
 418 494 418 494 422 502 c 0,23,24
 434 525 434 525 457 525 c 2,25,-1
 463 525 l 2,26,27
 488 525 488 525 488 504 c 1,28,29
 448 134 448 134 448 113 c 128,-1,30
 448 92 448 92 451 83 c 128,-1,31
 454 74 454 74 460 71 c 0,32,33
 471 66 471 66 484 66 c 1,0,-1
293 456 m 0,34,35
 127 456 127 456 127 216 c 0,36,37
 127 67 127 67 226 67 c 0,38,39
 266 67 266 67 307 106.5 c 128,-1,40
 348 146 348 146 376 236 c 1,41,-1
 389 367 l 2,42,43
 391 385 391 385 397 417 c 1,44,45
 348 456 348 456 293 456 c 0,34,35
370 752 m 128,-1,47
 417 752 417 752 417 740.5 c 128,-1,48
 417 729 417 729 310 622 c 0,49,50
 293 605 293 605 264.5 605 c 128,-1,51
 236 605 236 605 236 614 c 0,52,53
 236 626 236 626 305 726 c 0,54,46
 323 752 323 752 370 752 c 128,-1,47
EndSplineSet
EndChar

StartChar: acircumflex
Encoding: 226 226 164
Width: 545
GlyphClass: 2
Flags: W
LayerCount: 2
Fore
SplineSet
484 66 m 1,0,-1
 511 71 l 1,1,2
 517 71 517 71 517 60 c 128,-1,3
 517 49 517 49 513.5 29.5 c 128,-1,4
 510 10 510 10 490.5 2 c 128,-1,5
 471 -6 471 -6 453 -6 c 0,6,7
 363 -6 363 -6 363 92 c 2,8,-1
 363 102 l 1,9,10
 306 -6 306 -6 207 -6 c 0,11,12
 150 -6 150 -6 100 36 c 0,13,14
 73 59 73 59 56.5 103.5 c 128,-1,15
 40 148 40 148 40 210 c 0,16,17
 40 351 40 351 107 440 c 128,-1,18
 174 529 174 529 285 529 c 0,19,20
 355 529 355 529 412 475 c 1,21,22
 418 494 418 494 422 502 c 0,23,24
 434 525 434 525 457 525 c 2,25,-1
 463 525 l 2,26,27
 488 525 488 525 488 504 c 1,28,29
 448 134 448 134 448 113 c 128,-1,30
 448 92 448 92 451 83 c 128,-1,31
 454 74 454 74 460 71 c 0,32,33
 471 66 471 66 484 66 c 1,0,-1
293 456 m 0,34,35
 127 456 127 456 127 216 c 0,36,37
 127 67 127 67 226 67 c 0,38,39
 266 67 266 67 307 106.5 c 128,-1,40
 348 146 348 146 376 236 c 1,41,-1
 389 367 l 2,42,43
 391 385 391 385 397 417 c 1,44,45
 348 456 348 456 293 456 c 0,34,35
293 726 m 2,46,-1
 318 726 l 2,47,48
 350 726 350 726 362 704 c 2,49,-1
 409 616 l 2,50,51
 414 608 414 608 413 596 c 128,-1,52
 412 584 412 584 389.5 584 c 128,-1,53
 367 584 367 584 354 597 c 1,54,-1
 299 671 l 1,55,-1
 230 597 l 1,56,57
 214 584 214 584 193 584 c 128,-1,58
 172 584 172 584 172 596 c 0,59,60
 172 605 172 605 179 616 c 2,61,-1
 245 704 l 2,62,63
 261 726 261 726 293 726 c 2,46,-1
EndSplineSet
EndChar

StartChar: atilde
Encoding: 227 227 165
Width: 545
GlyphClass: 2
Flags: W
LayerCount: 2
Fore
SplineSet
484 66 m 1,0,-1
 511 71 l 1,1,2
 517 71 517 71 517 60 c 128,-1,3
 517 49 517 49 513.5 29.5 c 128,-1,4
 510 10 510 10 490.5 2 c 128,-1,5
 471 -6 471 -6 453 -6 c 0,6,7
 363 -6 363 -6 363 92 c 2,8,-1
 363 102 l 1,9,10
 306 -6 306 -6 207 -6 c 0,11,12
 150 -6 150 -6 100 36 c 0,13,14
 73 59 73 59 56.5 103.5 c 128,-1,15
 40 148 40 148 40 210 c 0,16,17
 40 351 40 351 107 440 c 128,-1,18
 174 529 174 529 285 529 c 0,19,20
 355 529 355 529 412 475 c 1,21,22
 418 494 418 494 422 502 c 0,23,24
 434 525 434 525 457 525 c 2,25,-1
 463 525 l 2,26,27
 488 525 488 525 488 504 c 1,28,29
 448 134 448 134 448 113 c 128,-1,30
 448 92 448 92 451 83 c 128,-1,31
 454 74 454 74 460 71 c 0,32,33
 471 66 471 66 484 66 c 1,0,-1
293 456 m 0,34,35
 127 456 127 456 127 216 c 0,36,37
 127 67 127 67 226 67 c 0,38,39
 266 67 266 67 307 106.5 c 128,-1,40
 348 146 348 146 376 236 c 1,41,-1
 389 367 l 2,42,43
 391 385 391 385 397 417 c 1,44,45
 348 456 348 456 293 456 c 0,34,35
426.5 634 m 128,-1,47
 395 615 395 615 359.5 615 c 128,-1,48
 324 615 324 615 281.5 625 c 128,-1,49
 239 635 239 635 224 635 c 128,-1,50
 209 635 209 635 193.5 628.5 c 128,-1,51
 178 622 178 622 168 622 c 128,-1,52
 158 622 158 622 149 632.5 c 128,-1,53
 140 643 140 643 140 652 c 0,54,55
 140 671 140 671 174 689.5 c 128,-1,56
 208 708 208 708 242 708 c 128,-1,57
 276 708 276 708 316.5 698 c 128,-1,58
 357 688 357 688 373 688 c 128,-1,59
 389 688 389 688 404.5 694.5 c 128,-1,60
 420 701 420 701 429.5 701 c 128,-1,61
 439 701 439 701 448.5 690 c 128,-1,62
 458 679 458 679 458 671 c 0,63,46
 458 653 458 653 426.5 634 c 128,-1,47
EndSplineSet
EndChar

StartChar: adieresis
Encoding: 228 228 166
Width: 545
GlyphClass: 2
Flags: W
LayerCount: 2
Fore
SplineSet
484 66 m 1,0,-1
 511 71 l 1,1,2
 517 71 517 71 517 60 c 128,-1,3
 517 49 517 49 513.5 29.5 c 128,-1,4
 510 10 510 10 490.5 2 c 128,-1,5
 471 -6 471 -6 453 -6 c 0,6,7
 363 -6 363 -6 363 92 c 2,8,-1
 363 102 l 1,9,10
 306 -6 306 -6 207 -6 c 0,11,12
 150 -6 150 -6 100 36 c 0,13,14
 73 59 73 59 56.5 103.5 c 128,-1,15
 40 148 40 148 40 210 c 0,16,17
 40 351 40 351 107 440 c 128,-1,18
 174 529 174 529 285 529 c 0,19,20
 355 529 355 529 412 475 c 1,21,22
 418 494 418 494 422 502 c 0,23,24
 434 525 434 525 457 525 c 2,25,-1
 463 525 l 2,26,27
 488 525 488 525 488 504 c 1,28,29
 448 134 448 134 448 113 c 128,-1,30
 448 92 448 92 451 83 c 128,-1,31
 454 74 454 74 460 71 c 0,32,33
 471 66 471 66 484 66 c 1,0,-1
293 456 m 0,34,35
 127 456 127 456 127 216 c 0,36,37
 127 67 127 67 226 67 c 0,38,39
 266 67 266 67 307 106.5 c 128,-1,40
 348 146 348 146 376 236 c 1,41,-1
 389 367 l 2,42,43
 391 385 391 385 397 417 c 1,44,45
 348 456 348 456 293 456 c 0,34,35
373 702 m 2,46,-1
 377 702 l 2,47,48
 415 702 415 702 415 680 c 1,49,-1
 410 629 l 2,50,51
 407 607 407 607 368 607 c 2,52,-1
 364 607 l 2,53,54
 326 607 326 607 326 629 c 1,55,-1
 331 680 l 2,56,57
 333 702 333 702 373 702 c 2,46,-1
229 702 m 2,58,-1
 233 702 l 2,59,60
 271 702 271 702 271 680 c 1,61,-1
 266 629 l 2,62,63
 263 607 263 607 224 607 c 2,64,-1
 220 607 l 2,65,66
 182 607 182 607 182 629 c 1,67,-1
 187 680 l 2,68,69
 190 702 190 702 229 702 c 2,58,-1
EndSplineSet
EndChar

StartChar: aring
Encoding: 229 229 167
Width: 545
GlyphClass: 2
Flags: W
LayerCount: 2
Fore
SplineSet
484 66 m 1,0,-1
 511 71 l 1,1,2
 517 71 517 71 517 60 c 128,-1,3
 517 49 517 49 513.5 29.5 c 128,-1,4
 510 10 510 10 490.5 2 c 128,-1,5
 471 -6 471 -6 453 -6 c 0,6,7
 363 -6 363 -6 363 92 c 2,8,-1
 363 102 l 1,9,10
 306 -6 306 -6 207 -6 c 0,11,12
 150 -6 150 -6 100 36 c 0,13,14
 73 59 73 59 56.5 103.5 c 128,-1,15
 40 148 40 148 40 210 c 0,16,17
 40 351 40 351 107 440 c 128,-1,18
 174 529 174 529 285 529 c 0,19,20
 355 529 355 529 412 475 c 1,21,22
 418 494 418 494 422 502 c 0,23,24
 434 525 434 525 457 525 c 2,25,-1
 463 525 l 2,26,27
 488 525 488 525 488 504 c 1,28,29
 448 134 448 134 448 113 c 128,-1,30
 448 92 448 92 451 83 c 128,-1,31
 454 74 454 74 460 71 c 0,32,33
 471 66 471 66 484 66 c 1,0,-1
293 456 m 0,34,35
 127 456 127 456 127 216 c 0,36,37
 127 67 127 67 226 67 c 0,38,39
 266 67 266 67 307 106.5 c 128,-1,40
 348 146 348 146 376 236 c 1,41,-1
 389 367 l 2,42,43
 391 385 391 385 397 417 c 1,44,45
 348 456 348 456 293 456 c 0,34,35
355.5 591.5 m 128,-1,47
 328 564 328 564 292.5 564 c 128,-1,48
 257 564 257 564 235.5 585.5 c 128,-1,49
 214 607 214 607 214 642.5 c 128,-1,50
 214 678 214 678 242 705.5 c 128,-1,51
 270 733 270 733 305 733 c 128,-1,52
 340 733 340 733 361.5 711 c 128,-1,53
 383 689 383 689 383 654 c 128,-1,46
 383 619 383 619 355.5 591.5 c 128,-1,47
261 611.5 m 128,-1,55
 273 599 273 599 294.5 599 c 128,-1,56
 316 599 316 599 332 615 c 128,-1,57
 348 631 348 631 348 652 c 128,-1,58
 348 673 348 673 335.5 685.5 c 128,-1,59
 323 698 323 698 302.5 698 c 128,-1,60
 282 698 282 698 265.5 682 c 128,-1,61
 249 666 249 666 249 645 c 128,-1,54
 249 624 249 624 261 611.5 c 128,-1,55
EndSplineSet
EndChar

StartChar: ae
Encoding: 230 230 168
Width: 829
GlyphClass: 2
Flags: W
LayerCount: 2
Fore
SplineSet
694 102 m 0,0,1
 715 115 715 115 719 115 c 0,2,3
 726 115 726 115 726 99.5 c 128,-1,4
 726 84 726 84 721 58 c 0,5,6
 715 27 715 27 659 10.5 c 128,-1,7
 603 -6 603 -6 557 -6 c 0,8,9
 431 -6 431 -6 375 58 c 1,10,11
 340 30 340 30 287.5 12 c 128,-1,12
 235 -6 235 -6 174.5 -6 c 128,-1,13
 114 -6 114 -6 71.5 26.5 c 128,-1,14
 29 59 29 59 29 117.5 c 128,-1,15
 29 176 29 176 55.5 211.5 c 128,-1,16
 82 247 82 247 131 264 c 0,17,18
 212 292 212 292 339 296 c 1,19,20
 351 362 351 362 383 414 c 1,21,22
 362 457 362 457 285 457 c 0,23,24
 213 457 213 457 148 426 c 0,25,26
 127 415 127 415 125 415 c 0,27,28
 115 415 115 415 105 434 c 128,-1,29
 95 453 95 453 95 464 c 0,30,31
 95 485 95 485 156.5 507 c 128,-1,32
 218 529 218 529 290 529 c 0,33,34
 394 529 394 529 440 478 c 1,35,36
 507 529 507 529 599.5 529 c 128,-1,37
 692 529 692 529 733 487.5 c 128,-1,38
 774 446 774 446 774 397.5 c 128,-1,39
 774 349 774 349 751.5 314.5 c 128,-1,40
 729 280 729 280 690 262 c 0,41,42
 614 226 614 226 504 226 c 2,43,-1
 418 226 l 1,44,-1
 418 210 l 2,45,46
 418 131 418 131 455.5 98.5 c 128,-1,47
 493 66 493 66 564 66 c 128,-1,48
 635 66 635 66 694 102 c 0,0,1
597 457 m 0,49,50
 454 457 454 457 425 298 c 1,51,-1
 494 298 l 2,52,53
 537 298 537 298 587 308 c 0,54,55
 687 328 687 328 687 388 c 0,56,57
 687 420 687 420 663 438.5 c 128,-1,58
 639 457 639 457 597 457 c 0,49,50
331 201 m 2,59,-1
 331 226 l 1,60,61
 120 226 120 226 120 132 c 0,62,63
 120 67 120 67 195 67 c 128,-1,64
 270 67 270 67 343 117 c 1,65,66
 331 153 331 153 331 201 c 2,59,-1
EndSplineSet
EndChar

StartChar: ccedilla
Encoding: 231 231 169
Width: 485
GlyphClass: 2
Flags: W
LayerCount: 2
Fore
SplineSet
234 -210 m 0,0,1
 175 -210 175 -210 148 -190 c 0,2,3
 137 -182 137 -182 137 -169 c 0,4,5
 137 -136 137 -136 149 -136 c 1,6,-1
 159 -142 l 2,7,8
 191 -161 191 -161 227 -161 c 0,9,10
 287 -161 287 -161 287 -121 c 0,11,12
 287 -108 287 -108 277.5 -100.5 c 128,-1,13
 268 -93 268 -93 257 -90 c 0,14,15
 227 -84 227 -84 227 -69 c 0,16,17
 227 -68 227 -68 231 -56 c 2,18,-1
 251 -6 l 1,19,20
 149 -3 149 -3 98 47 c 128,-1,21
 47 97 47 97 47 196 c 128,-1,22
 47 295 47 295 72 365.5 c 128,-1,23
 97 436 97 436 158 482.5 c 128,-1,24
 219 529 219 529 311 529 c 0,25,26
 374 529 374 529 412.5 512 c 128,-1,27
 451 495 451 495 451 477 c 0,28,29
 451 466 451 466 437.5 446.5 c 128,-1,30
 424 427 424 427 412 427 c 0,31,32
 411 427 411 427 400 434 c 0,33,34
 365 457 365 457 295 457 c 128,-1,35
 225 457 225 457 179.5 397.5 c 128,-1,36
 134 338 134 338 134 210 c 0,37,38
 134 135 134 135 166.5 100.5 c 128,-1,39
 199 66 199 66 270 66 c 0,40,41
 332 66 332 66 385 90 c 0,42,43
 402 97 402 97 404 97 c 0,44,45
 410 97 410 97 410 81 c 128,-1,46
 410 65 410 65 405 40 c 0,47,48
 398 5 398 5 295 -5 c 1,49,-1
 277 -49 l 1,50,-1
 281 -49 l 2,51,52
 296 -49 296 -49 311 -52 c 128,-1,53
 326 -55 326 -55 342.5 -70.5 c 128,-1,54
 359 -86 359 -86 359 -111 c 0,55,56
 359 -210 359 -210 234 -210 c 0,0,1
EndSplineSet
EndChar

StartChar: egrave
Encoding: 232 232 170
Width: 539
GlyphClass: 2
Flags: W
LayerCount: 2
Fore
SplineSet
410 102 m 0,0,1
 430 115 430 115 434 115 c 0,2,3
 441 115 441 115 441 99.5 c 128,-1,4
 441 84 441 84 436 58 c 0,5,6
 430 27 430 27 374 10.5 c 128,-1,7
 318 -6 318 -6 272 -6 c 0,8,9
 46 -6 46 -6 46 201 c 0,10,11
 46 346 46 346 114 437.5 c 128,-1,12
 182 529 182 529 321 529 c 0,13,14
 406 529 406 529 447.5 486.5 c 128,-1,15
 489 444 489 444 489 395 c 128,-1,16
 489 346 489 346 466.5 309 c 128,-1,17
 444 272 444 272 404 252 c 0,18,19
 327 213 327 213 219 213 c 0,20,21
 170 213 170 213 133 220 c 1,22,-1
 133 210 l 2,23,24
 133 131 133 131 170.5 98.5 c 128,-1,25
 208 66 208 66 279 66 c 128,-1,26
 350 66 350 66 410 102 c 0,0,1
312 457 m 0,27,28
 162 457 162 457 138 285 c 1,29,-1
 209 285 l 2,30,31
 294 285 294 285 344 307 c 0,32,33
 366 317 366 317 384 338 c 128,-1,34
 402 359 402 359 402 388 c 128,-1,35
 402 417 402 417 377.5 437 c 128,-1,36
 353 457 353 457 312 457 c 0,27,28
381 614 m 0,37,38
 381 605 381 605 351.5 605 c 128,-1,39
 322 605 322 605 307 623 c 0,40,41
 219 723 219 723 216 729.5 c 128,-1,42
 213 736 213 736 213 740 c 0,43,44
 214 752 214 752 261 752 c 128,-1,45
 308 752 308 752 323 726 c 0,46,47
 381 627 381 627 381 614 c 0,37,38
EndSplineSet
EndChar

StartChar: eacute
Encoding: 233 233 171
Width: 539
GlyphClass: 2
Flags: W
LayerCount: 2
Fore
SplineSet
410 102 m 0,0,1
 430 115 430 115 434 115 c 0,2,3
 441 115 441 115 441 99.5 c 128,-1,4
 441 84 441 84 436 58 c 0,5,6
 430 27 430 27 374 10.5 c 128,-1,7
 318 -6 318 -6 272 -6 c 0,8,9
 46 -6 46 -6 46 201 c 0,10,11
 46 346 46 346 114 437.5 c 128,-1,12
 182 529 182 529 321 529 c 0,13,14
 406 529 406 529 447.5 486.5 c 128,-1,15
 489 444 489 444 489 395 c 128,-1,16
 489 346 489 346 466.5 309 c 128,-1,17
 444 272 444 272 404 252 c 0,18,19
 327 213 327 213 219 213 c 0,20,21
 170 213 170 213 133 220 c 1,22,-1
 133 210 l 2,23,24
 133 131 133 131 170.5 98.5 c 128,-1,25
 208 66 208 66 279 66 c 128,-1,26
 350 66 350 66 410 102 c 0,0,1
312 457 m 0,27,28
 162 457 162 457 138 285 c 1,29,-1
 209 285 l 2,30,31
 294 285 294 285 344 307 c 0,32,33
 366 317 366 317 384 338 c 128,-1,34
 402 359 402 359 402 388 c 128,-1,35
 402 417 402 417 377.5 437 c 128,-1,36
 353 457 353 457 312 457 c 0,27,28
386 752 m 128,-1,38
 433 752 433 752 433 740.5 c 128,-1,39
 433 729 433 729 326 622 c 0,40,41
 309 605 309 605 280.5 605 c 128,-1,42
 252 605 252 605 252 614 c 0,43,44
 252 626 252 626 321 726 c 0,45,37
 339 752 339 752 386 752 c 128,-1,38
EndSplineSet
EndChar

StartChar: ecircumflex
Encoding: 234 234 172
Width: 539
GlyphClass: 2
Flags: W
LayerCount: 2
Fore
SplineSet
410 102 m 0,0,1
 430 115 430 115 434 115 c 0,2,3
 441 115 441 115 441 99.5 c 128,-1,4
 441 84 441 84 436 58 c 0,5,6
 430 27 430 27 374 10.5 c 128,-1,7
 318 -6 318 -6 272 -6 c 0,8,9
 46 -6 46 -6 46 201 c 0,10,11
 46 346 46 346 114 437.5 c 128,-1,12
 182 529 182 529 321 529 c 0,13,14
 406 529 406 529 447.5 486.5 c 128,-1,15
 489 444 489 444 489 395 c 128,-1,16
 489 346 489 346 466.5 309 c 128,-1,17
 444 272 444 272 404 252 c 0,18,19
 327 213 327 213 219 213 c 0,20,21
 170 213 170 213 133 220 c 1,22,-1
 133 210 l 2,23,24
 133 131 133 131 170.5 98.5 c 128,-1,25
 208 66 208 66 279 66 c 128,-1,26
 350 66 350 66 410 102 c 0,0,1
312 457 m 0,27,28
 162 457 162 457 138 285 c 1,29,-1
 209 285 l 2,30,31
 294 285 294 285 344 307 c 0,32,33
 366 317 366 317 384 338 c 128,-1,34
 402 359 402 359 402 388 c 128,-1,35
 402 417 402 417 377.5 437 c 128,-1,36
 353 457 353 457 312 457 c 0,27,28
309 726 m 2,37,-1
 334 726 l 2,38,39
 366 726 366 726 378 704 c 2,40,-1
 425 616 l 2,41,42
 430 608 430 608 429 596 c 128,-1,43
 428 584 428 584 405.5 584 c 128,-1,44
 383 584 383 584 370 597 c 1,45,-1
 315 671 l 1,46,-1
 246 597 l 1,47,48
 230 584 230 584 209 584 c 128,-1,49
 188 584 188 584 188 596 c 0,50,51
 188 605 188 605 195 616 c 2,52,-1
 261 704 l 2,53,54
 277 726 277 726 309 726 c 2,37,-1
EndSplineSet
EndChar

StartChar: edieresis
Encoding: 235 235 173
Width: 539
GlyphClass: 2
Flags: W
LayerCount: 2
Fore
SplineSet
410 102 m 0,0,1
 430 115 430 115 434 115 c 0,2,3
 441 115 441 115 441 99.5 c 128,-1,4
 441 84 441 84 436 58 c 0,5,6
 430 27 430 27 374 10.5 c 128,-1,7
 318 -6 318 -6 272 -6 c 0,8,9
 46 -6 46 -6 46 201 c 0,10,11
 46 346 46 346 114 437.5 c 128,-1,12
 182 529 182 529 321 529 c 0,13,14
 406 529 406 529 447.5 486.5 c 128,-1,15
 489 444 489 444 489 395 c 128,-1,16
 489 346 489 346 466.5 309 c 128,-1,17
 444 272 444 272 404 252 c 0,18,19
 327 213 327 213 219 213 c 0,20,21
 170 213 170 213 133 220 c 1,22,-1
 133 210 l 2,23,24
 133 131 133 131 170.5 98.5 c 128,-1,25
 208 66 208 66 279 66 c 128,-1,26
 350 66 350 66 410 102 c 0,0,1
312 457 m 0,27,28
 162 457 162 457 138 285 c 1,29,-1
 209 285 l 2,30,31
 294 285 294 285 344 307 c 0,32,33
 366 317 366 317 384 338 c 128,-1,34
 402 359 402 359 402 388 c 128,-1,35
 402 417 402 417 377.5 437 c 128,-1,36
 353 457 353 457 312 457 c 0,27,28
389 702 m 2,37,-1
 393 702 l 2,38,39
 431 702 431 702 431 680 c 1,40,-1
 426 629 l 2,41,42
 423 607 423 607 384 607 c 2,43,-1
 380 607 l 2,44,45
 342 607 342 607 342 629 c 1,46,-1
 347 680 l 2,47,48
 349 702 349 702 389 702 c 2,37,-1
245 702 m 2,49,-1
 249 702 l 2,50,51
 287 702 287 702 287 680 c 1,52,-1
 282 629 l 2,53,54
 279 607 279 607 240 607 c 2,55,-1
 236 607 l 2,56,57
 198 607 198 607 198 629 c 1,58,-1
 203 680 l 2,59,60
 206 702 206 702 245 702 c 2,49,-1
EndSplineSet
EndChar

StartChar: igrave
Encoding: 236 236 174
Width: 265
GlyphClass: 2
Flags: W
LayerCount: 2
Fore
SplineSet
183 66 m 1,0,-1
 210 71 l 1,1,2
 216 71 216 71 216 60 c 128,-1,3
 216 49 216 49 212.5 29.5 c 128,-1,4
 209 10 209 10 189.5 2 c 128,-1,5
 170 -6 170 -6 152 -6 c 0,6,7
 63 -6 63 -6 63 89 c 0,8,9
 63 125 63 125 83 314 c 128,-1,10
 103 503 103 503 104 503 c 0,11,12
 107 525 107 525 146 525 c 2,13,-1
 150 525 l 2,14,15
 188 525 188 525 188 503 c 1,16,17
 148 137 148 137 148 112.5 c 128,-1,18
 148 88 148 88 154 78.5 c 128,-1,19
 160 69 160 69 166 67.5 c 128,-1,20
 172 66 172 66 183 66 c 1,0,-1
217 614 m 0,21,22
 217 605 217 605 187.5 605 c 128,-1,23
 158 605 158 605 143 623 c 0,24,25
 55 723 55 723 52 729.5 c 128,-1,26
 49 736 49 736 49 740 c 0,27,28
 50 752 50 752 97 752 c 128,-1,29
 144 752 144 752 159 726 c 0,30,31
 217 627 217 627 217 614 c 0,21,22
EndSplineSet
EndChar

StartChar: iacute
Encoding: 237 237 175
Width: 265
GlyphClass: 2
Flags: W
LayerCount: 2
Fore
SplineSet
183 66 m 1,0,-1
 210 71 l 1,1,2
 216 71 216 71 216 60 c 128,-1,3
 216 49 216 49 212.5 29.5 c 128,-1,4
 209 10 209 10 189.5 2 c 128,-1,5
 170 -6 170 -6 152 -6 c 0,6,7
 63 -6 63 -6 63 89 c 0,8,9
 63 125 63 125 83 314 c 128,-1,10
 103 503 103 503 104 503 c 0,11,12
 107 525 107 525 146 525 c 2,13,-1
 150 525 l 2,14,15
 188 525 188 525 188 503 c 1,16,17
 148 137 148 137 148 112.5 c 128,-1,18
 148 88 148 88 154 78.5 c 128,-1,19
 160 69 160 69 166 67.5 c 128,-1,20
 172 66 172 66 183 66 c 1,0,-1
176 752 m 128,-1,22
 223 752 223 752 223 740.5 c 128,-1,23
 223 729 223 729 116 622 c 0,24,25
 99 605 99 605 70.5 605 c 128,-1,26
 42 605 42 605 42 614 c 0,27,28
 42 626 42 626 111 726 c 0,29,21
 129 752 129 752 176 752 c 128,-1,22
EndSplineSet
EndChar

StartChar: icircumflex
Encoding: 238 238 176
Width: 265
GlyphClass: 2
Flags: W
LayerCount: 2
Fore
SplineSet
183 66 m 1,0,-1
 210 71 l 1,1,2
 216 71 216 71 216 60 c 128,-1,3
 216 49 216 49 212.5 29.5 c 128,-1,4
 209 10 209 10 189.5 2 c 128,-1,5
 170 -6 170 -6 152 -6 c 0,6,7
 63 -6 63 -6 63 89 c 0,8,9
 63 125 63 125 83 314 c 128,-1,10
 103 503 103 503 104 503 c 0,11,12
 107 525 107 525 146 525 c 2,13,-1
 150 525 l 2,14,15
 188 525 188 525 188 503 c 1,16,17
 148 137 148 137 148 112.5 c 128,-1,18
 148 88 148 88 154 78.5 c 128,-1,19
 160 69 160 69 166 67.5 c 128,-1,20
 172 66 172 66 183 66 c 1,0,-1
133 726 m 2,21,-1
 158 726 l 2,22,23
 190 726 190 726 202 704 c 2,24,-1
 249 616 l 2,25,26
 254 608 254 608 253 596 c 128,-1,27
 252 584 252 584 229.5 584 c 128,-1,28
 207 584 207 584 194 597 c 1,29,-1
 139 671 l 1,30,-1
 70 597 l 1,31,32
 54 584 54 584 33 584 c 128,-1,33
 12 584 12 584 12 596 c 0,34,35
 12 605 12 605 19 616 c 2,36,-1
 85 704 l 2,37,38
 101 726 101 726 133 726 c 2,21,-1
EndSplineSet
EndChar

StartChar: idieresis
Encoding: 239 239 177
Width: 265
GlyphClass: 2
Flags: W
LayerCount: 2
Fore
SplineSet
183 66 m 1,0,-1
 210 71 l 1,1,2
 216 71 216 71 216 60 c 128,-1,3
 216 49 216 49 212.5 29.5 c 128,-1,4
 209 10 209 10 189.5 2 c 128,-1,5
 170 -6 170 -6 152 -6 c 0,6,7
 63 -6 63 -6 63 89 c 0,8,9
 63 125 63 125 83 314 c 128,-1,10
 103 503 103 503 104 503 c 0,11,12
 107 525 107 525 146 525 c 2,13,-1
 150 525 l 2,14,15
 188 525 188 525 188 503 c 1,16,17
 148 137 148 137 148 112.5 c 128,-1,18
 148 88 148 88 154 78.5 c 128,-1,19
 160 69 160 69 166 67.5 c 128,-1,20
 172 66 172 66 183 66 c 1,0,-1
207 702 m 2,21,-1
 211 702 l 2,22,23
 249 702 249 702 249 680 c 1,24,-1
 244 629 l 2,25,26
 241 607 241 607 202 607 c 2,27,-1
 198 607 l 2,28,29
 160 607 160 607 160 629 c 1,30,-1
 165 680 l 2,31,32
 167 702 167 702 207 702 c 2,21,-1
63 702 m 2,33,-1
 67 702 l 2,34,35
 105 702 105 702 105 680 c 1,36,-1
 100 629 l 2,37,38
 97 607 97 607 58 607 c 2,39,-1
 54 607 l 2,40,41
 16 607 16 607 16 629 c 1,42,-1
 21 680 l 2,43,44
 24 702 24 702 63 702 c 2,33,-1
EndSplineSet
EndChar

StartChar: eth
Encoding: 240 240 178
Width: 569
GlyphClass: 2
Flags: W
LayerCount: 2
Fore
SplineSet
347 607 m 1,0,-1
 260 595 l 1,1,2
 251 595 251 595 244 604.5 c 128,-1,3
 237 614 237 614 237 625.5 c 128,-1,4
 237 637 237 637 254 640 c 2,5,-1
 327 650 l 1,6,7
 317 668 317 668 308.5 681 c 128,-1,8
 300 694 300 694 300 699 c 0,9,10
 300 708 300 708 312 709 c 0,11,12
 342 713 342 713 354 713 c 128,-1,13
 366 713 366 713 378 698 c 1,14,15
 398 670 398 670 404 660 c 1,16,17
 481 671 481 671 487.5 671 c 128,-1,18
 494 671 494 671 499 660.5 c 128,-1,19
 504 650 504 650 504 641 c 0,20,21
 504 627 504 627 488 626 c 1,22,-1
 427 618 l 1,23,24
 507 468 507 468 507 314 c 128,-1,25
 507 160 507 160 439 77 c 128,-1,26
 371 -6 371 -6 249 -6 c 0,27,28
 148 -6 148 -6 95 48.5 c 128,-1,29
 42 103 42 103 42 207 c 0,30,31
 42 359 42 359 113 444 c 128,-1,32
 184 529 184 529 305 529 c 0,33,34
 348 529 348 529 384 517 c 1,35,36
 367 563 367 563 347 607 c 1,0,-1
253 66 m 0,37,38
 420 66 420 66 420 310 c 0,39,40
 420 457 420 457 294 457 c 0,41,42
 214 457 214 457 171 395.5 c 128,-1,43
 128 334 128 334 128 211 c 0,44,45
 128 137 128 137 158.5 101.5 c 128,-1,46
 189 66 189 66 253 66 c 0,37,38
EndSplineSet
EndChar

StartChar: ntilde
Encoding: 241 241 179
Width: 557
GlyphClass: 2
Flags: W
LayerCount: 2
Fore
SplineSet
471 399 m 1,0,-1
 442 107 l 1,1,2
 442 77 442 77 454 71 c 0,3,4
 465 66 465 66 478 66 c 1,5,6
 478 66 478 66 505 71 c 1,7,8
 511 71 511 71 511 60 c 128,-1,9
 511 49 511 49 507.5 29.5 c 128,-1,10
 504 10 504 10 484.5 2 c 128,-1,11
 465 -6 465 -6 447 -6 c 0,12,13
 357 -6 357 -6 357 92 c 0,14,15
 357 110 357 110 371 240.5 c 128,-1,16
 385 371 385 371 385 379 c 0,17,18
 385 456 385 456 309 456 c 0,19,20
 268 456 268 456 223.5 419 c 128,-1,21
 179 382 179 382 150 295 c 1,22,-1
 121 20 l 2,23,24
 118 -2 118 -2 79 -2 c 2,25,-1
 75 -2 l 2,26,27
 37 -2 37 -2 37 19 c 1,28,29
 81 410 81 410 81 457 c 1,30,-1
 80 491 l 2,31,32
 80 514 80 514 136 514 c 0,33,34
 162 514 162 514 162 439 c 0,35,36
 162 434 162 434 161 428 c 1,37,38
 235 529 235 529 339 529 c 0,39,40
 471 529 471 529 471 399 c 1,0,-1
432.5 634 m 128,-1,42
 401 615 401 615 365.5 615 c 128,-1,43
 330 615 330 615 287.5 625 c 128,-1,44
 245 635 245 635 230 635 c 128,-1,45
 215 635 215 635 199.5 628.5 c 128,-1,46
 184 622 184 622 174 622 c 128,-1,47
 164 622 164 622 155 632.5 c 128,-1,48
 146 643 146 643 146 652 c 0,49,50
 146 671 146 671 180 689.5 c 128,-1,51
 214 708 214 708 248 708 c 128,-1,52
 282 708 282 708 322.5 698 c 128,-1,53
 363 688 363 688 379 688 c 128,-1,54
 395 688 395 688 410.5 694.5 c 128,-1,55
 426 701 426 701 435.5 701 c 128,-1,56
 445 701 445 701 454.5 690 c 128,-1,57
 464 679 464 679 464 671 c 0,58,41
 464 653 464 653 432.5 634 c 128,-1,42
EndSplineSet
EndChar

StartChar: ograve
Encoding: 242 242 180
Width: 569
GlyphClass: 2
Flags: W
LayerCount: 2
Fore
SplineSet
45 209 m 0,0,1
 45 341 45 341 106 430 c 0,2,3
 137 476 137 476 189 502.5 c 128,-1,4
 241 529 241 529 309 529 c 0,5,6
 407 529 407 529 458.5 473.5 c 128,-1,7
 510 418 510 418 510 312 c 0,8,9
 510 159 510 159 441.5 76.5 c 128,-1,10
 373 -6 373 -6 252 -6 c 0,11,12
 150 -6 150 -6 97.5 49 c 128,-1,13
 45 104 45 104 45 209 c 0,0,1
257 66 m 0,14,15
 337 66 337 66 380 128.5 c 128,-1,16
 423 191 423 191 423 310 c 0,17,18
 423 385 423 385 392.5 421 c 128,-1,19
 362 457 362 457 298 457 c 0,20,21
 217 457 217 457 174 392 c 128,-1,22
 131 327 131 327 131 212 c 0,23,24
 131 66 131 66 257 66 c 0,14,15
384 614 m 0,25,26
 384 605 384 605 354.5 605 c 128,-1,27
 325 605 325 605 310 623 c 0,28,29
 222 723 222 723 219 729.5 c 128,-1,30
 216 736 216 736 216 740 c 0,31,32
 217 752 217 752 264 752 c 128,-1,33
 311 752 311 752 326 726 c 0,34,35
 384 627 384 627 384 614 c 0,25,26
EndSplineSet
EndChar

StartChar: oacute
Encoding: 243 243 181
Width: 569
GlyphClass: 2
Flags: W
LayerCount: 2
Fore
SplineSet
45 209 m 0,0,1
 45 341 45 341 106 430 c 0,2,3
 137 476 137 476 189 502.5 c 128,-1,4
 241 529 241 529 309 529 c 0,5,6
 407 529 407 529 458.5 473.5 c 128,-1,7
 510 418 510 418 510 312 c 0,8,9
 510 159 510 159 441.5 76.5 c 128,-1,10
 373 -6 373 -6 252 -6 c 0,11,12
 150 -6 150 -6 97.5 49 c 128,-1,13
 45 104 45 104 45 209 c 0,0,1
257 66 m 0,14,15
 337 66 337 66 380 128.5 c 128,-1,16
 423 191 423 191 423 310 c 0,17,18
 423 385 423 385 392.5 421 c 128,-1,19
 362 457 362 457 298 457 c 0,20,21
 217 457 217 457 174 392 c 128,-1,22
 131 327 131 327 131 212 c 0,23,24
 131 66 131 66 257 66 c 0,14,15
389 752 m 128,-1,26
 436 752 436 752 436 740.5 c 128,-1,27
 436 729 436 729 329 622 c 0,28,29
 312 605 312 605 283.5 605 c 128,-1,30
 255 605 255 605 255 614 c 0,31,32
 255 626 255 626 324 726 c 0,33,25
 342 752 342 752 389 752 c 128,-1,26
EndSplineSet
EndChar

StartChar: ocircumflex
Encoding: 244 244 182
Width: 569
GlyphClass: 2
Flags: W
LayerCount: 2
Fore
SplineSet
45 209 m 0,0,1
 45 341 45 341 106 430 c 0,2,3
 137 476 137 476 189 502.5 c 128,-1,4
 241 529 241 529 309 529 c 0,5,6
 407 529 407 529 458.5 473.5 c 128,-1,7
 510 418 510 418 510 312 c 0,8,9
 510 159 510 159 441.5 76.5 c 128,-1,10
 373 -6 373 -6 252 -6 c 0,11,12
 150 -6 150 -6 97.5 49 c 128,-1,13
 45 104 45 104 45 209 c 0,0,1
257 66 m 0,14,15
 337 66 337 66 380 128.5 c 128,-1,16
 423 191 423 191 423 310 c 0,17,18
 423 385 423 385 392.5 421 c 128,-1,19
 362 457 362 457 298 457 c 0,20,21
 217 457 217 457 174 392 c 128,-1,22
 131 327 131 327 131 212 c 0,23,24
 131 66 131 66 257 66 c 0,14,15
312 726 m 2,25,-1
 337 726 l 2,26,27
 369 726 369 726 381 704 c 2,28,-1
 428 616 l 2,29,30
 433 608 433 608 432 596 c 128,-1,31
 431 584 431 584 408.5 584 c 128,-1,32
 386 584 386 584 373 597 c 1,33,-1
 318 671 l 1,34,-1
 249 597 l 1,35,36
 233 584 233 584 212 584 c 128,-1,37
 191 584 191 584 191 596 c 0,38,39
 191 605 191 605 198 616 c 2,40,-1
 264 704 l 2,41,42
 280 726 280 726 312 726 c 2,25,-1
EndSplineSet
EndChar

StartChar: otilde
Encoding: 245 245 183
Width: 569
GlyphClass: 2
Flags: W
LayerCount: 2
Fore
SplineSet
45 209 m 0,0,1
 45 341 45 341 106 430 c 0,2,3
 137 476 137 476 189 502.5 c 128,-1,4
 241 529 241 529 309 529 c 0,5,6
 407 529 407 529 458.5 473.5 c 128,-1,7
 510 418 510 418 510 312 c 0,8,9
 510 159 510 159 441.5 76.5 c 128,-1,10
 373 -6 373 -6 252 -6 c 0,11,12
 150 -6 150 -6 97.5 49 c 128,-1,13
 45 104 45 104 45 209 c 0,0,1
257 66 m 0,14,15
 337 66 337 66 380 128.5 c 128,-1,16
 423 191 423 191 423 310 c 0,17,18
 423 385 423 385 392.5 421 c 128,-1,19
 362 457 362 457 298 457 c 0,20,21
 217 457 217 457 174 392 c 128,-1,22
 131 327 131 327 131 212 c 0,23,24
 131 66 131 66 257 66 c 0,14,15
445.5 634 m 128,-1,26
 414 615 414 615 378.5 615 c 128,-1,27
 343 615 343 615 300.5 625 c 128,-1,28
 258 635 258 635 243 635 c 128,-1,29
 228 635 228 635 212.5 628.5 c 128,-1,30
 197 622 197 622 187 622 c 128,-1,31
 177 622 177 622 168 632.5 c 128,-1,32
 159 643 159 643 159 652 c 0,33,34
 159 671 159 671 193 689.5 c 128,-1,35
 227 708 227 708 261 708 c 128,-1,36
 295 708 295 708 335.5 698 c 128,-1,37
 376 688 376 688 392 688 c 128,-1,38
 408 688 408 688 423.5 694.5 c 128,-1,39
 439 701 439 701 448.5 701 c 128,-1,40
 458 701 458 701 467.5 690 c 128,-1,41
 477 679 477 679 477 671 c 0,42,25
 477 653 477 653 445.5 634 c 128,-1,26
EndSplineSet
EndChar

StartChar: odieresis
Encoding: 246 246 184
Width: 569
GlyphClass: 2
Flags: W
LayerCount: 2
Fore
SplineSet
45 209 m 0,0,1
 45 341 45 341 106 430 c 0,2,3
 137 476 137 476 189 502.5 c 128,-1,4
 241 529 241 529 309 529 c 0,5,6
 407 529 407 529 458.5 473.5 c 128,-1,7
 510 418 510 418 510 312 c 0,8,9
 510 159 510 159 441.5 76.5 c 128,-1,10
 373 -6 373 -6 252 -6 c 0,11,12
 150 -6 150 -6 97.5 49 c 128,-1,13
 45 104 45 104 45 209 c 0,0,1
257 66 m 0,14,15
 337 66 337 66 380 128.5 c 128,-1,16
 423 191 423 191 423 310 c 0,17,18
 423 385 423 385 392.5 421 c 128,-1,19
 362 457 362 457 298 457 c 0,20,21
 217 457 217 457 174 392 c 128,-1,22
 131 327 131 327 131 212 c 0,23,24
 131 66 131 66 257 66 c 0,14,15
392 702 m 2,25,-1
 396 702 l 2,26,27
 434 702 434 702 434 680 c 1,28,-1
 429 629 l 2,29,30
 426 607 426 607 387 607 c 2,31,-1
 383 607 l 2,32,33
 345 607 345 607 345 629 c 1,34,-1
 350 680 l 2,35,36
 352 702 352 702 392 702 c 2,25,-1
248 702 m 2,37,-1
 252 702 l 2,38,39
 290 702 290 702 290 680 c 1,40,-1
 285 629 l 2,41,42
 282 607 282 607 243 607 c 2,43,-1
 239 607 l 2,44,45
 201 607 201 607 201 629 c 1,46,-1
 206 680 l 2,47,48
 209 702 209 702 248 702 c 2,37,-1
EndSplineSet
EndChar

StartChar: divide
Encoding: 247 247 185
Width: 560
GlyphClass: 2
Flags: W
LayerCount: 2
Fore
SplineSet
302 463 m 2,0,-1
 306 463 l 2,1,2
 344 463 344 463 344 441 c 1,3,-1
 338 390 l 2,4,5
 335 368 335 368 296 368 c 2,6,-1
 292 368 l 2,7,8
 254 368 254 368 254 390 c 1,9,-1
 260 441 l 2,10,11
 262 463 262 463 302 463 c 2,0,-1
47 227 m 0,12,13
 47 264 47 264 81 264 c 2,14,-1
 485 264 l 2,15,16
 512 264 512 264 512 234 c 0,17,18
 512 197 512 197 478 197 c 2,19,-1
 74 197 l 2,20,21
 47 197 47 197 47 227 c 0,12,13
263 93 m 2,22,-1
 267 93 l 2,23,24
 305 93 305 93 305 71 c 1,25,-1
 299 20 l 2,26,27
 296 -2 296 -2 257 -2 c 2,28,-1
 253 -2 l 2,29,30
 215 -2 215 -2 215 20 c 1,31,-1
 221 71 l 2,32,33
 223 93 223 93 263 93 c 2,22,-1
EndSplineSet
EndChar

StartChar: oslash
Encoding: 248 248 186
Width: 569
GlyphClass: 2
Flags: W
LayerCount: 2
Fore
SplineSet
83 75 m 1,0,1
 51 124 51 124 51 198.5 c 128,-1,2
 51 273 51 273 66 329 c 128,-1,3
 81 385 81 385 112 430.5 c 128,-1,4
 143 476 143 476 195 502.5 c 128,-1,5
 247 529 247 529 315 529 c 0,6,7
 414 529 414 529 466 472 c 1,8,-1
 510 517 l 1,9,10
 514 523 514 523 519.5 523 c 128,-1,11
 525 523 525 523 533.5 514.5 c 128,-1,12
 542 506 542 506 542 501.5 c 128,-1,13
 542 497 542 497 537 490 c 1,14,-1
 488 440 l 1,15,16
 516 390 516 390 516 312 c 0,17,18
 516 159 516 159 447.5 76.5 c 128,-1,19
 379 -6 379 -6 258 -6 c 0,20,21
 159 -6 159 -6 107 45 c 1,22,-1
 69 6 l 2,23,24
 63 0 63 0 58.5 0 c 128,-1,25
 54 0 54 0 45.5 8.5 c 128,-1,26
 37 17 37 17 37 22.5 c 128,-1,27
 37 28 37 28 42 33 c 2,28,-1
 83 75 l 1,0,1
137 212 m 0,29,30
 137 170 137 170 146 141 c 1,31,-1
 406 410 l 1,32,33
 376 457 376 457 299.5 457 c 128,-1,34
 223 457 223 457 180 392 c 128,-1,35
 137 327 137 327 137 212 c 0,29,30
165 105 m 1,36,37
 197 66 197 66 270 66 c 128,-1,38
 343 66 343 66 386 128.5 c 128,-1,39
 429 191 429 191 429 310 c 0,40,41
 429 347 429 347 422 371 c 1,42,-1
 165 105 l 1,36,37
EndSplineSet
EndChar

StartChar: ugrave
Encoding: 249 249 187
Width: 557
GlyphClass: 2
Flags: W
LayerCount: 2
Fore
SplineSet
488 66 m 1,0,-1
 515 71 l 1,1,2
 521 71 521 71 521 60 c 128,-1,3
 521 49 521 49 517.5 29.5 c 128,-1,4
 514 10 514 10 494.5 2 c 128,-1,5
 475 -6 475 -6 457 -6 c 0,6,7
 367 -6 367 -6 367 92 c 2,8,-1
 367 102 l 1,9,10
 295 -6 295 -6 189 -6 c 0,11,12
 57 -6 57 -6 57 124 c 1,13,-1
 95 503 l 2,14,15
 98 525 98 525 137 525 c 2,16,-1
 141 525 l 2,17,18
 179 525 179 525 179 503 c 1,19,20
 143 158 143 158 143 144 c 0,21,22
 143 67 143 67 219 67 c 0,23,24
 261 67 261 67 305.5 106 c 128,-1,25
 350 145 350 145 379 237 c 1,26,-1
 407 503 l 2,27,28
 410 525 410 525 449 525 c 2,29,-1
 453 525 l 2,30,31
 491 525 491 525 491 503 c 1,32,33
 452 137 452 137 452 114.5 c 128,-1,34
 452 92 452 92 455 83 c 128,-1,35
 458 74 458 74 464 71 c 0,36,37
 475 66 475 66 488 66 c 1,0,-1
386 614 m 0,38,39
 386 605 386 605 356.5 605 c 128,-1,40
 327 605 327 605 312 623 c 0,41,42
 224 723 224 723 221 729.5 c 128,-1,43
 218 736 218 736 218 740 c 0,44,45
 219 752 219 752 266 752 c 128,-1,46
 313 752 313 752 328 726 c 0,47,48
 386 627 386 627 386 614 c 0,38,39
EndSplineSet
EndChar

StartChar: uacute
Encoding: 250 250 188
Width: 557
GlyphClass: 2
Flags: W
LayerCount: 2
Fore
SplineSet
488 66 m 1,0,-1
 515 71 l 1,1,2
 521 71 521 71 521 60 c 128,-1,3
 521 49 521 49 517.5 29.5 c 128,-1,4
 514 10 514 10 494.5 2 c 128,-1,5
 475 -6 475 -6 457 -6 c 0,6,7
 367 -6 367 -6 367 92 c 2,8,-1
 367 102 l 1,9,10
 295 -6 295 -6 189 -6 c 0,11,12
 57 -6 57 -6 57 124 c 1,13,-1
 95 503 l 2,14,15
 98 525 98 525 137 525 c 2,16,-1
 141 525 l 2,17,18
 179 525 179 525 179 503 c 1,19,20
 143 158 143 158 143 144 c 0,21,22
 143 67 143 67 219 67 c 0,23,24
 261 67 261 67 305.5 106 c 128,-1,25
 350 145 350 145 379 237 c 1,26,-1
 407 503 l 2,27,28
 410 525 410 525 449 525 c 2,29,-1
 453 525 l 2,30,31
 491 525 491 525 491 503 c 1,32,33
 452 137 452 137 452 114.5 c 128,-1,34
 452 92 452 92 455 83 c 128,-1,35
 458 74 458 74 464 71 c 0,36,37
 475 66 475 66 488 66 c 1,0,-1
391 752 m 128,-1,39
 438 752 438 752 438 740.5 c 128,-1,40
 438 729 438 729 331 622 c 0,41,42
 314 605 314 605 285.5 605 c 128,-1,43
 257 605 257 605 257 614 c 0,44,45
 257 626 257 626 326 726 c 0,46,38
 344 752 344 752 391 752 c 128,-1,39
EndSplineSet
EndChar

StartChar: ucircumflex
Encoding: 251 251 189
Width: 557
GlyphClass: 2
Flags: W
LayerCount: 2
Fore
SplineSet
488 66 m 1,0,-1
 515 71 l 1,1,2
 521 71 521 71 521 60 c 128,-1,3
 521 49 521 49 517.5 29.5 c 128,-1,4
 514 10 514 10 494.5 2 c 128,-1,5
 475 -6 475 -6 457 -6 c 0,6,7
 367 -6 367 -6 367 92 c 2,8,-1
 367 102 l 1,9,10
 295 -6 295 -6 189 -6 c 0,11,12
 57 -6 57 -6 57 124 c 1,13,-1
 95 503 l 2,14,15
 98 525 98 525 137 525 c 2,16,-1
 141 525 l 2,17,18
 179 525 179 525 179 503 c 1,19,20
 143 158 143 158 143 144 c 0,21,22
 143 67 143 67 219 67 c 0,23,24
 261 67 261 67 305.5 106 c 128,-1,25
 350 145 350 145 379 237 c 1,26,-1
 407 503 l 2,27,28
 410 525 410 525 449 525 c 2,29,-1
 453 525 l 2,30,31
 491 525 491 525 491 503 c 1,32,33
 452 137 452 137 452 114.5 c 128,-1,34
 452 92 452 92 455 83 c 128,-1,35
 458 74 458 74 464 71 c 0,36,37
 475 66 475 66 488 66 c 1,0,-1
314 726 m 2,38,-1
 339 726 l 2,39,40
 371 726 371 726 383 704 c 2,41,-1
 430 616 l 2,42,43
 435 608 435 608 434 596 c 128,-1,44
 433 584 433 584 410.5 584 c 128,-1,45
 388 584 388 584 375 597 c 1,46,-1
 320 671 l 1,47,-1
 251 597 l 1,48,49
 235 584 235 584 214 584 c 128,-1,50
 193 584 193 584 193 596 c 0,51,52
 193 605 193 605 200 616 c 2,53,-1
 266 704 l 2,54,55
 282 726 282 726 314 726 c 2,38,-1
EndSplineSet
EndChar

StartChar: udieresis
Encoding: 252 252 190
Width: 557
GlyphClass: 2
Flags: W
LayerCount: 2
Fore
SplineSet
488 66 m 1,0,-1
 515 71 l 1,1,2
 521 71 521 71 521 60 c 128,-1,3
 521 49 521 49 517.5 29.5 c 128,-1,4
 514 10 514 10 494.5 2 c 128,-1,5
 475 -6 475 -6 457 -6 c 0,6,7
 367 -6 367 -6 367 92 c 2,8,-1
 367 102 l 1,9,10
 295 -6 295 -6 189 -6 c 0,11,12
 57 -6 57 -6 57 124 c 1,13,-1
 95 503 l 2,14,15
 98 525 98 525 137 525 c 2,16,-1
 141 525 l 2,17,18
 179 525 179 525 179 503 c 1,19,20
 143 158 143 158 143 144 c 0,21,22
 143 67 143 67 219 67 c 0,23,24
 261 67 261 67 305.5 106 c 128,-1,25
 350 145 350 145 379 237 c 1,26,-1
 407 503 l 2,27,28
 410 525 410 525 449 525 c 2,29,-1
 453 525 l 2,30,31
 491 525 491 525 491 503 c 1,32,33
 452 137 452 137 452 114.5 c 128,-1,34
 452 92 452 92 455 83 c 128,-1,35
 458 74 458 74 464 71 c 0,36,37
 475 66 475 66 488 66 c 1,0,-1
394 702 m 2,38,-1
 398 702 l 2,39,40
 436 702 436 702 436 680 c 1,41,-1
 431 629 l 2,42,43
 428 607 428 607 389 607 c 2,44,-1
 385 607 l 2,45,46
 347 607 347 607 347 629 c 1,47,-1
 352 680 l 2,48,49
 354 702 354 702 394 702 c 2,38,-1
250 702 m 2,50,-1
 254 702 l 2,51,52
 292 702 292 702 292 680 c 1,53,-1
 287 629 l 2,54,55
 284 607 284 607 245 607 c 2,56,-1
 241 607 l 2,57,58
 203 607 203 607 203 629 c 1,59,-1
 208 680 l 2,60,61
 211 702 211 702 250 702 c 2,50,-1
EndSplineSet
EndChar

StartChar: yacute
Encoding: 253 253 191
Width: 481
GlyphClass: 2
Flags: W
LayerCount: 2
Fore
SplineSet
103 -208 m 2,0,-1
 88 -208 l 2,1,2
 57 -208 57 -208 57 -193 c 0,3,4
 57 -188 57 -188 169 28 c 1,5,6
 41 502 41 502 41 508 c 0,7,8
 41 525 41 525 86 525 c 2,9,-1
 94 525 l 2,10,11
 128 525 128 525 132 509 c 2,12,-1
 230 148 l 1,13,-1
 401 509 l 2,14,15
 409 525 409 525 447 525 c 128,-1,16
 485 525 485 525 485 509 c 0,17,18
 485 508 485 508 481 494 c 1,19,-1
 152 -187 l 2,20,21
 142 -208 142 -208 103 -208 c 2,0,-1
348 752 m 128,-1,23
 395 752 395 752 395 740.5 c 128,-1,24
 395 729 395 729 288 622 c 0,25,26
 271 605 271 605 242.5 605 c 128,-1,27
 214 605 214 605 214 614 c 0,28,29
 214 626 214 626 283 726 c 0,30,22
 301 752 301 752 348 752 c 128,-1,23
EndSplineSet
EndChar

StartChar: thorn
Encoding: 254 254 192
Width: 570
GlyphClass: 2
Flags: W
LayerCount: 2
Fore
SplineSet
175 752 m 2,0,-1
 179 752 l 2,1,2
 217 752 217 752 217 731 c 1,3,-1
 186 436 l 1,4,5
 244 529 244 529 341 529 c 0,6,7
 400 529 400 529 452 486 c 0,8,9
 479 464 479 464 496 419.5 c 128,-1,10
 513 375 513 375 513 313 c 0,11,12
 513 172 513 172 448.5 83 c 128,-1,13
 384 -6 384 -6 277 -6 c 0,14,15
 203 -6 203 -6 144 45 c 1,16,-1
 120 -186 l 2,17,18
 117 -208 117 -208 78 -208 c 2,19,-1
 74 -208 l 2,20,21
 36 -208 36 -208 36 -187 c 1,22,-1
 133 730 l 2,23,24
 135 752 135 752 175 752 c 2,0,-1
322 456 m 0,25,26
 283 456 283 456 242 421 c 128,-1,27
 201 386 201 386 172 305 c 1,28,-1
 151 110 l 1,29,30
 201 66 201 66 265 66 c 0,31,32
 426 66 426 66 426 307 c 0,33,34
 426 456 426 456 322 456 c 0,25,26
EndSplineSet
EndChar

StartChar: ydieresis
Encoding: 255 255 193
Width: 481
GlyphClass: 2
Flags: W
LayerCount: 2
Fore
SplineSet
103 -208 m 2,0,-1
 88 -208 l 2,1,2
 57 -208 57 -208 57 -193 c 0,3,4
 57 -188 57 -188 169 28 c 1,5,6
 41 502 41 502 41 508 c 0,7,8
 41 525 41 525 86 525 c 2,9,-1
 94 525 l 2,10,11
 128 525 128 525 132 509 c 2,12,-1
 230 148 l 1,13,-1
 401 509 l 2,14,15
 409 525 409 525 447 525 c 128,-1,16
 485 525 485 525 485 509 c 0,17,18
 485 508 485 508 481 494 c 1,19,-1
 152 -187 l 2,20,21
 142 -208 142 -208 103 -208 c 2,0,-1
351 702 m 2,22,-1
 355 702 l 2,23,24
 393 702 393 702 393 680 c 1,25,-1
 388 629 l 2,26,27
 385 607 385 607 346 607 c 2,28,-1
 342 607 l 2,29,30
 304 607 304 607 304 629 c 1,31,-1
 309 680 l 2,32,33
 311 702 311 702 351 702 c 2,22,-1
207 702 m 2,34,-1
 211 702 l 2,35,36
 249 702 249 702 249 680 c 1,37,-1
 244 629 l 2,38,39
 241 607 241 607 202 607 c 2,40,-1
 198 607 l 2,41,42
 160 607 160 607 160 629 c 1,43,-1
 165 680 l 2,44,45
 168 702 168 702 207 702 c 2,34,-1
EndSplineSet
EndChar

StartChar: dotlessi
Encoding: 305 305 194
Width: 265
GlyphClass: 2
Flags: W
LayerCount: 2
Fore
SplineSet
183 66 m 1,0,-1
 210 71 l 1,1,2
 216 71 216 71 216 60 c 128,-1,3
 216 49 216 49 212.5 29.5 c 128,-1,4
 209 10 209 10 189.5 2 c 128,-1,5
 170 -6 170 -6 152 -6 c 0,6,7
 63 -6 63 -6 63 89 c 0,8,9
 63 125 63 125 83 314 c 128,-1,10
 103 503 103 503 104 503 c 0,11,12
 107 525 107 525 146 525 c 2,13,-1
 150 525 l 2,14,15
 188 525 188 525 188 503 c 1,16,17
 148 137 148 137 148 112.5 c 128,-1,18
 148 88 148 88 154 78.5 c 128,-1,19
 160 69 160 69 166 67.5 c 128,-1,20
 172 66 172 66 183 66 c 1,0,-1
EndSplineSet
EndChar

StartChar: Lslash
Encoding: 321 321 195
Width: 486
GlyphClass: 2
Flags: W
LayerCount: 2
Fore
SplineSet
427 0 m 2,0,-1
 78 0 l 2,1,2
 62 0 62 0 56.5 7 c 128,-1,3
 51 14 51 14 51 30 c 1,4,-1
 84 348 l 1,5,-1
 12 308 l 2,6,7
 4 304 4 304 2 304 c 0,8,9
 -5 304 -5 304 -5 322.5 c 128,-1,10
 -5 341 -5 341 17 354 c 2,11,-1
 89 394 l 1,12,-1
 119 680 l 2,13,14
 121 702 121 702 161 702 c 2,15,-1
 169 702 l 2,16,17
 207 702 207 702 207 680 c 1,18,-1
 183 447 l 1,19,-1
 297 511 l 2,20,21
 305 515 305 515 308 515 c 0,22,23
 315 515 315 515 315 496 c 128,-1,24
 315 477 315 477 292 465 c 2,25,-1
 178 401 l 1,26,-1
 144 76 l 1,27,-1
 435 76 l 2,28,29
 452 76 452 76 452 54 c 0,30,31
 452 0 452 0 427 0 c 2,0,-1
EndSplineSet
EndChar

StartChar: lslash
Encoding: 322 322 196
Width: 293
GlyphClass: 2
Flags: W
LayerCount: 2
Fore
SplineSet
207 66 m 1,0,-1
 234 71 l 1,1,2
 240 71 240 71 240 60 c 128,-1,3
 240 49 240 49 236.5 29.5 c 128,-1,4
 233 10 233 10 213.5 2 c 128,-1,5
 194 -6 194 -6 176 -6 c 0,6,7
 86 -6 86 -6 86 92 c 0,8,9
 86 118 86 118 110 351 c 1,10,-1
 66 327 l 2,11,12
 58 323 58 323 55 323 c 0,13,14
 48 323 48 323 48 342 c 128,-1,15
 48 361 48 361 71 373 c 2,16,-1
 115 397 l 1,17,18
 122 469 122 469 132 552 c 0,19,20
 151 724 151 724 151 730 c 0,21,22
 154 752 154 752 193 752 c 2,23,-1
 197 752 l 2,24,25
 235 752 235 752 235 730 c 1,26,27
 220 593 220 593 205 447 c 1,28,-1
 249 472 l 2,29,30
 257 476 257 476 260 476 c 0,31,32
 267 476 267 476 267 457 c 128,-1,33
 267 438 267 438 244 426 c 2,34,-1
 200 401 l 1,35,36
 171 126 171 126 171 109 c 128,-1,37
 171 92 171 92 174 83 c 128,-1,38
 177 74 177 74 184 71 c 0,39,40
 194 66 194 66 207 66 c 1,0,-1
EndSplineSet
EndChar

StartChar: OE
Encoding: 338 338 197
Width: 1021
GlyphClass: 2
Flags: W
LayerCount: 2
Fore
SplineSet
651 700 m 2,0,-1
 1004 700 l 2,1,2
 1021 700 1021 700 1021 678 c 0,3,4
 1021 624 1021 624 996 624 c 2,5,-1
 701 624 l 1,6,-1
 677 396 l 1,7,-1
 941 396 l 2,8,9
 958 396 958 396 958 374 c 0,10,11
 958 320 958 320 933 320 c 2,12,-1
 669 320 l 1,13,-1
 644 76 l 1,14,-1
 940 76 l 2,15,16
 957 76 957 76 957 54 c 0,17,18
 957 0 957 0 932 0 c 2,19,-1
 578 0 l 2,20,21
 551 0 551 0 551 24 c 0,22,23
 551 30 551 30 556 73 c 1,24,25
 468 -6 468 -6 330.5 -6 c 128,-1,26
 193 -6 193 -6 123 67 c 128,-1,27
 53 140 53 140 53 282 c 0,28,29
 53 489 53 489 145.5 597.5 c 128,-1,30
 238 706 238 706 402 706 c 0,31,32
 539 706 539 706 613 629 c 1,33,-1
 618 670 l 2,34,35
 621 700 621 700 651 700 c 2,0,-1
335 70 m 0,36,37
 450 70 450 70 518 158.5 c 128,-1,38
 586 247 586 247 586 410 c 0,39,40
 586 519 586 519 537 574.5 c 128,-1,41
 488 630 488 630 394 630 c 0,42,43
 278 630 278 630 211 543 c 128,-1,44
 144 456 144 456 144 291 c 0,45,46
 144 182 144 182 192.5 126 c 128,-1,47
 241 70 241 70 335 70 c 0,36,37
EndSplineSet
EndChar

StartChar: oe
Encoding: 339 339 198
Width: 871
GlyphClass: 2
Flags: W
LayerCount: 2
Fore
SplineSet
736 102 m 0,0,1
 757 115 757 115 761 115 c 0,2,3
 768 115 768 115 768 99.5 c 128,-1,4
 768 84 768 84 763 58 c 0,5,6
 757 27 757 27 701 10.5 c 128,-1,7
 645 -6 645 -6 599 -6 c 0,8,9
 480 -6 480 -6 424 50 c 1,10,11
 362 -6 362 -6 259 -6 c 128,-1,12
 156 -6 156 -6 103.5 49 c 128,-1,13
 51 104 51 104 51 209 c 0,14,15
 51 341 51 341 112 430 c 0,16,17
 143 476 143 476 195 502.5 c 128,-1,18
 247 529 247 529 315 529 c 0,19,20
 412 529 412 529 470 468 c 1,21,22
 539 529 539 529 648 529 c 0,23,24
 733 529 733 529 774.5 486.5 c 128,-1,25
 816 444 816 444 816 395 c 128,-1,26
 816 346 816 346 793.5 309 c 128,-1,27
 771 272 771 272 732 252 c 0,28,29
 654 213 654 213 546 213 c 0,30,31
 497 213 497 213 460 220 c 1,32,-1
 460 210 l 2,33,34
 460 131 460 131 497.5 98.5 c 128,-1,35
 535 66 535 66 606 66 c 128,-1,36
 677 66 677 66 736 102 c 0,0,1
639 457 m 0,37,38
 489 457 489 457 465 285 c 1,39,-1
 536 285 l 2,40,41
 621 285 621 285 670 307 c 0,42,43
 693 317 693 317 711 338 c 128,-1,44
 729 359 729 359 729 388 c 128,-1,45
 729 417 729 417 704.5 437 c 128,-1,46
 680 457 680 457 639 457 c 0,37,38
263 66 m 0,47,48
 339 66 339 66 383 123 c 1,49,50
 373 154 373 154 373 201 c 0,51,52
 373 315 373 315 414 394 c 1,53,54
 382 457 382 457 302.5 457 c 128,-1,55
 223 457 223 457 180 392 c 128,-1,56
 137 327 137 327 137 212 c 0,57,58
 137 66 137 66 263 66 c 0,47,48
EndSplineSet
EndChar

StartChar: Scaron
Encoding: 352 352 199
Width: 500
GlyphClass: 2
Flags: W
LayerCount: 2
Fore
SplineSet
198 598.5 m 128,-1,1
 157 567 157 567 157 508 c 0,2,3
 157 478 157 478 178.5 456.5 c 128,-1,4
 200 435 200 435 233 423 c 128,-1,5
 266 411 266 411 303.5 394 c 128,-1,6
 341 377 341 377 374 358.5 c 128,-1,7
 407 340 407 340 428.5 303.5 c 128,-1,8
 450 267 450 267 450 218 c 0,9,10
 450 115 450 115 382.5 54.5 c 128,-1,11
 315 -6 315 -6 206 -6 c 0,12,13
 154 -6 154 -6 95 9.5 c 128,-1,14
 36 25 36 25 36 56 c 0,15,16
 36 121 36 121 52 121 c 0,17,18
 54 121 54 121 74 108.5 c 128,-1,19
 94 96 94 96 131.5 83 c 128,-1,20
 169 70 169 70 222 70 c 128,-1,21
 275 70 275 70 317 107.5 c 128,-1,22
 359 145 359 145 359 204 c 0,23,24
 359 245 359 245 329 272 c 128,-1,25
 299 299 299 299 256 315.5 c 128,-1,26
 213 332 213 332 170 350.5 c 128,-1,27
 127 369 127 369 97 406 c 128,-1,28
 67 443 67 443 67 498 c 0,29,30
 67 591 67 591 134 648.5 c 128,-1,31
 201 706 201 706 309 706 c 0,32,33
 358 706 358 706 411 688.5 c 128,-1,34
 464 671 464 671 464 646 c 0,35,36
 464 636 464 636 448.5 614 c 128,-1,37
 433 592 433 592 426 592 c 0,38,39
 422 592 422 592 406 602 c 0,40,41
 358 630 358 630 298.5 630 c 128,-1,0
 239 630 239 630 198 598.5 c 128,-1,1
202 872 m 2,42,43
 197 881 197 881 198 892.5 c 128,-1,44
 199 904 199 904 221.5 904 c 128,-1,45
 244 904 244 904 257 891 c 1,46,-1
 310 817 l 1,47,-1
 381 891 l 1,48,49
 397 904 397 904 418 904 c 128,-1,50
 439 904 439 904 439 890 c 0,51,52
 439 882 439 882 432 872 c 2,53,-1
 365 784 l 2,54,55
 349 762 349 762 317 762 c 2,56,-1
 292 762 l 2,57,58
 260 762 260 762 248 784 c 2,59,-1
 202 872 l 2,42,43
EndSplineSet
EndChar

StartChar: scaron
Encoding: 353 353 200
Width: 413
GlyphClass: 2
Flags: W
LayerCount: 2
Fore
SplineSet
27 51 m 0,0,1
 27 105 27 105 43 105 c 0,2,3
 46 105 46 105 61 96 c 0,4,5
 108 66 108 66 159 66 c 128,-1,6
 210 66 210 66 240 89.5 c 128,-1,7
 270 113 270 113 270 150.5 c 128,-1,8
 270 188 270 188 247.5 209.5 c 128,-1,9
 225 231 225 231 193 242 c 128,-1,10
 161 253 161 253 129.5 265.5 c 128,-1,11
 98 278 98 278 75.5 306 c 128,-1,12
 53 334 53 334 53 379 c 0,13,14
 53 446 53 446 104.5 487.5 c 128,-1,15
 156 529 156 529 235 529 c 0,16,17
 278 529 278 529 318.5 517 c 128,-1,18
 359 505 359 505 359 481 c 0,19,20
 359 471 359 471 346.5 452 c 128,-1,21
 334 433 334 433 323 433 c 0,22,23
 322 433 322 433 310 439 c 0,24,25
 274 457 274 457 232.5 457 c 128,-1,26
 191 457 191 457 166 439 c 128,-1,27
 141 421 141 421 141 392.5 c 128,-1,28
 141 364 141 364 163 347 c 128,-1,29
 185 330 185 330 216.5 319 c 128,-1,30
 248 308 248 308 280 293.5 c 128,-1,31
 312 279 312 279 334 248 c 128,-1,32
 356 217 356 217 356 171 c 0,33,34
 356 92 356 92 304.5 43 c 128,-1,35
 253 -6 253 -6 167 -6 c 0,36,37
 127 -6 127 -6 77 9 c 128,-1,38
 27 24 27 24 27 51 c 0,0,1
125 692 m 2,39,40
 120 701 120 701 121 712.5 c 128,-1,41
 122 724 122 724 144.5 724 c 128,-1,42
 167 724 167 724 180 711 c 1,43,-1
 233 637 l 1,44,-1
 304 711 l 1,45,46
 320 724 320 724 341 724 c 128,-1,47
 362 724 362 724 362 710 c 0,48,49
 362 702 362 702 355 692 c 2,50,-1
 288 604 l 2,51,52
 272 582 272 582 240 582 c 2,53,-1
 215 582 l 2,54,55
 183 582 183 582 171 604 c 2,56,-1
 125 692 l 2,39,40
EndSplineSet
EndChar

StartChar: Ydieresis
Encoding: 376 376 201
Width: 559
GlyphClass: 2
Flags: W
LayerCount: 2
Fore
SplineSet
246 -2 m 2,0,-1
 238 -2 l 2,1,2
 200 -2 200 -2 200 20 c 1,3,-1
 235 359 l 1,4,-1
 59 667 l 2,5,6
 53 676 53 676 53 683 c 0,7,8
 53 702 53 702 100 702 c 2,9,-1
 111 702 l 2,10,11
 144 702 144 702 153 687 c 2,12,-1
 291 441 l 1,13,-1
 485 688 l 2,14,15
 495 702 495 702 535.5 702 c 128,-1,16
 576 702 576 702 576 686 c 0,17,18
 576 681 576 681 566 667 c 2,19,-1
 323 356 l 1,20,-1
 288 20 l 2,21,22
 285 -2 285 -2 246 -2 c 2,0,-1
408 882 m 2,23,-1
 412 882 l 2,24,25
 450 882 450 882 450 860 c 1,26,-1
 445 809 l 2,27,28
 442 787 442 787 403 787 c 2,29,-1
 399 787 l 2,30,31
 361 787 361 787 361 809 c 1,32,-1
 366 860 l 2,33,34
 368 882 368 882 408 882 c 2,23,-1
264 882 m 2,35,-1
 268 882 l 2,36,37
 306 882 306 882 306 860 c 1,38,-1
 301 809 l 2,39,40
 298 787 298 787 259 787 c 2,41,-1
 255 787 l 2,42,43
 217 787 217 787 217 809 c 1,44,-1
 222 860 l 2,45,46
 225 882 225 882 264 882 c 2,35,-1
EndSplineSet
EndChar

StartChar: Zcaron
Encoding: 381 381 202
Width: 616
GlyphClass: 2
Flags: W
LayerCount: 2
Fore
SplineSet
513 0 m 2,0,-1
 25 0 l 2,1,2
 18 0 18 0 12 16.5 c 128,-1,3
 6 33 6 33 6 46.5 c 128,-1,4
 6 60 6 60 11 65 c 2,5,-1
 479 624 l 1,6,-1
 118 624 l 2,7,8
 101 624 101 624 101 646 c 0,9,10
 101 700 101 700 126 700 c 2,11,-1
 585 700 l 2,12,13
 590 700 590 700 596 683.5 c 128,-1,14
 602 667 602 667 602 653.5 c 128,-1,15
 602 640 602 640 597 635 c 2,16,-1
 129 76 l 1,17,-1
 521 76 l 2,18,19
 538 76 538 76 538 54 c 0,20,21
 538 0 538 0 513 0 c 2,0,-1
262 873 m 2,22,23
 257 882 257 882 258 893.5 c 128,-1,24
 259 905 259 905 281.5 905 c 128,-1,25
 304 905 304 905 317 892 c 1,26,-1
 370 818 l 1,27,-1
 441 892 l 1,28,29
 457 905 457 905 478 905 c 128,-1,30
 499 905 499 905 499 891 c 0,31,32
 499 883 499 883 492 873 c 2,33,-1
 425 785 l 2,34,35
 409 763 409 763 377 763 c 2,36,-1
 352 763 l 2,37,38
 320 763 320 763 308 785 c 2,39,-1
 262 873 l 2,22,23
EndSplineSet
EndChar

StartChar: zcaron
Encoding: 382 382 203
Width: 489
GlyphClass: 2
Flags: W
LayerCount: 2
Fore
SplineSet
401 0 m 2,0,-1
 31 0 l 2,1,2
 26 0 26 0 20 15.5 c 128,-1,3
 14 31 14 31 14 44 c 128,-1,4
 14 57 14 57 19 62 c 2,5,-1
 352 451 l 1,6,-1
 96 451 l 2,7,8
 79 451 79 451 79 478 c 0,9,10
 79 523 79 523 104 523 c 2,11,-1
 455 523 l 2,12,13
 461 523 461 523 465.5 507 c 128,-1,14
 470 491 470 491 470 478 c 128,-1,15
 470 465 470 465 466 461 c 2,16,-1
 134 72 l 1,17,-1
 409 72 l 2,18,19
 426 72 426 72 426 45 c 0,20,21
 426 0 426 0 401 0 c 2,0,-1
188 692 m 2,22,23
 183 701 183 701 184 712.5 c 128,-1,24
 185 724 185 724 207.5 724 c 128,-1,25
 230 724 230 724 243 711 c 1,26,-1
 296 637 l 1,27,-1
 367 711 l 1,28,29
 383 724 383 724 404 724 c 128,-1,30
 425 724 425 724 425 710 c 0,31,32
 425 702 425 702 418 692 c 2,33,-1
 351 604 l 2,34,35
 335 582 335 582 303 582 c 2,36,-1
 278 582 l 2,37,38
 246 582 246 582 234 604 c 2,39,-1
 188 692 l 2,22,23
EndSplineSet
EndChar

StartChar: florin
Encoding: 402 402 204
Width: 332
GlyphClass: 2
Flags: W
LayerCount: 2
Fore
SplineSet
286 523 m 2,0,1
 301 523 301 523 301 504 c 128,-1,2
 301 485 301 485 286 468 c 128,-1,3
 271 451 271 451 254 451 c 2,4,-1
 188 451 l 1,5,-1
 99 -186 l 2,6,7
 96 -208 96 -208 56 -208 c 2,8,-1
 52 -208 l 2,9,10
 15 -208 15 -208 15 -186 c 1,11,-1
 104 451 l 1,12,-1
 64 451 l 2,13,14
 48 451 48 451 48 478 c 0,15,16
 48 523 48 523 75 523 c 2,17,-1
 115 523 l 1,18,-1
 128 624 l 2,19,20
 145 756 145 756 276 756 c 0,21,22
 346 756 346 756 346 726 c 0,23,24
 346 717 346 717 336 697 c 128,-1,25
 326 677 326 677 318 677 c 0,26,27
 317 677 317 677 312 678 c 0,28,29
 294 684 294 684 270.5 684 c 128,-1,30
 247 684 247 684 232 670 c 128,-1,31
 217 656 217 656 211 614 c 2,32,-1
 199 523 l 1,33,-1
 286 523 l 2,0,1
EndSplineSet
EndChar

StartChar: circumflex
Encoding: 710 710 205
Width: 320
GlyphClass: 2
Flags: W
LayerCount: 2
Fore
SplineSet
151 726 m 2,0,-1
 176 726 l 2,1,2
 208 726 208 726 220 704 c 2,3,-1
 267 616 l 2,4,5
 272 608 272 608 271 596 c 128,-1,6
 270 584 270 584 247.5 584 c 128,-1,7
 225 584 225 584 212 597 c 1,8,-1
 157 671 l 1,9,-1
 88 597 l 1,10,11
 72 584 72 584 51 584 c 128,-1,12
 30 584 30 584 30 596 c 0,13,14
 30 605 30 605 37 616 c 2,15,-1
 103 704 l 2,16,17
 119 726 119 726 151 726 c 2,0,-1
EndSplineSet
EndChar

StartChar: caron
Encoding: 711 711 206
Width: 320
GlyphClass: 2
Flags: W
LayerCount: 2
Fore
SplineSet
45 692 m 2,0,1
 40 701 40 701 41 712.5 c 128,-1,2
 42 724 42 724 64.5 724 c 128,-1,3
 87 724 87 724 100 711 c 1,4,-1
 153 637 l 1,5,-1
 224 711 l 1,6,7
 240 724 240 724 261 724 c 128,-1,8
 282 724 282 724 282 710 c 0,9,10
 282 702 282 702 275 692 c 2,11,-1
 208 604 l 2,12,13
 192 582 192 582 160 582 c 2,14,-1
 135 582 l 2,15,16
 103 582 103 582 91 604 c 2,17,-1
 45 692 l 2,0,1
EndSplineSet
EndChar

StartChar: breve
Encoding: 728 728 207
Width: 320
GlyphClass: 2
Flags: W
LayerCount: 2
Fore
SplineSet
50 700 m 0,0,1
 63 651 63 651 153.5 651 c 128,-1,2
 244 651 244 651 269 690 c 0,3,4
 272 695 272 695 275 703 c 128,-1,5
 278 711 278 711 281.5 713 c 128,-1,6
 285 715 285 715 293 715 c 0,7,8
 307 715 307 715 307 703 c 0,9,10
 307 648 307 648 257.5 616.5 c 128,-1,11
 208 585 208 585 152 585 c 128,-1,12
 96 585 96 585 56.5 612 c 128,-1,13
 17 639 17 639 17 688 c 0,14,15
 17 715 17 715 34 715 c 0,16,17
 45 715 45 715 47 710.5 c 128,-1,18
 49 706 49 706 50 700 c 0,0,1
EndSplineSet
EndChar

StartChar: dotaccent
Encoding: 729 729 208
Width: 320
GlyphClass: 2
Flags: W
LayerCount: 2
Fore
SplineSet
164 702 m 2,0,-1
 168 702 l 2,1,2
 206 702 206 702 206 680 c 1,3,-1
 201 629 l 2,4,5
 198 607 198 607 159 607 c 2,6,-1
 155 607 l 2,7,8
 117 607 117 607 117 629 c 1,9,-1
 122 680 l 2,10,11
 125 702 125 702 164 702 c 2,0,-1
EndSplineSet
EndChar

StartChar: ring
Encoding: 730 730 209
Width: 320
GlyphClass: 2
Flags: W
LayerCount: 2
Fore
SplineSet
216.5 591.5 m 128,-1,1
 189 564 189 564 153.5 564 c 128,-1,2
 118 564 118 564 96.5 585.5 c 128,-1,3
 75 607 75 607 75 642.5 c 128,-1,4
 75 678 75 678 103 705.5 c 128,-1,5
 131 733 131 733 166 733 c 128,-1,6
 201 733 201 733 222.5 711 c 128,-1,7
 244 689 244 689 244 654 c 128,-1,0
 244 619 244 619 216.5 591.5 c 128,-1,1
122 611.5 m 128,-1,9
 134 599 134 599 155.5 599 c 128,-1,10
 177 599 177 599 193 615 c 128,-1,11
 209 631 209 631 209 652 c 128,-1,12
 209 673 209 673 196.5 685.5 c 128,-1,13
 184 698 184 698 163.5 698 c 128,-1,14
 143 698 143 698 126.5 682 c 128,-1,15
 110 666 110 666 110 645 c 128,-1,8
 110 624 110 624 122 611.5 c 128,-1,9
EndSplineSet
EndChar

StartChar: ogonek
Encoding: 731 731 210
Width: 320
GlyphClass: 2
Flags: W
LayerCount: 2
Fore
SplineSet
116 14 m 2,0,-1
 125 14 l 2,1,2
 141 14 141 14 141 2 c 0,3,4
 141 -5 141 -5 131.5 -29.5 c 128,-1,5
 122 -54 122 -54 122 -70 c 0,6,7
 122 -113 122 -113 180 -113 c 0,8,9
 198 -113 198 -113 220 -104 c 128,-1,10
 242 -95 242 -95 244 -95 c 0,11,12
 250 -95 250 -95 250 -108 c 0,13,14
 250 -183 250 -183 161 -183 c 0,15,16
 99 -183 99 -183 76 -156 c 128,-1,17
 53 -129 53 -129 53 -97.5 c 128,-1,18
 53 -66 53 -66 69.5 -26 c 128,-1,19
 86 14 86 14 116 14 c 2,0,-1
EndSplineSet
EndChar

StartChar: tilde
Encoding: 732 732 211
Width: 365
GlyphClass: 2
Flags: W
LayerCount: 2
Fore
SplineSet
310.5 634 m 128,-1,1
 279 615 279 615 243.5 615 c 128,-1,2
 208 615 208 615 165.5 625 c 128,-1,3
 123 635 123 635 108 635 c 128,-1,4
 93 635 93 635 77.5 628.5 c 128,-1,5
 62 622 62 622 52 622 c 128,-1,6
 42 622 42 622 33 632.5 c 128,-1,7
 24 643 24 643 24 652 c 0,8,9
 24 671 24 671 58 689.5 c 128,-1,10
 92 708 92 708 126 708 c 128,-1,11
 160 708 160 708 200.5 698 c 128,-1,12
 241 688 241 688 257 688 c 128,-1,13
 273 688 273 688 288.5 694.5 c 128,-1,14
 304 701 304 701 313.5 701 c 128,-1,15
 323 701 323 701 332.5 690 c 128,-1,16
 342 679 342 679 342 671 c 0,17,0
 342 653 342 653 310.5 634 c 128,-1,1
EndSplineSet
EndChar

StartChar: hungarumlaut
Encoding: 733 733 212
Width: 384
GlyphClass: 2
Flags: W
LayerCount: 2
Fore
SplineSet
332 752 m 128,-1,1
 379 752 379 752 379 740.5 c 128,-1,2
 379 729 379 729 272 622 c 0,3,4
 255 605 255 605 226.5 605 c 128,-1,5
 198 605 198 605 198 614 c 0,6,7
 198 626 198 626 267 726 c 0,8,0
 285 752 285 752 332 752 c 128,-1,1
186 752 m 128,-1,10
 233 752 233 752 233 740.5 c 128,-1,11
 233 729 233 729 126 622 c 0,12,13
 109 605 109 605 80.5 605 c 128,-1,14
 52 605 52 605 52 614 c 0,15,16
 52 626 52 626 121 726 c 0,17,9
 139 752 139 752 186 752 c 128,-1,10
EndSplineSet
EndChar

StartChar: pi
Encoding: 960 960 213
Width: 616
GlyphClass: 2
Flags: W
LayerCount: 2
Fore
SplineSet
436 -2 m 2,0,1
 401 -2 401 -2 401 47 c 2,2,-1
 401 87 l 2,3,4
 401 106 401 106 438 451 c 1,5,-1
 244 451 l 1,6,7
 227 350 227 350 193 223.5 c 128,-1,8
 159 97 159 97 126 23 c 0,9,10
 115 -2 115 -2 89 -2 c 2,11,-1
 66 -2 l 2,12,13
 40 -2 40 -2 40 17 c 1,14,-1
 43 28 l 1,15,16
 79 110 79 110 112 230 c 128,-1,17
 145 350 145 350 160 451 c 1,18,19
 114 451 114 451 84.5 446.5 c 128,-1,20
 55 442 55 442 53 442 c 0,21,22
 35 442 35 442 35 470.5 c 128,-1,23
 35 499 35 499 72 511 c 128,-1,24
 109 523 109 523 189 523 c 2,25,-1
 595 523 l 2,26,27
 617 523 617 523 617 508 c 0,28,29
 617 474 617 474 600 459 c 0,30,31
 591 451 591 451 578 451 c 2,32,-1
 522 451 l 1,33,34
 487 112 487 112 487 82 c 2,35,-1
 487 33 l 2,36,37
 487 -2 487 -2 464 -2 c 2,38,-1
 436 -2 l 2,0,1
EndSplineSet
EndChar

StartChar: endash
Encoding: 8211 8211 214
Width: 500
GlyphClass: 2
Flags: W
LayerCount: 2
Fore
SplineSet
24 302 m 2,0,-1
 484 302 l 2,1,2
 501 302 501 302 501 275 c 0,3,4
 501 230 501 230 476 230 c 2,5,-1
 16 230 l 2,6,7
 -1 230 -1 230 -1 257 c 0,8,9
 -1 302 -1 302 24 302 c 2,0,-1
EndSplineSet
EndChar

StartChar: emdash
Encoding: 8212 8212 215
Width: 1000
GlyphClass: 2
Flags: W
LayerCount: 2
Fore
SplineSet
24 302 m 2,0,-1
 982 302 l 2,1,2
 999 302 999 302 999 275 c 0,3,4
 999 230 999 230 974 230 c 2,5,-1
 16 230 l 2,6,7
 -1 230 -1 230 -1 257 c 0,8,9
 -1 302 -1 302 24 302 c 2,0,-1
EndSplineSet
EndChar

StartChar: quoteleft
Encoding: 8216 8216 216
Width: 212
GlyphClass: 2
Flags: W
LayerCount: 2
Fore
SplineSet
95 531 m 2,0,-1
 86 531 l 2,1,2
 49 531 49 531 49 559 c 1,3,4
 57 640 57 640 99.5 697.5 c 128,-1,5
 142 755 142 755 171 755 c 128,-1,6
 200 755 200 755 200 741 c 0,7,8
 200 736 200 736 192 723 c 0,9,10
 148 655 148 655 138 563 c 0,11,12
 135 531 135 531 95 531 c 2,0,-1
EndSplineSet
EndChar

StartChar: quoteright
Encoding: 8217 8217 217
Width: 212
GlyphClass: 2
Flags: W
LayerCount: 2
Fore
SplineSet
125 754 m 2,0,-1
 134 754 l 2,1,2
 171 754 171 754 171 726 c 1,3,4
 163 645 163 645 120.5 587.5 c 128,-1,5
 78 530 78 530 49 530 c 128,-1,6
 20 530 20 530 20 544 c 0,7,8
 20 549 20 549 28 562 c 0,9,10
 72 630 72 630 82 722 c 0,11,12
 85 754 85 754 125 754 c 2,0,-1
EndSplineSet
EndChar

StartChar: quotesinglbase
Encoding: 8218 8218 218
Width: 198
GlyphClass: 2
Flags: W
LayerCount: 2
Fore
SplineSet
106 108 m 2,0,-1
 115 108 l 2,1,2
 152 108 152 108 152 80 c 1,3,4
 144 -1 144 -1 101.5 -58.5 c 128,-1,5
 59 -116 59 -116 30 -116 c 128,-1,6
 1 -116 1 -116 1 -102 c 0,7,8
 1 -97 1 -97 9 -84 c 0,9,10
 53 -16 53 -16 63 76 c 0,11,12
 66 108 66 108 106 108 c 2,0,-1
EndSplineSet
EndChar

StartChar: quotedblleft
Encoding: 8220 8220 219
Width: 350
GlyphClass: 2
Flags: W
LayerCount: 2
Fore
SplineSet
218 531 m 2,0,-1
 209 531 l 2,1,2
 172 531 172 531 172 559 c 1,3,4
 180 640 180 640 222.5 697.5 c 128,-1,5
 265 755 265 755 294 755 c 128,-1,6
 323 755 323 755 323 741 c 0,7,8
 323 736 323 736 315 723 c 0,9,10
 271 655 271 655 261 563 c 0,11,12
 258 531 258 531 218 531 c 2,0,-1
78 531 m 2,13,-1
 69 531 l 2,14,15
 32 531 32 531 32 559 c 1,16,17
 40 640 40 640 82.5 697.5 c 128,-1,18
 125 755 125 755 154 755 c 128,-1,19
 183 755 183 755 183 741 c 0,20,21
 183 736 183 736 175 723 c 0,22,23
 131 655 131 655 121 563 c 0,24,25
 118 531 118 531 78 531 c 2,13,-1
EndSplineSet
EndChar

StartChar: quotedblright
Encoding: 8221 8221 220
Width: 350
GlyphClass: 2
Flags: W
LayerCount: 2
Fore
SplineSet
267 755 m 2,0,-1
 276 755 l 2,1,2
 313 755 313 755 313 727 c 1,3,4
 305 646 305 646 262.5 588.5 c 128,-1,5
 220 531 220 531 191 531 c 128,-1,6
 162 531 162 531 162 545 c 0,7,8
 162 550 162 550 170 563 c 0,9,10
 214 631 214 631 224 723 c 0,11,12
 227 755 227 755 267 755 c 2,0,-1
127 755 m 2,13,-1
 136 755 l 2,14,15
 173 755 173 755 173 727 c 1,16,17
 165 646 165 646 122.5 588.5 c 128,-1,18
 80 531 80 531 51 531 c 128,-1,19
 22 531 22 531 22 545 c 0,20,21
 22 550 22 550 30 563 c 0,22,23
 74 631 74 631 84 723 c 0,24,25
 87 755 87 755 127 755 c 2,13,-1
EndSplineSet
EndChar

StartChar: quotedblbase
Encoding: 8222 8222 221
Width: 336
GlyphClass: 2
Flags: W
LayerCount: 2
Fore
SplineSet
244 108 m 2,0,-1
 253 108 l 2,1,2
 290 108 290 108 290 80 c 1,3,4
 282 -1 282 -1 239.5 -58.5 c 128,-1,5
 197 -116 197 -116 168 -116 c 128,-1,6
 139 -116 139 -116 139 -102 c 0,7,8
 139 -97 139 -97 147 -84 c 0,9,10
 191 -16 191 -16 201 76 c 0,11,12
 204 108 204 108 244 108 c 2,0,-1
106 108 m 2,13,-1
 115 108 l 2,14,15
 152 108 152 108 152 80 c 1,16,17
 144 -1 144 -1 101.5 -58.5 c 128,-1,18
 59 -116 59 -116 30 -116 c 128,-1,19
 1 -116 1 -116 1 -102 c 0,20,21
 1 -97 1 -97 9 -84 c 0,22,23
 53 -16 53 -16 63 76 c 0,24,25
 66 108 66 108 106 108 c 2,13,-1
EndSplineSet
EndChar

StartChar: dagger
Encoding: 8224 8224 222
Width: 535
GlyphClass: 2
Flags: W
LayerCount: 2
Fore
SplineSet
84 422 m 2,0,1
 67 422 67 422 67 452 c 0,2,3
 67 502 67 502 92 502 c 2,4,-1
 250 502 l 1,5,-1
 268 680 l 2,6,7
 270 702 270 702 310 702 c 128,-1,8
 350 702 350 702 350 680 c 1,9,-1
 332 502 l 1,10,-1
 489 502 l 2,11,12
 506 502 506 502 506 472 c 0,13,14
 506 422 506 422 481 422 c 2,15,-1
 323 422 l 1,16,-1
 267 -118 l 2,17,18
 264 -140 264 -140 224.5 -140 c 128,-1,19
 185 -140 185 -140 185 -118 c 1,20,-1
 241 422 l 1,21,-1
 84 422 l 2,0,1
EndSplineSet
EndChar

StartChar: daggerdbl
Encoding: 8225 8225 223
Width: 535
GlyphClass: 2
Flags: W
LayerCount: 2
Fore
SplineSet
443 60 m 2,0,-1
 285 60 l 1,1,-1
 267 -118 l 2,2,3
 264 -140 264 -140 224.5 -140 c 128,-1,4
 185 -140 185 -140 185 -118 c 1,5,-1
 203 60 l 1,6,-1
 46 60 l 2,7,8
 29 60 29 60 29 90 c 0,9,10
 29 140 29 140 54 140 c 2,11,-1
 212 140 l 1,12,-1
 241 422 l 1,13,-1
 84 422 l 2,14,15
 67 422 67 422 67 452 c 0,16,17
 67 502 67 502 92 502 c 2,18,-1
 250 502 l 1,19,-1
 268 680 l 2,20,21
 270 702 270 702 310 702 c 128,-1,22
 350 702 350 702 350 680 c 1,23,-1
 332 502 l 1,24,-1
 489 502 l 2,25,26
 506 502 506 502 506 472 c 0,27,28
 506 422 506 422 481 422 c 2,29,-1
 323 422 l 1,30,-1
 294 140 l 1,31,-1
 451 140 l 2,32,33
 468 140 468 140 468 110 c 0,34,35
 468 60 468 60 443 60 c 2,0,-1
EndSplineSet
EndChar

StartChar: bullet
Encoding: 8226 8226 224
Width: 336
GlyphClass: 2
Flags: W
LayerCount: 2
Fore
SplineSet
72 233 m 128,-1,1
 40 265 40 265 40 316.5 c 128,-1,2
 40 368 40 368 80 410 c 128,-1,3
 120 452 120 452 174 452 c 128,-1,4
 228 452 228 452 260.5 420 c 128,-1,5
 293 388 293 388 293 335 c 128,-1,6
 293 282 293 282 252.5 241.5 c 128,-1,7
 212 201 212 201 158 201 c 128,-1,0
 104 201 104 201 72 233 c 128,-1,1
EndSplineSet
EndChar

StartChar: ellipsis
Encoding: 8230 8230 225
Width: 617
GlyphClass: 2
Flags: W
LayerCount: 2
Fore
SplineSet
513 108 m 2,0,-1
 530 108 l 2,1,2
 568 108 568 108 568 86 c 1,3,-1
 561 20 l 2,4,5
 558 -2 558 -2 519 -2 c 2,6,-1
 502 -2 l 2,7,8
 464 -2 464 -2 464 20 c 1,9,-1
 471 86 l 2,10,11
 473 108 473 108 513 108 c 2,0,-1
305 108 m 2,12,-1
 322 108 l 2,13,14
 360 108 360 108 360 86 c 1,15,-1
 353 20 l 2,16,17
 350 -2 350 -2 311 -2 c 2,18,-1
 294 -2 l 2,19,20
 256 -2 256 -2 256 20 c 1,21,-1
 263 86 l 2,22,23
 265 108 265 108 305 108 c 2,12,-1
96 108 m 2,24,-1
 113 108 l 2,25,26
 151 108 151 108 151 86 c 1,27,-1
 144 20 l 2,28,29
 141 -2 141 -2 102 -2 c 2,30,-1
 85 -2 l 2,31,32
 47 -2 47 -2 47 20 c 1,33,-1
 54 86 l 2,34,35
 56 108 56 108 96 108 c 2,24,-1
EndSplineSet
EndChar

